G04*
G04 #@! TF.GenerationSoftware,Altium Limited,Altium Designer,20.0.13 (296)*
G04*
G04 Layer_Physical_Order=1*
G04 Layer_Color=255*
%FSLAX44Y44*%
%MOMM*%
G71*
G01*
G75*
%ADD19R,1.3500X1.8000*%
%ADD20O,1.7500X0.3000*%
%ADD21O,0.3000X1.7500*%
%ADD22R,2.3100X2.5200*%
%ADD23R,1.6000X2.8000*%
%ADD24R,1.2000X0.5000*%
%ADD25R,1.1000X1.7500*%
%ADD26R,5.5000X2.0000*%
%ADD27R,1.7500X1.1000*%
%ADD28R,2.1000X1.4000*%
%ADD29R,1.8000X1.3500*%
%ADD30R,0.9652X1.7018*%
%ADD31R,1.7018X0.9652*%
%ADD32R,2.5200X2.3100*%
G04:AMPARAMS|DCode=33|XSize=0.98mm|YSize=2.4mm|CornerRadius=0.245mm|HoleSize=0mm|Usage=FLASHONLY|Rotation=0.000|XOffset=0mm|YOffset=0mm|HoleType=Round|Shape=RoundedRectangle|*
%AMROUNDEDRECTD33*
21,1,0.9800,1.9100,0,0,0.0*
21,1,0.4900,2.4000,0,0,0.0*
1,1,0.4900,0.2450,-0.9550*
1,1,0.4900,-0.2450,-0.9550*
1,1,0.4900,-0.2450,0.9550*
1,1,0.4900,0.2450,0.9550*
%
%ADD33ROUNDEDRECTD33*%
%ADD34R,1.8200X1.1600*%
%ADD35R,1.8000X0.8000*%
%ADD64R,5.5700X5.9600*%
%ADD65C,0.3000*%
%ADD66C,0.6000*%
%ADD67C,1.8000*%
%ADD68R,1.8000X1.8000*%
%ADD69R,1.3000X1.3000*%
%ADD70C,1.3000*%
%ADD71R,1.3000X1.3000*%
%ADD72R,1.8000X1.8000*%
%ADD73R,1.9050X1.9050*%
%ADD74C,1.9050*%
%ADD75C,1.7000*%
%ADD76C,4.0000*%
%ADD77C,0.6000*%
%ADD78C,0.4000*%
G36*
X632000Y534000D02*
Y490000D01*
X605000Y457000D01*
X597000Y447000D01*
X561000Y411000D01*
X388000D01*
X364000Y435000D01*
X353590D01*
X353590Y476000D01*
X353393Y476991D01*
X352831Y477831D01*
X342831Y487831D01*
X341991Y488393D01*
X341000Y488590D01*
X327754D01*
X327369Y489860D01*
X327831Y490169D01*
X333831Y496169D01*
X334393Y497009D01*
X334590Y498000D01*
Y501965D01*
X335860Y502396D01*
X337395Y500395D01*
X339915Y498461D01*
X342850Y497245D01*
X344730Y496998D01*
Y509000D01*
Y521002D01*
X342850Y520755D01*
X339915Y519539D01*
X337395Y517605D01*
X335860Y515604D01*
X334590Y516035D01*
Y524000D01*
X334393Y524991D01*
X333831Y525831D01*
X319831Y539831D01*
X318991Y540393D01*
X318000Y540590D01*
X223000D01*
X222009Y540393D01*
X221169Y539831D01*
X204169Y522831D01*
X203607Y521991D01*
X203410Y521000D01*
Y497000D01*
X203607Y496009D01*
X204169Y495169D01*
X210169Y489169D01*
X211009Y488607D01*
X212000Y488410D01*
X226000D01*
X226991Y488607D01*
X227831Y489169D01*
X230831Y492169D01*
X243073Y504410D01*
X256952Y504410D01*
X257478Y503140D01*
X253169Y498831D01*
X252607Y497991D01*
X252410Y497000D01*
X252410Y456389D01*
X251505Y455119D01*
X249000D01*
X248401Y455000D01*
X167000D01*
X151000Y465947D01*
Y534000D01*
X170800Y543000D01*
X371541D01*
X372067Y541730D01*
X357169Y526831D01*
X356607Y525991D01*
X356410Y525000D01*
Y517228D01*
X355208Y516819D01*
X354605Y517605D01*
X352085Y519539D01*
X349150Y520755D01*
X347270Y521002D01*
Y509000D01*
Y496998D01*
X349150Y497245D01*
X352085Y498461D01*
X354605Y500395D01*
X355208Y501181D01*
X356410Y500773D01*
Y496000D01*
X356410Y487000D01*
X356418Y486961D01*
X356411Y486922D01*
X357411Y453922D01*
X357414Y453910D01*
X357412Y453899D01*
X357528Y453417D01*
X357639Y452937D01*
X357645Y452928D01*
X357648Y452916D01*
X357939Y452515D01*
X358225Y452114D01*
X358235Y452108D01*
X358241Y452099D01*
X398241Y415099D01*
X398630Y414861D01*
X399009Y414607D01*
X399059Y414597D01*
X399103Y414571D01*
X399553Y414499D01*
X400000Y414410D01*
X469000D01*
X469991Y414607D01*
X470831Y415169D01*
X476831Y421169D01*
X477393Y422009D01*
X477590Y423000D01*
Y447000D01*
X477393Y447991D01*
X476831Y448831D01*
X468831Y456831D01*
X468369Y457140D01*
X468754Y458410D01*
X505000Y458410D01*
X505991Y458607D01*
X506831Y459169D01*
X531073Y483410D01*
X570000Y483410D01*
X570991Y483607D01*
X571831Y484169D01*
X581831Y494169D01*
X582393Y495009D01*
X582590Y496000D01*
X582590Y509842D01*
X583860Y510030D01*
X584135Y509123D01*
X586228Y505207D01*
X589045Y501775D01*
X592477Y498958D01*
X596393Y496865D01*
X600641Y495576D01*
X605060Y495141D01*
X609479Y495576D01*
X613727Y496865D01*
X617643Y498958D01*
X621075Y501775D01*
X623892Y505207D01*
X625985Y509123D01*
X627274Y513371D01*
X627709Y517790D01*
X627274Y522209D01*
X625985Y526457D01*
X623892Y530373D01*
X621075Y533805D01*
X617643Y536622D01*
X613727Y538715D01*
X609479Y540004D01*
X605060Y540439D01*
X600641Y540004D01*
X596393Y538715D01*
X592477Y536622D01*
X589045Y533805D01*
X586228Y530373D01*
X584135Y526457D01*
X583860Y525550D01*
X582590Y525738D01*
Y530000D01*
X582393Y530991D01*
X581831Y531831D01*
X571932Y541730D01*
X571981Y542156D01*
X572368Y543000D01*
X623000D01*
X632000Y534000D01*
D02*
G37*
G36*
X835000Y535000D02*
Y510000D01*
X829000Y504000D01*
X692000Y504000D01*
X688000Y508000D01*
Y536000D01*
X693000Y541000D01*
X829000D01*
X835000Y535000D01*
D02*
G37*
G36*
X332000Y524000D02*
Y498000D01*
X326000Y492000D01*
X306000D01*
X297000Y501000D01*
X296389Y501611D01*
X296000Y502000D01*
X291000Y507000D01*
X285000D01*
X242000Y507000D01*
X229000Y494000D01*
X226000Y491000D01*
X212000D01*
X206000Y497000D01*
Y521000D01*
X223000Y538000D01*
X318000D01*
X332000Y524000D01*
D02*
G37*
G36*
X570000Y540000D02*
X580000Y530000D01*
X580000Y496000D01*
X570000Y486000D01*
X530000Y486000D01*
X505000Y461000D01*
X433000Y461000D01*
X408000Y486000D01*
Y510000D01*
X409000Y512000D01*
X415000Y516000D01*
X437000D01*
X443000Y522000D01*
Y531000D01*
X452000Y540000D01*
X570000Y540000D01*
D02*
G37*
G36*
X273444Y433893D02*
X272958Y432720D01*
X257750D01*
Y425512D01*
X256781Y425045D01*
X255610Y425688D01*
Y425920D01*
X251189D01*
Y431930D01*
X250876Y433506D01*
X249983Y434843D01*
X249976Y434850D01*
X249590Y436790D01*
X248365Y438623D01*
X246533Y439847D01*
X245645Y440024D01*
X245227Y441402D01*
X250706Y446881D01*
X260457D01*
X273444Y433893D01*
D02*
G37*
G36*
X440000Y534990D02*
X440000Y524000D01*
X435000Y519000D01*
X411000D01*
X402000Y510000D01*
Y486000D01*
X433000Y455000D01*
X467000D01*
X475000Y447000D01*
Y423000D01*
X469000Y417000D01*
X400000D01*
X360000Y454000D01*
X359000Y487000D01*
X359000Y496000D01*
Y525000D01*
X375000Y541000D01*
X433990Y541000D01*
X440000Y534990D01*
D02*
G37*
G36*
X691020Y543156D02*
X691068Y542730D01*
X686169Y537831D01*
X685607Y536991D01*
X685410Y536000D01*
Y508000D01*
X685607Y507009D01*
X686169Y506169D01*
X690169Y502169D01*
X691009Y501607D01*
X692000Y501410D01*
X829000Y501410D01*
X829000Y501410D01*
D01*
X829991Y501607D01*
X830831Y502169D01*
X836831Y508169D01*
X837393Y509009D01*
X837590Y510000D01*
Y535000D01*
X837393Y535991D01*
X836831Y536831D01*
X832424Y541238D01*
X832432Y541263D01*
X833138Y542320D01*
X835383Y541390D01*
X837700Y539842D01*
X838685Y538857D01*
X839431Y537896D01*
X839489Y537809D01*
X839827Y536992D01*
X839852Y536870D01*
X840000Y535683D01*
Y535683D01*
X840000D01*
X840000Y535683D01*
X840000Y11267D01*
X840000Y10353D01*
X839644Y8562D01*
X838945Y6875D01*
X838117Y5635D01*
X837284Y4710D01*
X837284D01*
X837284Y4710D01*
X836402Y3828D01*
X834327Y2442D01*
X833498Y2098D01*
X832460Y1060D01*
X831959Y994D01*
X831897Y1006D01*
X41818D01*
X41797Y1024D01*
Y1343D01*
X40932Y985D01*
X7483D01*
X7422Y973D01*
X5125Y1275D01*
X2928Y2185D01*
X1041Y3633D01*
X-407Y5520D01*
X-1318Y7718D01*
X-1620Y10014D01*
X-1608Y10076D01*
Y176617D01*
X-536Y495052D01*
X6980Y502797D01*
X8249Y502744D01*
X9045Y501775D01*
X12477Y498958D01*
X16393Y496865D01*
X20641Y495576D01*
X25060Y495141D01*
X29479Y495576D01*
X33727Y496865D01*
X33997Y497009D01*
X37643Y498958D01*
X41075Y501775D01*
X43892Y505207D01*
X45919Y509000D01*
X127000D01*
X148000Y488000D01*
Y454000D01*
X155000Y447000D01*
X237515D01*
X238001Y445827D01*
X232087Y439913D01*
X231194Y438576D01*
X230881Y437000D01*
Y425920D01*
X214530D01*
Y415840D01*
X231102D01*
X231194Y415374D01*
X231667Y414666D01*
X230972Y413420D01*
X230652Y413420D01*
X230652Y413420D01*
X230631Y413420D01*
X214530D01*
Y404794D01*
X213260Y404267D01*
X209869Y407658D01*
Y410000D01*
X209790Y410398D01*
Y425290D01*
X193866D01*
X193710Y425290D01*
X192596Y425668D01*
Y437551D01*
X192399Y438543D01*
X191838Y439383D01*
X186409Y444812D01*
X185569Y445373D01*
X184578Y445570D01*
X161422D01*
X160431Y445373D01*
X159591Y444812D01*
X155188Y440409D01*
X154627Y439569D01*
X154430Y438578D01*
Y380192D01*
X153160Y379666D01*
X147119Y385706D01*
Y444071D01*
X146806Y445647D01*
X146018Y446826D01*
X145913Y446984D01*
X126984Y465913D01*
X125647Y466806D01*
X124071Y467119D01*
X120302D01*
X120218Y468389D01*
X120789Y468464D01*
X120986Y468490D01*
X123013Y468757D01*
X125820Y469920D01*
X128230Y471770D01*
X130080Y474180D01*
X131243Y476987D01*
X131472Y478730D01*
X108528D01*
X108757Y476987D01*
X109920Y474180D01*
X111770Y471770D01*
X114180Y469920D01*
X116987Y468757D01*
X119014Y468490D01*
D01*
D01*
X119782Y468389D01*
X119698Y467119D01*
X95302D01*
X95218Y468389D01*
X95986Y468490D01*
X98013Y468757D01*
X100820Y469920D01*
X103230Y471770D01*
X105080Y474180D01*
X106243Y476987D01*
X106639Y480000D01*
X106243Y483013D01*
X105080Y485820D01*
X103230Y488230D01*
X100820Y490080D01*
X98013Y491243D01*
X95000Y491640D01*
X91987Y491243D01*
X89180Y490080D01*
X86770Y488230D01*
X84920Y485820D01*
X83757Y483013D01*
X83360Y480000D01*
X83757Y476987D01*
X84920Y474180D01*
X86770Y471770D01*
X89180Y469920D01*
X91987Y468757D01*
X94014Y468490D01*
D01*
D01*
X94782Y468389D01*
X94698Y467119D01*
X87706D01*
X80246Y474580D01*
X81243Y476987D01*
X81639Y480000D01*
X81243Y483013D01*
X80080Y485820D01*
X78230Y488230D01*
X75820Y490080D01*
X73012Y491243D01*
X70000Y491640D01*
X66987Y491243D01*
X64180Y490080D01*
X61770Y488230D01*
X59920Y485820D01*
X58757Y483013D01*
X58360Y480000D01*
X58757Y476987D01*
X59920Y474180D01*
X61770Y471770D01*
X64180Y469920D01*
X66987Y468757D01*
X70000Y468360D01*
X73012Y468757D01*
X74006Y469169D01*
X79882Y463293D01*
X79396Y462119D01*
X68706D01*
X55539Y475287D01*
X56243Y476987D01*
X56639Y480000D01*
X56243Y483013D01*
X55080Y485820D01*
X53230Y488230D01*
X50820Y490080D01*
X48012Y491243D01*
X45000Y491640D01*
X41987Y491243D01*
X39180Y490080D01*
X36770Y488230D01*
X34920Y485820D01*
X33757Y483013D01*
X33360Y480000D01*
X33757Y476987D01*
X34920Y474180D01*
X36770Y471770D01*
X39180Y469920D01*
X41987Y468757D01*
X45000Y468360D01*
X48012Y468757D01*
X49713Y469462D01*
X64087Y455087D01*
X65424Y454194D01*
X67000Y453881D01*
X120294D01*
X133881Y440294D01*
Y379000D01*
X134194Y377424D01*
X135087Y376087D01*
X147517Y363658D01*
D01*
X178151Y333024D01*
X177705Y331674D01*
X177223Y331603D01*
X108330Y400496D01*
X108816Y401669D01*
X114540D01*
Y424749D01*
X91460D01*
Y408520D01*
X90287Y408034D01*
X56799Y441522D01*
X55463Y442415D01*
X53887Y442728D01*
X41680D01*
Y450149D01*
X18600D01*
Y427069D01*
X41680D01*
Y434490D01*
X52180D01*
X144398Y342272D01*
X163378Y323293D01*
X162892Y322119D01*
X123706D01*
X114540Y331285D01*
Y348540D01*
X91460D01*
Y325460D01*
X108715D01*
X117882Y316292D01*
X117396Y315119D01*
X83246D01*
X41680Y356685D01*
Y373940D01*
X18600D01*
Y350860D01*
X35855D01*
X69211Y317504D01*
X68585Y316333D01*
X68270Y316396D01*
Y312270D01*
X72396D01*
X72333Y312585D01*
X73504Y313211D01*
X78627Y308087D01*
X79964Y307194D01*
X81540Y306881D01*
X194152D01*
X282050Y218983D01*
X281564Y217809D01*
X277016D01*
X272605Y222221D01*
X272219Y224162D01*
X270994Y225994D01*
X269162Y227219D01*
X267000Y227649D01*
X264838Y227219D01*
X263006Y225994D01*
X261782Y224162D01*
X261467Y222583D01*
X259889Y222269D01*
X258056Y221044D01*
X256832Y219212D01*
X256518Y217633D01*
X254939Y217319D01*
X253106Y216095D01*
X251882Y214262D01*
X251568Y212683D01*
X249989Y212369D01*
X248157Y211145D01*
X246932Y209312D01*
X246502Y207151D01*
X246932Y204989D01*
X248157Y203157D01*
X249989Y201932D01*
X251930Y201546D01*
X254494Y198983D01*
X254008Y197809D01*
X158016D01*
X108539Y247287D01*
X109025Y248460D01*
X114540D01*
Y271540D01*
X91460D01*
Y255311D01*
X90287Y254825D01*
X56799Y288313D01*
X55463Y289206D01*
X53887Y289519D01*
X41680D01*
Y296940D01*
X18600D01*
Y273860D01*
X41680D01*
Y281281D01*
X52180D01*
X67646Y265815D01*
X67021Y264644D01*
X67000Y264648D01*
X64838Y264219D01*
X63006Y262994D01*
X61781Y261162D01*
X61604Y260270D01*
X67000D01*
Y259000D01*
X68270D01*
Y253604D01*
X69162Y253781D01*
X70994Y255006D01*
X72219Y256838D01*
X72649Y259000D01*
X72644Y259021D01*
X73815Y259646D01*
X144479Y188983D01*
X143993Y187809D01*
X114540D01*
Y194600D01*
X91460D01*
Y175025D01*
X90287Y174539D01*
X53453Y211373D01*
X52116Y212266D01*
X50540Y212579D01*
X41680D01*
Y220000D01*
X18600D01*
Y196920D01*
X41680D01*
Y204341D01*
X48834D01*
X68537Y184638D01*
X68270Y184138D01*
Y179270D01*
X73138D01*
X73638Y179537D01*
X91147Y162027D01*
X92484Y161134D01*
X94060Y160821D01*
X113940D01*
X115516Y161134D01*
X116853Y162027D01*
X126706Y171881D01*
X396424D01*
X397821Y170484D01*
Y157690D01*
X398134Y156114D01*
X399027Y154777D01*
X399608Y154389D01*
X399223Y153119D01*
X358040D01*
Y160540D01*
X339460D01*
Y137460D01*
X344631D01*
Y135557D01*
X343531Y133912D01*
X343101Y131750D01*
X343531Y129588D01*
X344333Y128389D01*
X343654Y127119D01*
X328706D01*
X319539Y136287D01*
X319980Y137352D01*
Y149000D01*
Y160540D01*
X311960D01*
Y152119D01*
X305807D01*
X304162Y153219D01*
X303270Y153396D01*
Y148000D01*
X302000D01*
Y146730D01*
X296604D01*
X296781Y145838D01*
X298006Y144006D01*
X299838Y142781D01*
X301779Y142395D01*
X324087Y120087D01*
X325424Y119194D01*
X327000Y118881D01*
X349000D01*
X350576Y119194D01*
X351913Y120087D01*
X355287Y123461D01*
X356460Y122975D01*
Y105420D01*
X382381D01*
Y102156D01*
X377967Y97743D01*
X377074Y96406D01*
X376761Y94830D01*
Y88860D01*
X371590D01*
Y65780D01*
X390170D01*
Y88860D01*
X384999D01*
Y93124D01*
X389413Y97537D01*
X390306Y98874D01*
X390619Y100450D01*
Y105420D01*
X416540D01*
Y130500D01*
X395985D01*
X395499Y131673D01*
X396706Y132881D01*
X428000D01*
X429576Y133194D01*
X430913Y134087D01*
X439913Y143087D01*
X440072Y143103D01*
X447087Y136087D01*
X448424Y135194D01*
X450000Y134881D01*
X472294D01*
X475501Y131673D01*
X475015Y130500D01*
X451460D01*
Y105420D01*
X477381D01*
Y101085D01*
X477694Y99509D01*
X478587Y98172D01*
X483001Y93759D01*
Y88860D01*
X477830D01*
Y65780D01*
X496410D01*
Y88860D01*
X491239D01*
Y95465D01*
X490926Y97041D01*
X490033Y98378D01*
X485619Y102791D01*
Y105420D01*
X511540D01*
X511881Y104291D01*
Y66706D01*
X496294Y51119D01*
X388670D01*
X387094Y50806D01*
X385757Y49913D01*
X363470Y27625D01*
X363030Y27807D01*
X360670Y28118D01*
X358310Y27807D01*
X356111Y26896D01*
X354223Y25447D01*
X352774Y23559D01*
X351863Y21360D01*
X351552Y19000D01*
X351863Y16640D01*
X352774Y14441D01*
X354223Y12553D01*
X356111Y11104D01*
X358310Y10193D01*
X360670Y9882D01*
X363030Y10193D01*
X365229Y11104D01*
X367117Y12553D01*
X368566Y14441D01*
X369477Y16640D01*
X369788Y19000D01*
X369477Y21360D01*
X369295Y21800D01*
X380653Y33158D01*
X380809Y33138D01*
X381881Y32589D01*
Y27079D01*
X381441Y26896D01*
X379553Y25447D01*
X378104Y23559D01*
X377193Y21360D01*
X376882Y19000D01*
X377193Y16640D01*
X378104Y14441D01*
X379553Y12553D01*
X381441Y11104D01*
X383640Y10193D01*
X386000Y9882D01*
X388360Y10193D01*
X390559Y11104D01*
X392447Y12553D01*
X393896Y14441D01*
X394807Y16640D01*
X395118Y19000D01*
X394807Y21360D01*
X393896Y23559D01*
X392447Y25447D01*
X390559Y26896D01*
X390119Y27079D01*
Y31294D01*
X396706Y37881D01*
X494124D01*
X494610Y36707D01*
X493087Y35185D01*
X492194Y33848D01*
X491881Y32272D01*
Y27079D01*
X491441Y26896D01*
X489553Y25447D01*
X488104Y23559D01*
X487193Y21360D01*
X486882Y19000D01*
X487193Y16640D01*
X488104Y14441D01*
X489553Y12553D01*
X491441Y11104D01*
X493640Y10193D01*
X496000Y9882D01*
X498360Y10193D01*
X500559Y11104D01*
X502447Y12553D01*
X503896Y14441D01*
X504807Y16640D01*
X505118Y19000D01*
X504807Y21360D01*
X503896Y23559D01*
X502447Y25447D01*
X500559Y26896D01*
X500119Y27079D01*
Y30566D01*
X516177Y46624D01*
X517351Y46138D01*
Y27079D01*
X516911Y26896D01*
X515023Y25447D01*
X513574Y23559D01*
X512663Y21360D01*
X512352Y19000D01*
X512663Y16640D01*
X513574Y14441D01*
X515023Y12553D01*
X516911Y11104D01*
X519110Y10193D01*
X521470Y9882D01*
X523830Y10193D01*
X526029Y11104D01*
X527917Y12553D01*
X529366Y14441D01*
X530277Y16640D01*
X530588Y19000D01*
X530277Y21360D01*
X529366Y23559D01*
X527917Y25447D01*
X526029Y26896D01*
X525589Y27079D01*
Y48965D01*
X532913Y56288D01*
X533806Y57625D01*
X534119Y59201D01*
Y105330D01*
X540371D01*
Y101317D01*
X539271Y99672D01*
X538842Y97510D01*
X539271Y95348D01*
X540496Y93516D01*
X542328Y92291D01*
X544490Y91861D01*
X546652Y92291D01*
X548484Y93516D01*
X549709Y95348D01*
X550139Y97510D01*
X549709Y99672D01*
X548609Y101317D01*
Y105330D01*
X555780D01*
Y121410D01*
X534119D01*
Y134830D01*
X555780D01*
Y136651D01*
X558340D01*
Y132190D01*
X584420D01*
Y136651D01*
X590351D01*
Y71340D01*
X571100Y52088D01*
X561710D01*
X561097Y52887D01*
X559209Y54336D01*
X557010Y55247D01*
X554650Y55558D01*
X552290Y55247D01*
X550091Y54336D01*
X548203Y52887D01*
X546754Y50999D01*
X545843Y48800D01*
X545532Y46440D01*
X545843Y44080D01*
X546754Y41881D01*
X548203Y39993D01*
X550091Y38544D01*
X552290Y37633D01*
X554650Y37322D01*
X557010Y37633D01*
X559209Y38544D01*
X561097Y39993D01*
X561710Y40792D01*
X573440D01*
X573440Y40791D01*
X575602Y41221D01*
X577434Y42446D01*
X599994Y65006D01*
X599994Y65006D01*
X601219Y66838D01*
X601648Y69000D01*
Y136651D01*
X649340D01*
Y132190D01*
X675420D01*
Y136321D01*
X677590D01*
Y132919D01*
X700670D01*
Y151499D01*
X677590D01*
Y147618D01*
X675420D01*
Y151270D01*
X649340D01*
Y147949D01*
X584420D01*
Y151270D01*
X558340D01*
Y147949D01*
X555780D01*
Y150910D01*
X548609D01*
Y161140D01*
X548296Y162716D01*
X547403Y164053D01*
X533115Y178341D01*
X533288Y178994D01*
X533680Y179571D01*
X580976D01*
X603460Y157087D01*
X604796Y156194D01*
X606373Y155881D01*
X734294D01*
X748881Y141294D01*
Y94706D01*
X742758Y88584D01*
X713465D01*
X711888Y88270D01*
X710552Y87377D01*
X693001Y69827D01*
D01*
X684117Y60943D01*
D01*
X682030Y61807D01*
X679670Y62118D01*
X677310Y61807D01*
X675111Y60896D01*
X673223Y59447D01*
X671774Y57559D01*
X670863Y55360D01*
X670552Y53000D01*
X670863Y50640D01*
X671774Y48441D01*
X673223Y46553D01*
X675111Y45104D01*
X677310Y44193D01*
X679670Y43882D01*
X682030Y44193D01*
X684229Y45104D01*
X686117Y46553D01*
X687566Y48441D01*
X688477Y50640D01*
X688788Y53000D01*
X688676Y53851D01*
X705825Y71000D01*
X715171Y80345D01*
X727191D01*
X727677Y79172D01*
X709447Y60943D01*
D01*
X707360Y61807D01*
X705000Y62118D01*
X702640Y61807D01*
X700441Y60896D01*
X698553Y59447D01*
X697104Y57559D01*
X696193Y55360D01*
X695882Y53000D01*
X696193Y50640D01*
X697104Y48441D01*
X698553Y46553D01*
X700441Y45104D01*
X702640Y44193D01*
X705000Y43882D01*
X707360Y44193D01*
X709559Y45104D01*
X711447Y46553D01*
X712896Y48441D01*
X713807Y50640D01*
X714118Y53000D01*
X714006Y53851D01*
X719787Y59631D01*
X720960Y59145D01*
Y43960D01*
X739040D01*
Y62040D01*
X723855D01*
X723369Y63213D01*
X729037Y68882D01*
X731155Y71000D01*
X736501Y76345D01*
X747536D01*
X749112Y76659D01*
X750448Y77552D01*
X755707Y82811D01*
X756881Y82325D01*
Y49706D01*
X747294Y40119D01*
X696670D01*
X695094Y39806D01*
X693757Y38913D01*
X681470Y26625D01*
X681030Y26807D01*
X678670Y27118D01*
X676310Y26807D01*
X674111Y25896D01*
X672223Y24447D01*
X670774Y22559D01*
X669863Y20360D01*
X669552Y18000D01*
X669863Y15640D01*
X670774Y13441D01*
X672223Y11553D01*
X674111Y10104D01*
X676310Y9193D01*
X678670Y8882D01*
X681030Y9193D01*
X683229Y10104D01*
X685117Y11553D01*
X686566Y13441D01*
X687477Y15640D01*
X687788Y18000D01*
X687477Y20360D01*
X687295Y20800D01*
D01*
X698376Y31881D01*
X710396D01*
X710882Y30707D01*
X706800Y26625D01*
X706360Y26807D01*
X704000Y27118D01*
X701640Y26807D01*
X699441Y25896D01*
X697553Y24447D01*
X696104Y22559D01*
X695193Y20360D01*
X694882Y18000D01*
X695193Y15640D01*
X696104Y13441D01*
X697553Y11553D01*
X699441Y10104D01*
X701640Y9193D01*
X704000Y8882D01*
X706360Y9193D01*
X708559Y10104D01*
X710447Y11553D01*
X711896Y13441D01*
X712807Y15640D01*
X713118Y18000D01*
X712807Y20360D01*
X712625Y20800D01*
X718690Y26865D01*
X719960Y26339D01*
Y8960D01*
X738040D01*
Y26611D01*
X738040Y27040D01*
X738962Y27881D01*
X751000D01*
X752576Y28194D01*
X753913Y29087D01*
X767913Y43087D01*
X768806Y44424D01*
X769119Y46000D01*
Y68396D01*
X770293Y68882D01*
X793907Y45267D01*
X795244Y44374D01*
X796820Y44061D01*
X806531D01*
X806714Y43621D01*
X808163Y41733D01*
X810051Y40284D01*
X812250Y39373D01*
X814610Y39062D01*
X816970Y39373D01*
X819169Y40284D01*
X821057Y41733D01*
X822506Y43621D01*
X823417Y45820D01*
X823728Y48180D01*
X823417Y50540D01*
X822506Y52739D01*
X821057Y54627D01*
X819169Y56076D01*
X816970Y56987D01*
X814610Y57298D01*
X812250Y56987D01*
X810051Y56076D01*
X808163Y54627D01*
X806714Y52739D01*
X806531Y52299D01*
X798526D01*
X775119Y75706D01*
Y88396D01*
X776292Y88882D01*
X794577Y70597D01*
X795914Y69704D01*
X797490Y69391D01*
X806531D01*
X806714Y68951D01*
X808163Y67063D01*
X810051Y65614D01*
X812250Y64703D01*
X814610Y64392D01*
X816970Y64703D01*
X819169Y65614D01*
X821057Y67063D01*
X822506Y68951D01*
X823417Y71150D01*
X823728Y73510D01*
X823417Y75870D01*
X822506Y78069D01*
X821057Y79957D01*
X819169Y81406D01*
X816970Y82317D01*
X814610Y82628D01*
X812250Y82317D01*
X810051Y81406D01*
X808163Y79957D01*
X806714Y78069D01*
X806531Y77629D01*
X799196D01*
X781119Y95706D01*
Y111119D01*
Y152657D01*
X780806Y154233D01*
X779913Y155570D01*
X754775Y180708D01*
X755261Y181881D01*
X776680D01*
X788965Y169597D01*
X794237Y164324D01*
X795574Y163431D01*
X797150Y163118D01*
X806531D01*
X806714Y162678D01*
X808163Y160789D01*
X810051Y159340D01*
X812250Y158429D01*
X814610Y158119D01*
X816970Y158429D01*
X819169Y159340D01*
X821057Y160789D01*
X822506Y162678D01*
X823417Y164877D01*
X823728Y167237D01*
X823417Y169597D01*
X822506Y171796D01*
X821057Y173684D01*
X819169Y175133D01*
X816970Y176044D01*
X814610Y176355D01*
X812250Y176044D01*
X810051Y175133D01*
X808163Y173684D01*
X806714Y171796D01*
X806531Y171356D01*
X798856D01*
X783035Y187178D01*
X782938Y187274D01*
X783424Y188447D01*
X806531D01*
X806714Y188008D01*
X808163Y186119D01*
X810051Y184670D01*
X812250Y183759D01*
X814610Y183449D01*
X816970Y183759D01*
X819169Y184670D01*
X821057Y186119D01*
X822506Y188008D01*
X823417Y190207D01*
X823728Y192567D01*
X823417Y194927D01*
X822506Y197126D01*
X821057Y199014D01*
X819169Y200463D01*
X816970Y201374D01*
X814610Y201685D01*
X812250Y201374D01*
X810051Y200463D01*
X808163Y199014D01*
X806714Y197126D01*
X806531Y196686D01*
X730241D01*
X729755Y197859D01*
X773913Y242016D01*
X774806Y243353D01*
X775119Y244929D01*
Y277223D01*
X780071Y282174D01*
X806531D01*
X806714Y281734D01*
X808163Y279846D01*
X810051Y278397D01*
X812250Y277486D01*
X814610Y277175D01*
X816970Y277486D01*
X819169Y278397D01*
X821057Y279846D01*
X822506Y281734D01*
X823417Y283933D01*
X823728Y286293D01*
X823417Y288653D01*
X822506Y290852D01*
X821057Y292741D01*
X819169Y294190D01*
X816970Y295101D01*
X814610Y295411D01*
X812250Y295101D01*
X810051Y294190D01*
X808163Y292741D01*
X806714Y290852D01*
X806531Y290412D01*
X783424D01*
X782938Y291586D01*
X783035Y291682D01*
D01*
X798856Y307504D01*
X806531D01*
X806714Y307064D01*
X808163Y305176D01*
X810051Y303727D01*
X812250Y302816D01*
X814610Y302505D01*
X816970Y302816D01*
X819169Y303727D01*
X821057Y305176D01*
X822506Y307064D01*
X823417Y309263D01*
X823728Y311623D01*
X823417Y313983D01*
X822506Y316182D01*
X821057Y318071D01*
X819169Y319520D01*
X816970Y320431D01*
X814610Y320741D01*
X812250Y320431D01*
X810051Y319520D01*
X808163Y318071D01*
X806714Y316182D01*
X806531Y315742D01*
X797150D01*
X795574Y315429D01*
X794237Y314536D01*
X783173Y303472D01*
X764087Y284386D01*
X763194Y283050D01*
X762881Y281473D01*
Y249706D01*
X717860Y204686D01*
X625211D01*
X600610Y229287D01*
X601096Y230460D01*
X601480D01*
Y240730D01*
X593460D01*
Y232809D01*
X584540D01*
Y247715D01*
X593221Y256395D01*
X595162Y256782D01*
X596994Y258006D01*
X598219Y259838D01*
X598648Y262000D01*
X598219Y264162D01*
X596994Y265994D01*
X595162Y267219D01*
X593000Y267649D01*
X590838Y267219D01*
X589006Y265994D01*
X587781Y264162D01*
X587395Y262221D01*
X578715Y253540D01*
X571025D01*
X570539Y254713D01*
X613237Y297412D01*
X614396Y296775D01*
X614781Y294838D01*
X616006Y293006D01*
X617838Y291781D01*
X620000Y291352D01*
X622162Y291781D01*
X623807Y292881D01*
X653294D01*
X668881Y277294D01*
Y274792D01*
X667790Y274360D01*
Y274360D01*
X657520D01*
Y267820D01*
X654980D01*
Y274360D01*
X644710D01*
Y271832D01*
X643674Y271626D01*
X642337Y270733D01*
X639753Y268149D01*
X638580Y268635D01*
Y270540D01*
X631159D01*
Y276403D01*
X632259Y278048D01*
X632436Y278940D01*
X621644D01*
X621821Y278048D01*
X622921Y276403D01*
Y270540D01*
X615500D01*
Y265369D01*
X612250D01*
X610674Y265056D01*
X609337Y264163D01*
X599837Y254663D01*
X599087Y253540D01*
X593460D01*
Y243270D01*
X602750D01*
X612040D01*
Y253540D01*
X612025D01*
X611539Y254713D01*
X613956Y257131D01*
X615500D01*
Y251960D01*
X625770D01*
Y261250D01*
X628310D01*
Y251960D01*
X638580D01*
Y257131D01*
X638680D01*
X640256Y257444D01*
X641593Y258337D01*
X643440Y260185D01*
X644710Y259659D01*
Y248580D01*
Y237646D01*
X644263Y237308D01*
X643440Y237038D01*
X642351Y237766D01*
X640775Y238079D01*
X638580D01*
Y243040D01*
X615500D01*
Y224460D01*
X622881D01*
Y220807D01*
X621781Y219162D01*
X621352Y217000D01*
X621781Y214838D01*
X623006Y213006D01*
X624838Y211781D01*
X627000Y211352D01*
X629162Y211781D01*
X630994Y213006D01*
X632219Y214838D01*
X632649Y217000D01*
X632219Y219162D01*
X631119Y220807D01*
Y224460D01*
X638580D01*
Y228534D01*
X639850Y229060D01*
X642102Y226807D01*
X643439Y225914D01*
X644710Y225662D01*
Y223180D01*
X667790D01*
Y238301D01*
X670420D01*
X671996Y238614D01*
X673333Y239507D01*
X681913Y248087D01*
X682806Y249424D01*
X683119Y251000D01*
Y289000D01*
X682806Y290576D01*
X681913Y291913D01*
X677605Y296221D01*
X677219Y298162D01*
X676250Y299611D01*
X676779Y300881D01*
X758071D01*
X759647Y301194D01*
X760984Y302087D01*
X774913Y316016D01*
X775806Y317353D01*
X776119Y318929D01*
Y399280D01*
X780070Y403231D01*
X804025D01*
X804730Y401530D01*
X806580Y399119D01*
X808990Y397270D01*
X811797Y396107D01*
X814810Y395710D01*
X817822Y396107D01*
X820630Y397270D01*
X823040Y399119D01*
X824890Y401530D01*
X826053Y404337D01*
X826450Y407350D01*
X826053Y410363D01*
X824890Y413170D01*
X823040Y415580D01*
X820630Y417430D01*
X817822Y418593D01*
X814810Y418989D01*
X811797Y418593D01*
X808990Y417430D01*
X806580Y415580D01*
X804730Y413170D01*
X804025Y411469D01*
X783954D01*
X783468Y412642D01*
X797706Y426881D01*
X804585D01*
X804730Y426530D01*
X806580Y424119D01*
X808990Y422270D01*
X811797Y421107D01*
X814810Y420710D01*
X817822Y421107D01*
X820630Y422270D01*
X823040Y424119D01*
X824890Y426530D01*
X826053Y429337D01*
X826450Y432350D01*
X826053Y435363D01*
X824890Y438170D01*
X823040Y440580D01*
X820630Y442430D01*
X817822Y443593D01*
X814810Y443989D01*
X811797Y443593D01*
X808990Y442430D01*
X806580Y440580D01*
X804730Y438170D01*
X803567Y435363D01*
X803535Y435119D01*
X796000D01*
X794424Y434806D01*
X793087Y433913D01*
X783173Y423999D01*
X765087Y405913D01*
X764194Y404576D01*
X763881Y403000D01*
Y323706D01*
X754294Y314119D01*
X640456D01*
X640071Y315389D01*
X640994Y316006D01*
X642219Y317838D01*
X642648Y320000D01*
X642219Y322162D01*
X640994Y323994D01*
X639162Y325219D01*
X637000Y325648D01*
X634838Y325219D01*
X633193Y324119D01*
X617000D01*
X615424Y323806D01*
X614087Y322913D01*
X588816Y297641D01*
X587438Y298059D01*
X587219Y299162D01*
X585994Y300994D01*
X584162Y302218D01*
X582000Y302649D01*
X579838Y302218D01*
X578006Y300994D01*
X576781Y299162D01*
X576352Y297000D01*
X576781Y294838D01*
X577675Y293501D01*
X553273Y269098D01*
X551895Y269516D01*
X551746Y270266D01*
X551128Y271190D01*
X551746Y272114D01*
X552059Y273690D01*
X551746Y275266D01*
X551128Y276190D01*
X551746Y277114D01*
X552059Y278690D01*
X551746Y280266D01*
X551128Y281190D01*
X551746Y282114D01*
X552059Y283690D01*
X551746Y285266D01*
X551128Y286190D01*
X551746Y287114D01*
X552059Y288690D01*
X551746Y290266D01*
X551128Y291190D01*
X551746Y292114D01*
X552059Y293690D01*
X551746Y295266D01*
X551128Y296190D01*
X551746Y297114D01*
X552059Y298690D01*
X551746Y300266D01*
X551128Y301190D01*
X551746Y302114D01*
X552059Y303690D01*
X551746Y305266D01*
X550853Y306603D01*
X549516Y307496D01*
X547940Y307809D01*
X533440D01*
X531864Y307496D01*
X530527Y306603D01*
X529634Y305266D01*
X529321Y303690D01*
X529634Y302114D01*
X530252Y301190D01*
X529634Y300266D01*
X529321Y298690D01*
X529634Y297114D01*
X530252Y296190D01*
X529634Y295266D01*
X529321Y293690D01*
X529634Y292114D01*
X530252Y291190D01*
X529634Y290266D01*
X529321Y288690D01*
X529634Y287114D01*
X530252Y286190D01*
X529634Y285266D01*
X529321Y283690D01*
X529634Y282114D01*
X530252Y281190D01*
X529634Y280266D01*
X529321Y278690D01*
X529634Y277114D01*
X530252Y276190D01*
X529634Y275266D01*
X529321Y273690D01*
X529634Y272114D01*
X530252Y271190D01*
X529634Y270266D01*
X529321Y268690D01*
X529634Y267114D01*
X530252Y266190D01*
X529634Y265266D01*
X529321Y263690D01*
X529634Y262114D01*
X530252Y261190D01*
X529634Y260266D01*
X529321Y258690D01*
X529634Y257114D01*
X530252Y256190D01*
X529634Y255266D01*
X529321Y253690D01*
X529634Y252114D01*
X530252Y251190D01*
X529634Y250266D01*
X529321Y248690D01*
X529634Y247114D01*
X530252Y246190D01*
X529634Y245266D01*
X529321Y243690D01*
X528598Y242809D01*
X525497D01*
X523852Y243909D01*
X522960Y244086D01*
Y238690D01*
Y233294D01*
X523852Y233471D01*
X525497Y234571D01*
X528598D01*
X529321Y233690D01*
X529634Y232114D01*
X530252Y231190D01*
X529634Y230266D01*
X529321Y228690D01*
X529634Y227114D01*
X530252Y226190D01*
X529634Y225266D01*
X529321Y223690D01*
X529634Y222114D01*
X530252Y221190D01*
X529634Y220266D01*
X529321Y218690D01*
X529634Y217114D01*
X530252Y216190D01*
X529634Y215266D01*
X529321Y213690D01*
X529634Y212114D01*
X530252Y211190D01*
X529634Y210266D01*
X529321Y208690D01*
X529634Y207114D01*
X530252Y206190D01*
X529634Y205266D01*
X529321Y203690D01*
X529634Y202114D01*
X530252Y201190D01*
X529634Y200266D01*
X529321Y198690D01*
X529634Y197114D01*
X530252Y196190D01*
X529634Y195266D01*
X529321Y193690D01*
X529634Y192114D01*
X530252Y191190D01*
X529634Y190266D01*
X529321Y188690D01*
X529634Y187114D01*
X530252Y186190D01*
X529634Y185266D01*
X529361Y183891D01*
X528730Y183534D01*
X528091Y183365D01*
X512543Y198913D01*
X511206Y199806D01*
X509630Y200119D01*
X437000D01*
X435424Y199806D01*
X434087Y198913D01*
X419027Y183853D01*
X418134Y182516D01*
X417821Y180940D01*
Y177032D01*
X416940Y176309D01*
X415364Y175996D01*
X414440Y175378D01*
X413516Y175996D01*
X411940Y176309D01*
X410364Y175996D01*
X409440Y175378D01*
X408516Y175996D01*
X406940Y176309D01*
X405364Y175996D01*
X404522Y175433D01*
X401043Y178913D01*
X399706Y179806D01*
X398130Y180119D01*
X394440D01*
X393761Y181389D01*
X394246Y182114D01*
X394559Y183690D01*
X394246Y185266D01*
X393628Y186190D01*
X394246Y187114D01*
X394559Y188690D01*
X394246Y190266D01*
X393628Y191190D01*
X394246Y192114D01*
X394559Y193690D01*
X394246Y195266D01*
X393628Y196190D01*
X394246Y197114D01*
X394559Y198690D01*
X394246Y200266D01*
X393628Y201190D01*
X394246Y202114D01*
X394559Y203690D01*
X394246Y205266D01*
X393628Y206190D01*
X394246Y207114D01*
X394559Y208690D01*
X394246Y210266D01*
X393628Y211190D01*
X394246Y212114D01*
X394559Y213690D01*
X394246Y215266D01*
X393628Y216190D01*
X394246Y217114D01*
X394559Y218690D01*
X394246Y220266D01*
X393628Y221190D01*
X394246Y222114D01*
X394559Y223690D01*
X394246Y225266D01*
X393628Y226190D01*
X394246Y227114D01*
X394559Y228690D01*
X394246Y230266D01*
X393628Y231190D01*
X394246Y232114D01*
X394559Y233690D01*
X394246Y235266D01*
X393628Y236190D01*
X394246Y237114D01*
X394559Y238690D01*
X394246Y240266D01*
X393628Y241190D01*
X394246Y242114D01*
X394559Y243690D01*
X394246Y245266D01*
X393628Y246190D01*
X394246Y247114D01*
X394559Y248690D01*
X394246Y250266D01*
X393628Y251190D01*
X394246Y252114D01*
X394306Y252420D01*
X392130D01*
X392016Y252496D01*
X390440Y252810D01*
X383190D01*
Y254570D01*
X390440D01*
X392016Y254884D01*
X392130Y254960D01*
X394306D01*
X394246Y255266D01*
X393628Y256190D01*
X394246Y257114D01*
X394559Y258690D01*
X394246Y260266D01*
X393628Y261190D01*
X394246Y262114D01*
X394559Y263690D01*
X394246Y265266D01*
X393628Y266190D01*
X394246Y267114D01*
X394559Y268690D01*
X394246Y270266D01*
X393628Y271190D01*
X394246Y272114D01*
X394559Y273690D01*
X394246Y275266D01*
X393628Y276190D01*
X394246Y277114D01*
X394559Y278690D01*
X394246Y280266D01*
X393628Y281190D01*
X394246Y282114D01*
X394559Y283690D01*
X394246Y285266D01*
X393628Y286190D01*
X394246Y287114D01*
X394559Y288690D01*
X394246Y290266D01*
X393628Y291190D01*
X394246Y292114D01*
X394559Y293690D01*
X394246Y295266D01*
X393628Y296190D01*
X394246Y297114D01*
X394559Y298690D01*
X394246Y300266D01*
X393628Y301190D01*
X394246Y302114D01*
X394559Y303690D01*
X394246Y305266D01*
X393353Y306603D01*
X392016Y307496D01*
X390440Y307809D01*
X375940D01*
X374364Y307496D01*
X373027Y306603D01*
X372134Y305266D01*
X371821Y303690D01*
X371098Y302809D01*
X368016D01*
X365119Y305706D01*
Y339294D01*
X374706Y348881D01*
X390421D01*
X391006Y348006D01*
X392838Y346782D01*
X395000Y346352D01*
X397162Y346782D01*
X398994Y348006D01*
X400219Y349838D01*
X400649Y352000D01*
X400219Y354162D01*
X399324Y355500D01*
X400219Y356838D01*
X400649Y359000D01*
X400219Y361162D01*
X398994Y362994D01*
X397162Y364219D01*
X395000Y364649D01*
X392838Y364219D01*
X391006Y362994D01*
X390421Y362119D01*
X370929D01*
X369353Y361806D01*
X368016Y360913D01*
X353087Y345984D01*
X352194Y344647D01*
X351881Y343071D01*
Y307604D01*
X350708Y307118D01*
X323913Y333913D01*
X322576Y334806D01*
X321000Y335119D01*
X283807D01*
X282162Y336219D01*
X280000Y336648D01*
X277838Y336219D01*
X276006Y334994D01*
X274781Y333162D01*
X274352Y331000D01*
X274781Y328838D01*
X276006Y327006D01*
X277838Y325781D01*
X280000Y325351D01*
X282162Y325781D01*
X283807Y326881D01*
X319294D01*
X352966Y293208D01*
X352162Y292218D01*
X350000Y292649D01*
X347838Y292218D01*
X346006Y290994D01*
X344781Y289162D01*
X344352Y287000D01*
X344781Y284838D01*
X346006Y283006D01*
X347838Y281781D01*
X349779Y281395D01*
X351461Y279713D01*
X350975Y278540D01*
X349460D01*
Y257809D01*
X344016D01*
X340540Y261285D01*
Y265730D01*
X332520D01*
Y255460D01*
X334715D01*
X336192Y253983D01*
X335706Y252809D01*
X298016D01*
X210913Y339913D01*
X209576Y340806D01*
X208000Y341119D01*
X191706D01*
X166666Y366160D01*
X167192Y367430D01*
X181578D01*
X182569Y367627D01*
X183409Y368188D01*
X191838Y376617D01*
X192399Y377458D01*
X192596Y378448D01*
Y402332D01*
X193710Y402710D01*
X193866Y402710D01*
X203167D01*
X204414Y401463D01*
X203927Y400290D01*
X193960D01*
Y377710D01*
X210040D01*
Y380475D01*
X211213Y380961D01*
X211707Y380467D01*
X213044Y379574D01*
X214530Y379279D01*
Y378340D01*
X218229D01*
Y369507D01*
X218071Y369271D01*
X217719Y367500D01*
X218071Y365729D01*
X219074Y364227D01*
X220576Y363223D01*
X222348Y362871D01*
X224119Y363223D01*
X225621Y364227D01*
X226624Y365729D01*
X226977Y367500D01*
X226624Y369271D01*
X226467Y369507D01*
Y378340D01*
X228881D01*
Y369007D01*
X228723Y368771D01*
X228371Y367000D01*
X228723Y365229D01*
X229727Y363727D01*
X231229Y362723D01*
X233000Y362371D01*
X234771Y362723D01*
X236273Y363727D01*
X237277Y365229D01*
X237629Y367000D01*
X237277Y368771D01*
X237119Y369007D01*
Y394123D01*
X236806Y395699D01*
X235913Y397035D01*
X234155Y398793D01*
X232819Y399686D01*
X231610Y399926D01*
Y400920D01*
X216607D01*
X215457Y402070D01*
X215984Y403340D01*
X231610D01*
X231610Y412414D01*
Y412428D01*
Y412428D01*
X231610Y412719D01*
X232880Y413245D01*
X238530Y407595D01*
Y403340D01*
X245800D01*
Y408380D01*
Y413420D01*
X244355D01*
X243109Y414667D01*
X243595Y415840D01*
X247672D01*
X248070Y415761D01*
X252711D01*
X253717Y415561D01*
X257063D01*
X257750Y414997D01*
Y409640D01*
X257750D01*
X257750Y408590D01*
X257750D01*
Y399999D01*
X255610D01*
Y400920D01*
X238530D01*
Y390840D01*
X255610D01*
Y391761D01*
X257750D01*
Y387499D01*
X255610D01*
Y388420D01*
X238530D01*
Y378340D01*
X241259D01*
X241639Y377630D01*
X241819Y377070D01*
X241422Y375070D01*
X241851Y372908D01*
X243076Y371076D01*
X244908Y369851D01*
X247070Y369422D01*
X249232Y369851D01*
X251064Y371076D01*
X252288Y372908D01*
X252719Y375070D01*
X252321Y377070D01*
X252501Y377630D01*
X252881Y378340D01*
X255610D01*
Y379261D01*
X257124D01*
X257750Y378635D01*
Y361380D01*
X262921D01*
Y358960D01*
X263234Y357384D01*
X264127Y356047D01*
X275087Y345087D01*
X276424Y344194D01*
X278000Y343881D01*
X324000D01*
X325576Y344194D01*
X326913Y345087D01*
X337913Y356087D01*
X338806Y357424D01*
X339111Y358960D01*
X345540D01*
Y371381D01*
X366693D01*
X368338Y370281D01*
X370500Y369851D01*
X372662Y370281D01*
X374494Y371506D01*
X375719Y373338D01*
X376148Y375500D01*
X375719Y377662D01*
X374494Y379494D01*
X372662Y380719D01*
X370500Y381148D01*
X368338Y380719D01*
X366693Y379619D01*
X345540D01*
Y392040D01*
X329138D01*
X328815Y393268D01*
X340274Y399745D01*
X340288Y399757D01*
X340305Y399763D01*
X344071Y401960D01*
X345540D01*
Y402817D01*
X352305Y406763D01*
X352554Y406984D01*
X352831Y407169D01*
X352929Y407316D01*
X353062Y407433D01*
X353208Y407732D01*
X353393Y408009D01*
X353427Y408182D01*
X353504Y408341D01*
X353525Y408673D01*
X353590Y409000D01*
Y410751D01*
X354763Y411237D01*
X389000Y377000D01*
X407175D01*
X412821Y371354D01*
Y343695D01*
X411551Y343134D01*
X410636Y343746D01*
X409060Y344059D01*
X405747D01*
X404102Y345159D01*
X401940Y345588D01*
X399778Y345159D01*
X397946Y343934D01*
X396721Y342102D01*
X396292Y339940D01*
X396721Y337778D01*
X397821Y336133D01*
Y329690D01*
Y322440D01*
Y315190D01*
X398134Y313614D01*
X399027Y312277D01*
X400364Y311384D01*
X401940Y311071D01*
X402821Y310348D01*
Y306867D01*
X401721Y305222D01*
X401544Y304330D01*
X412336D01*
X412159Y305222D01*
X411059Y306867D01*
Y310348D01*
X411940Y311071D01*
X413516Y311384D01*
X414440Y312002D01*
X415364Y311384D01*
X416940Y311071D01*
X418516Y311384D01*
X419440Y312002D01*
X420364Y311384D01*
X421940Y311071D01*
X423516Y311384D01*
X424440Y312002D01*
X425364Y311384D01*
X426940Y311071D01*
X428516Y311384D01*
X429440Y312002D01*
X430364Y311384D01*
X431940Y311071D01*
X433516Y311384D01*
X434440Y312002D01*
X435364Y311384D01*
X436940Y311071D01*
X438516Y311384D01*
X439440Y312002D01*
X440364Y311384D01*
X441940Y311071D01*
X443516Y311384D01*
X444440Y312002D01*
X445364Y311384D01*
X446940Y311071D01*
X448516Y311384D01*
X449440Y312002D01*
X450364Y311384D01*
X451940Y311071D01*
X453516Y311384D01*
X454440Y312002D01*
X455364Y311384D01*
X456940Y311071D01*
X458516Y311384D01*
X459440Y312002D01*
X460364Y311384D01*
X461940Y311071D01*
X463516Y311384D01*
X464440Y312002D01*
X465364Y311384D01*
X466940Y311071D01*
X468516Y311384D01*
X469440Y312002D01*
X470364Y311384D01*
X471940Y311071D01*
X473516Y311384D01*
X474440Y312002D01*
X475364Y311384D01*
X476940Y311071D01*
X478516Y311384D01*
X479440Y312002D01*
X480364Y311384D01*
X481940Y311071D01*
X483516Y311384D01*
X484440Y312002D01*
X485364Y311384D01*
X486940Y311071D01*
X488516Y311384D01*
X489440Y312002D01*
X490364Y311384D01*
X491940Y311071D01*
X493516Y311384D01*
X494440Y312002D01*
X495364Y311384D01*
X495670Y311324D01*
Y313500D01*
X495746Y313613D01*
X496060Y315190D01*
Y322440D01*
X497820D01*
Y315190D01*
X498134Y313613D01*
X498210Y313500D01*
Y311324D01*
X498516Y311384D01*
X499440Y312002D01*
X500364Y311384D01*
X501940Y311071D01*
X503516Y311384D01*
X504440Y312002D01*
X505364Y311384D01*
X506940Y311071D01*
X508516Y311384D01*
X509440Y312002D01*
X510364Y311384D01*
X511940Y311071D01*
X513516Y311384D01*
X514440Y312002D01*
X515364Y311384D01*
X516940Y311071D01*
X518516Y311384D01*
X519440Y312002D01*
X520364Y311384D01*
X521940Y311071D01*
X523516Y311384D01*
X524853Y312277D01*
X525746Y313614D01*
X526059Y315190D01*
Y329690D01*
X525746Y331266D01*
X524853Y332603D01*
X523516Y333496D01*
X521940Y333809D01*
X520364Y333496D01*
X519440Y332878D01*
X518516Y333496D01*
X516940Y333809D01*
X515364Y333496D01*
X514440Y332878D01*
X513516Y333496D01*
X511940Y333809D01*
X510364Y333496D01*
X509440Y332878D01*
X508516Y333496D01*
X507074Y333783D01*
X506782Y334260D01*
X506515Y335019D01*
X510325Y338830D01*
X523080D01*
Y346251D01*
X528943D01*
X530588Y345151D01*
X532750Y344721D01*
X534911Y345151D01*
X536744Y346376D01*
X537968Y348208D01*
X538398Y350370D01*
X537968Y352532D01*
X536744Y354364D01*
X534911Y355588D01*
X532750Y356018D01*
X530588Y355588D01*
X528943Y354489D01*
X523080D01*
Y361910D01*
X504500D01*
Y344655D01*
X500194Y340349D01*
X499853Y340383D01*
X495580Y344655D01*
Y349100D01*
X487560D01*
Y338830D01*
X489755D01*
X492821Y335764D01*
Y334532D01*
X491940Y333809D01*
X490364Y333496D01*
X489440Y332878D01*
X488516Y333496D01*
X486940Y333809D01*
X485364Y333496D01*
X484440Y332878D01*
X483516Y333496D01*
X481940Y333809D01*
X480364Y333496D01*
X479440Y332878D01*
X478516Y333496D01*
X476940Y333809D01*
X475364Y333496D01*
X474440Y332878D01*
X473516Y333496D01*
X471940Y333809D01*
X470364Y333496D01*
X469440Y332878D01*
X468516Y333496D01*
X466940Y333809D01*
X465364Y333496D01*
X464440Y332878D01*
X463516Y333496D01*
X461940Y333809D01*
X460364Y333496D01*
X459440Y332878D01*
X458516Y333496D01*
X456940Y333809D01*
X455364Y333496D01*
X454440Y332878D01*
X453516Y333496D01*
X451940Y333809D01*
X450364Y333496D01*
X449440Y332878D01*
X448516Y333496D01*
X446940Y333809D01*
X445364Y333496D01*
X444440Y332878D01*
X443516Y333496D01*
X441940Y333809D01*
X441059Y334532D01*
Y343234D01*
X474825Y377000D01*
X536000D01*
X633592Y474592D01*
X634862Y474066D01*
Y466752D01*
X656960D01*
Y481484D01*
X656960D01*
Y482080D01*
X656960D01*
Y498160D01*
X635440D01*
X634380Y498160D01*
X634170Y499343D01*
Y510397D01*
X634380Y511580D01*
X656960D01*
Y515501D01*
X659980D01*
Y511580D01*
X667181D01*
X667464Y510154D01*
X668357Y508817D01*
X677841Y499333D01*
X677355Y498160D01*
X659980D01*
Y482080D01*
X659980D01*
Y481484D01*
X659980D01*
Y466752D01*
X682078D01*
Y481484D01*
X682560Y482080D01*
X682560D01*
Y492955D01*
X683733Y493441D01*
X688211Y488964D01*
Y426040D01*
X683290D01*
Y407960D01*
X701370D01*
Y426040D01*
X696449D01*
Y490670D01*
X696136Y492246D01*
X695243Y493583D01*
X678419Y510407D01*
X678905Y511580D01*
X682560D01*
Y527660D01*
X659980D01*
Y523739D01*
X656960D01*
Y527660D01*
X637319D01*
X636833Y528833D01*
X652000Y544000D01*
X690632D01*
X691020Y543156D01*
D02*
G37*
G36*
X190007Y437551D02*
Y378448D01*
X181578Y370020D01*
X165422D01*
X157020Y378422D01*
Y438578D01*
X161422Y442980D01*
X184578D01*
X190007Y437551D01*
D02*
G37*
G36*
X301000Y486000D02*
X341000D01*
X351000Y476000D01*
X351000Y409000D01*
X339000Y402000D01*
X316000Y389000D01*
Y363000D01*
X310000Y357000D01*
X287000Y357000D01*
X281000Y363000D01*
X280212Y430788D01*
X255000Y456000D01*
X255000Y497000D01*
X260000Y502000D01*
X285000Y502000D01*
X301000Y486000D01*
D02*
G37*
G36*
X277648Y428519D02*
X278410Y362970D01*
X278512Y362490D01*
X278607Y362009D01*
X278616Y361996D01*
X278619Y361981D01*
X278896Y361576D01*
X279169Y361169D01*
X285169Y355169D01*
X286009Y354607D01*
X287000Y354410D01*
X310000Y354410D01*
X310991Y354607D01*
X311831Y355169D01*
X317831Y361169D01*
X318393Y362009D01*
X318590Y363000D01*
Y387489D01*
X323363Y390187D01*
X324460Y389547D01*
Y358960D01*
X327475D01*
X327961Y357787D01*
X322294Y352119D01*
X279706D01*
X271715Y360110D01*
X272241Y361380D01*
X276330D01*
Y384240D01*
X276330Y384460D01*
X276330D01*
X276330Y385510D01*
X276330D01*
Y408590D01*
X276330D01*
X276330Y409640D01*
X276330D01*
Y427868D01*
X277600Y428551D01*
X277648Y428519D01*
D02*
G37*
G36*
X462001Y375827D02*
X437233Y351058D01*
X436059Y351544D01*
Y363234D01*
X449825Y377000D01*
X461515D01*
X462001Y375827D01*
D02*
G37*
G36*
X455182Y190761D02*
X454781Y190162D01*
X454352Y188000D01*
X454781Y185838D01*
X455676Y184500D01*
X454781Y183162D01*
X454352Y181000D01*
X454781Y178838D01*
X455763Y177370D01*
X455417Y176080D01*
X455400Y176053D01*
X454296Y175475D01*
X453516Y175996D01*
X451940Y176309D01*
X450364Y175996D01*
X449440Y175378D01*
X448516Y175996D01*
X446940Y176309D01*
X445364Y175996D01*
X444440Y175378D01*
X443516Y175996D01*
X441940Y176309D01*
X440364Y175996D01*
X439440Y175378D01*
X438516Y175996D01*
X436940Y176309D01*
X435364Y175996D01*
X434440Y175378D01*
X433516Y175996D01*
X433210Y176056D01*
Y173880D01*
X433134Y173766D01*
X432820Y172190D01*
Y164940D01*
X431060D01*
Y172190D01*
X430746Y173766D01*
X430670Y173880D01*
Y176056D01*
X430364Y175996D01*
X429440Y175378D01*
X428516Y175996D01*
X426940Y176309D01*
X426059Y177032D01*
Y179234D01*
X438706Y191881D01*
X454583D01*
X455182Y190761D01*
D02*
G37*
G36*
X522265Y177539D02*
X522096Y176900D01*
X521739Y176269D01*
X520364Y175996D01*
X519440Y175378D01*
X518516Y175996D01*
X516940Y176309D01*
X515364Y175996D01*
X514440Y175378D01*
X513516Y175996D01*
X511940Y176309D01*
X510364Y175996D01*
X509440Y175378D01*
X508516Y175996D01*
X506940Y176309D01*
X505364Y175996D01*
X504440Y175378D01*
X503516Y175996D01*
X501940Y176309D01*
X500364Y175996D01*
X499440Y175378D01*
X498516Y175996D01*
X496940Y176309D01*
X496059Y177032D01*
Y182959D01*
X495746Y184536D01*
X494853Y185872D01*
X494554Y186170D01*
X494168Y188111D01*
X492944Y189944D01*
X491946Y190611D01*
X492331Y191881D01*
X507924D01*
X522265Y177539D01*
D02*
G37*
G36*
X475364Y153884D02*
X476940Y153571D01*
X478516Y153884D01*
X479440Y154502D01*
X480364Y153884D01*
X481940Y153571D01*
X482821Y152848D01*
Y152060D01*
X483134Y150484D01*
X484027Y149147D01*
X499087Y134087D01*
X500424Y133194D01*
X502000Y132881D01*
X511294D01*
X511881Y132294D01*
Y131629D01*
X511540Y130500D01*
X485619D01*
Y131500D01*
X485306Y133076D01*
X484413Y134413D01*
X476913Y141913D01*
X475576Y142806D01*
X474000Y143119D01*
X451706D01*
X446059Y148766D01*
Y152848D01*
X446940Y153571D01*
X448516Y153884D01*
X449440Y154502D01*
X450364Y153884D01*
X451940Y153571D01*
X453516Y153884D01*
X454440Y154502D01*
X455364Y153884D01*
X456940Y153571D01*
X458516Y153884D01*
X459440Y154502D01*
X460364Y153884D01*
X461940Y153571D01*
X463516Y153884D01*
X464440Y154502D01*
X465364Y153884D01*
X466940Y153571D01*
X468516Y153884D01*
X469440Y154502D01*
X470364Y153884D01*
X471940Y153571D01*
X473516Y153884D01*
X474440Y154502D01*
X475364Y153884D01*
D02*
G37*
G36*
X540371Y159434D02*
Y150910D01*
X533200D01*
Y146421D01*
X531930Y145895D01*
X525913Y151913D01*
X524576Y152806D01*
X524277Y152865D01*
X524009Y154213D01*
X524853Y154777D01*
X525746Y156114D01*
X526059Y157690D01*
Y171950D01*
X526636Y172342D01*
X527289Y172515D01*
X540371Y159434D01*
D02*
G37*
G36*
X390882Y138708D02*
X383587Y131413D01*
X382977Y130500D01*
X363985D01*
X363499Y131673D01*
X371706Y139881D01*
X390396D01*
X390882Y138708D01*
D02*
G37*
%LPC*%
G36*
X173180Y518818D02*
Y509120D01*
X182878D01*
X182666Y510732D01*
X181553Y513418D01*
X179784Y515724D01*
X177478Y517493D01*
X174792Y518606D01*
X173180Y518818D01*
D02*
G37*
G36*
X170640D02*
X169028Y518606D01*
X166342Y517493D01*
X164036Y515724D01*
X162267Y513418D01*
X161154Y510732D01*
X160942Y509120D01*
X170640D01*
Y518818D01*
D02*
G37*
G36*
X182878Y506580D02*
X173180D01*
Y496882D01*
X174792Y497094D01*
X177478Y498207D01*
X179784Y499976D01*
X181553Y502282D01*
X182666Y504968D01*
X182878Y506580D01*
D02*
G37*
G36*
X170640D02*
X160942D01*
X161154Y504968D01*
X162267Y502282D01*
X164036Y499976D01*
X166342Y498207D01*
X169028Y497094D01*
X170640Y496882D01*
Y506580D01*
D02*
G37*
G36*
X532110Y480151D02*
X531119Y479954D01*
X530279Y479392D01*
X506133Y455247D01*
X494036Y455247D01*
X493045Y455050D01*
X492205Y454488D01*
X485382Y447666D01*
X485382Y447666D01*
X484821Y446826D01*
X484624Y445835D01*
Y425786D01*
X484821Y424795D01*
X485382Y423955D01*
X491169Y418169D01*
X492009Y417607D01*
X493000Y417410D01*
X562064Y417410D01*
X563055Y417607D01*
X563895Y418169D01*
X576198Y430471D01*
X576759Y431312D01*
X576956Y432303D01*
X576956Y468685D01*
X576759Y469676D01*
X576198Y470516D01*
X567321Y479392D01*
X566481Y479954D01*
X565490Y480151D01*
X532110Y480151D01*
D02*
G37*
%LPD*%
G36*
X565490Y477561D02*
X574367Y468685D01*
X574367Y432303D01*
X562064Y420000D01*
X493000Y420000D01*
X487214Y425786D01*
Y445835D01*
X494036Y452657D01*
X507206Y452657D01*
X532110Y477561D01*
X565490Y477561D01*
D02*
G37*
%LPC*%
G36*
X826350Y493890D02*
X803270D01*
Y486469D01*
X798157D01*
X796512Y487569D01*
X794350Y487999D01*
X792188Y487569D01*
X790356Y486344D01*
X789131Y484512D01*
X788701Y482350D01*
X789131Y480188D01*
X790356Y478356D01*
X792188Y477131D01*
X794350Y476701D01*
X796512Y477131D01*
X798157Y478231D01*
X803270D01*
Y470810D01*
X826350D01*
Y493890D01*
D02*
G37*
G36*
X121270Y491472D02*
Y481270D01*
X131472D01*
X131243Y483013D01*
X130080Y485820D01*
X128230Y488230D01*
X125820Y490080D01*
X123013Y491243D01*
X121270Y491472D01*
D02*
G37*
G36*
X118730D02*
X116987Y491243D01*
X114180Y490080D01*
X111770Y488230D01*
X109920Y485820D01*
X108757Y483013D01*
X108528Y481270D01*
X118730D01*
Y491472D01*
D02*
G37*
G36*
X31540Y491540D02*
X8460D01*
Y468460D01*
X31540D01*
Y491540D01*
D02*
G37*
G36*
X814810Y468989D02*
X811797Y468593D01*
X808990Y467430D01*
X806580Y465580D01*
X804730Y463170D01*
X803567Y460363D01*
X803170Y457350D01*
X803567Y454337D01*
X804730Y451530D01*
X806580Y449119D01*
X808990Y447270D01*
X811797Y446107D01*
X814810Y445710D01*
X817822Y446107D01*
X820630Y447270D01*
X823040Y449119D01*
X824890Y451530D01*
X826053Y454337D01*
X826450Y457350D01*
X826053Y460363D01*
X824890Y463170D01*
X823040Y465580D01*
X820630Y467430D01*
X817822Y468593D01*
X814810Y468989D01*
D02*
G37*
G36*
X68270Y448396D02*
Y444270D01*
X72396D01*
X72219Y445162D01*
X70994Y446994D01*
X69162Y448219D01*
X68270Y448396D01*
D02*
G37*
G36*
X65730D02*
X64838Y448219D01*
X63006Y446994D01*
X61781Y445162D01*
X61604Y444270D01*
X65730D01*
Y448396D01*
D02*
G37*
G36*
X104270Y449681D02*
Y439479D01*
X114472D01*
X114243Y441222D01*
X113080Y444029D01*
X111230Y446440D01*
X108820Y448289D01*
X106012Y449452D01*
X104270Y449681D01*
D02*
G37*
G36*
X101730D02*
X99987Y449452D01*
X97180Y448289D01*
X94770Y446440D01*
X92920Y444029D01*
X91757Y441222D01*
X91528Y439479D01*
X101730D01*
Y449681D01*
D02*
G37*
G36*
X72396Y441730D02*
X68270D01*
Y437604D01*
X69162Y437781D01*
X70994Y439006D01*
X72219Y440838D01*
X72396Y441730D01*
D02*
G37*
G36*
X65730D02*
X61604D01*
X61781Y440838D01*
X63006Y439006D01*
X64838Y437781D01*
X65730Y437604D01*
Y441730D01*
D02*
G37*
G36*
X667000Y458119D02*
X626000D01*
X624424Y457806D01*
X623087Y456913D01*
X613617Y447443D01*
X612724Y446106D01*
X612411Y444530D01*
Y425079D01*
X611971Y424896D01*
X610083Y423447D01*
X608634Y421559D01*
X607723Y419360D01*
X607412Y417000D01*
X607723Y414640D01*
X607905Y414200D01*
X572788Y379084D01*
X549807D01*
X548162Y380183D01*
X546000Y380613D01*
X543838Y380183D01*
X542006Y378959D01*
X540782Y377126D01*
X540351Y374964D01*
X540782Y372803D01*
X541676Y371465D01*
X540782Y370126D01*
X540351Y367965D01*
X540782Y365803D01*
X542006Y363970D01*
X543838Y362746D01*
X546000Y362316D01*
X548162Y362746D01*
X549807Y363845D01*
X592965D01*
X594541Y364159D01*
X595877Y365052D01*
X639200Y408375D01*
X639640Y408193D01*
X642000Y407882D01*
X644360Y408193D01*
X646559Y409104D01*
X648447Y410553D01*
X649896Y412441D01*
X650807Y414640D01*
X651118Y417000D01*
X650807Y419360D01*
X649896Y421559D01*
X649628Y421908D01*
X649717Y422041D01*
X650030Y423617D01*
Y435256D01*
X656960D01*
Y449881D01*
X659980D01*
Y435256D01*
X682078D01*
Y449988D01*
X675145D01*
X674835Y451547D01*
X673942Y452884D01*
X669913Y456913D01*
X668576Y457806D01*
X667000Y458119D01*
D02*
G37*
G36*
X114472Y436939D02*
X104270D01*
Y426737D01*
X106012Y426966D01*
X108820Y428129D01*
X111230Y429979D01*
X113080Y432389D01*
X114243Y435196D01*
X114472Y436939D01*
D02*
G37*
G36*
X101730D02*
X91528D01*
X91757Y435196D01*
X92920Y432389D01*
X94770Y429979D01*
X97180Y428129D01*
X99987Y426966D01*
X101730Y426737D01*
Y436939D01*
D02*
G37*
G36*
X668600Y425951D02*
Y418270D01*
X676281D01*
X676137Y419360D01*
X675226Y421559D01*
X673777Y423447D01*
X671889Y424896D01*
X669690Y425807D01*
X668600Y425951D01*
D02*
G37*
G36*
X666060D02*
X664970Y425807D01*
X662771Y424896D01*
X660883Y423447D01*
X659434Y421559D01*
X658523Y419360D01*
X658379Y418270D01*
X666060D01*
Y425951D01*
D02*
G37*
G36*
X31410Y425081D02*
Y414879D01*
X41612D01*
X41383Y416622D01*
X40220Y419429D01*
X38370Y421839D01*
X35960Y423689D01*
X33152Y424852D01*
X31410Y425081D01*
D02*
G37*
G36*
X28870D02*
X27127Y424852D01*
X24320Y423689D01*
X21910Y421839D01*
X20060Y419429D01*
X18897Y416622D01*
X18668Y414879D01*
X28870D01*
Y425081D01*
D02*
G37*
G36*
X255610Y413420D02*
X248340D01*
Y409650D01*
X255610D01*
Y413420D01*
D02*
G37*
G36*
X676281Y415730D02*
X668600D01*
Y408049D01*
X669690Y408193D01*
X671889Y409104D01*
X673777Y410553D01*
X675226Y412441D01*
X676137Y414640D01*
X676281Y415730D01*
D02*
G37*
G36*
X666060D02*
X658379D01*
X658523Y414640D01*
X659434Y412441D01*
X660883Y410553D01*
X662771Y409104D01*
X664970Y408193D01*
X666060Y408049D01*
Y415730D01*
D02*
G37*
G36*
X68270Y411396D02*
Y407270D01*
X72396D01*
X72219Y408162D01*
X70994Y409994D01*
X69162Y411219D01*
X68270Y411396D01*
D02*
G37*
G36*
X65730D02*
X64838Y411219D01*
X63006Y409994D01*
X61781Y408162D01*
X61604Y407270D01*
X65730D01*
Y411396D01*
D02*
G37*
G36*
X255610Y407110D02*
X248340D01*
Y403340D01*
X255610D01*
Y407110D01*
D02*
G37*
G36*
X41612Y412339D02*
X31410D01*
Y402137D01*
X33152Y402366D01*
X35960Y403529D01*
X38370Y405379D01*
X40220Y407789D01*
X41383Y410597D01*
X41612Y412339D01*
D02*
G37*
G36*
X28870D02*
X18668D01*
X18897Y410597D01*
X20060Y407789D01*
X21910Y405379D01*
X24320Y403529D01*
X27127Y402366D01*
X28870Y402137D01*
Y412339D01*
D02*
G37*
G36*
X72396Y404730D02*
X68270D01*
Y400604D01*
X69162Y400781D01*
X70994Y402006D01*
X72219Y403838D01*
X72396Y404730D01*
D02*
G37*
G36*
X65730D02*
X61604D01*
X61781Y403838D01*
X63006Y402006D01*
X64838Y400781D01*
X65730Y400604D01*
Y404730D01*
D02*
G37*
G36*
X68270Y392396D02*
Y388270D01*
X72396D01*
X72219Y389162D01*
X70994Y390994D01*
X69162Y392219D01*
X68270Y392396D01*
D02*
G37*
G36*
X65730D02*
X64838Y392219D01*
X63006Y390994D01*
X61781Y389162D01*
X61604Y388270D01*
X65730D01*
Y392396D01*
D02*
G37*
G36*
X813540Y393822D02*
X811797Y393593D01*
X808990Y392430D01*
X806580Y390580D01*
X804730Y388170D01*
X804025Y386469D01*
X798157D01*
X796512Y387569D01*
X795620Y387746D01*
Y382350D01*
Y376954D01*
X796512Y377131D01*
X798157Y378231D01*
X804025D01*
X804730Y376530D01*
X806580Y374119D01*
X808990Y372270D01*
X811797Y371107D01*
X813540Y370878D01*
Y382350D01*
Y393822D01*
D02*
G37*
G36*
X816080D02*
Y383620D01*
X826282D01*
X826053Y385363D01*
X824890Y388170D01*
X823040Y390580D01*
X820630Y392430D01*
X817822Y393593D01*
X816080Y393822D01*
D02*
G37*
G36*
X793080Y387746D02*
X792188Y387569D01*
X790356Y386344D01*
X789131Y384512D01*
X788954Y383620D01*
X793080D01*
Y387746D01*
D02*
G37*
G36*
X72396Y385730D02*
X68270D01*
Y381604D01*
X69162Y381781D01*
X70994Y383006D01*
X72219Y384838D01*
X72396Y385730D01*
D02*
G37*
G36*
X65730D02*
X61604D01*
X61781Y384838D01*
X63006Y383006D01*
X64838Y381781D01*
X65730Y381604D01*
Y385730D01*
D02*
G37*
G36*
X793080Y381080D02*
X788954D01*
X789131Y380188D01*
X790356Y378356D01*
X792188Y377131D01*
X793080Y376954D01*
Y381080D01*
D02*
G37*
G36*
X826282D02*
X816080D01*
Y370878D01*
X817822Y371107D01*
X820630Y372270D01*
X823040Y374119D01*
X824890Y376530D01*
X826053Y379337D01*
X826282Y381080D01*
D02*
G37*
G36*
X68270Y373396D02*
Y369270D01*
X72396D01*
X72219Y370162D01*
X70994Y371994D01*
X69162Y373219D01*
X68270Y373396D01*
D02*
G37*
G36*
X65730D02*
X64838Y373219D01*
X63006Y371994D01*
X61781Y370162D01*
X61604Y369270D01*
X65730D01*
Y373396D01*
D02*
G37*
G36*
X104270Y373472D02*
Y363270D01*
X114472D01*
X114243Y365013D01*
X113080Y367820D01*
X111230Y370230D01*
X108820Y372080D01*
X106012Y373243D01*
X104270Y373472D01*
D02*
G37*
G36*
X101730D02*
X99987Y373243D01*
X97180Y372080D01*
X94770Y370230D01*
X92920Y367820D01*
X91757Y365013D01*
X91528Y363270D01*
X101730D01*
Y373472D01*
D02*
G37*
G36*
X72396Y366730D02*
X68270D01*
Y362604D01*
X69162Y362781D01*
X70994Y364006D01*
X72219Y365838D01*
X72396Y366730D01*
D02*
G37*
G36*
X65730D02*
X61604D01*
X61781Y365838D01*
X63006Y364006D01*
X64838Y362781D01*
X65730Y362604D01*
Y366730D01*
D02*
G37*
G36*
X485020Y361910D02*
X477000D01*
Y355439D01*
X473377D01*
X471732Y356539D01*
X470840Y356716D01*
Y351320D01*
Y345924D01*
X471732Y346101D01*
X473377Y347201D01*
X477000D01*
Y338830D01*
X485020D01*
Y350370D01*
Y361910D01*
D02*
G37*
G36*
X605888Y359999D02*
X591156D01*
Y353119D01*
X585807D01*
X584162Y354218D01*
X582000Y354649D01*
X579838Y354218D01*
X578006Y352994D01*
X576781Y351162D01*
X576352Y349000D01*
X576781Y346838D01*
X578006Y345006D01*
X579838Y343781D01*
X582000Y343352D01*
X584162Y343781D01*
X585807Y344881D01*
X591156D01*
Y337901D01*
X605888D01*
Y359999D01*
D02*
G37*
G36*
X655820Y360240D02*
X639740D01*
Y353069D01*
X637384D01*
Y359999D01*
X622652D01*
Y337901D01*
X637384D01*
Y344831D01*
X639740D01*
Y337660D01*
X655820D01*
Y360240D01*
D02*
G37*
G36*
X468300Y356716D02*
X467408Y356539D01*
X465576Y355314D01*
X464351Y353482D01*
X464174Y352590D01*
X468300D01*
Y356716D01*
D02*
G37*
G36*
X495580Y361910D02*
X487560D01*
Y351640D01*
X495580D01*
Y361910D01*
D02*
G37*
G36*
X114472Y360730D02*
X104270D01*
Y350528D01*
X106012Y350757D01*
X108820Y351920D01*
X111230Y353770D01*
X113080Y356180D01*
X114243Y358987D01*
X114472Y360730D01*
D02*
G37*
G36*
X101730D02*
X91528D01*
X91757Y358987D01*
X92920Y356180D01*
X94770Y353770D01*
X97180Y351920D01*
X99987Y350757D01*
X101730Y350528D01*
Y360730D01*
D02*
G37*
G36*
X676010Y360240D02*
X669240D01*
Y350220D01*
X676010D01*
Y360240D01*
D02*
G37*
G36*
X695270Y353396D02*
Y349270D01*
X699396D01*
X699219Y350162D01*
X697994Y351994D01*
X696162Y353218D01*
X695270Y353396D01*
D02*
G37*
G36*
X68270D02*
Y349270D01*
X72396D01*
X72219Y350162D01*
X70994Y351994D01*
X69162Y353218D01*
X68270Y353396D01*
D02*
G37*
G36*
X65730D02*
X64838Y353218D01*
X63006Y351994D01*
X61781Y350162D01*
X61604Y349270D01*
X65730D01*
Y353396D01*
D02*
G37*
G36*
X468300Y350050D02*
X464174D01*
X464351Y349158D01*
X465576Y347326D01*
X467408Y346101D01*
X468300Y345924D01*
Y350050D01*
D02*
G37*
G36*
X699396Y346730D02*
X695270D01*
Y342604D01*
X696162Y342781D01*
X697994Y344006D01*
X699219Y345838D01*
X699396Y346730D01*
D02*
G37*
G36*
X685320Y360240D02*
X678550D01*
Y348950D01*
Y337660D01*
X685320D01*
Y343881D01*
X690193D01*
X691838Y342781D01*
X692730Y342604D01*
Y348000D01*
Y353396D01*
X691838Y353218D01*
X690193Y352119D01*
X685320D01*
Y360240D01*
D02*
G37*
G36*
X72396Y346730D02*
X68270D01*
Y342604D01*
X69162Y342781D01*
X70994Y344006D01*
X72219Y345838D01*
X72396Y346730D01*
D02*
G37*
G36*
X65730D02*
X61604D01*
X61781Y345838D01*
X63006Y344006D01*
X64838Y342781D01*
X65730Y342604D01*
Y346730D01*
D02*
G37*
G36*
X823650Y345663D02*
X805570D01*
Y340742D01*
X797957D01*
X796312Y341842D01*
X794150Y342272D01*
X791988Y341842D01*
X790156Y340617D01*
X788931Y338785D01*
X788501Y336623D01*
X788931Y334462D01*
X790156Y332629D01*
X791988Y331405D01*
X794150Y330975D01*
X796312Y331405D01*
X797957Y332504D01*
X805570D01*
Y327583D01*
X823650D01*
Y345663D01*
D02*
G37*
G36*
X31410Y348872D02*
Y338670D01*
X41612D01*
X41383Y340412D01*
X40220Y343220D01*
X38370Y345630D01*
X35960Y347480D01*
X33152Y348643D01*
X31410Y348872D01*
D02*
G37*
G36*
X28870D02*
X27127Y348643D01*
X24320Y347480D01*
X21910Y345630D01*
X20060Y343220D01*
X18897Y340412D01*
X18668Y338670D01*
X28870D01*
Y348872D01*
D02*
G37*
G36*
X676010Y347680D02*
X669240D01*
Y337660D01*
X676010D01*
Y347680D01*
D02*
G37*
G36*
X41612Y336130D02*
X31410D01*
Y325928D01*
X33152Y326157D01*
X35960Y327320D01*
X38370Y329170D01*
X40220Y331580D01*
X41383Y334387D01*
X41612Y336130D01*
D02*
G37*
G36*
X28870D02*
X18668D01*
X18897Y334387D01*
X20060Y331580D01*
X21910Y329170D01*
X24320Y327320D01*
X27127Y326157D01*
X28870Y325928D01*
Y336130D01*
D02*
G37*
G36*
X65730Y316396D02*
X64838Y316218D01*
X63006Y314994D01*
X61781Y313162D01*
X61604Y312270D01*
X65730D01*
Y316396D01*
D02*
G37*
G36*
X72396Y309730D02*
X68270D01*
Y305604D01*
X69162Y305781D01*
X70994Y307006D01*
X72219Y308838D01*
X72396Y309730D01*
D02*
G37*
G36*
X65730D02*
X61604D01*
X61781Y308838D01*
X63006Y307006D01*
X64838Y305781D01*
X65730Y305604D01*
Y309730D01*
D02*
G37*
G36*
X412336Y301790D02*
X408210D01*
Y297664D01*
X409102Y297841D01*
X410934Y299066D01*
X412159Y300898D01*
X412336Y301790D01*
D02*
G37*
G36*
X405670D02*
X401544D01*
X401721Y300898D01*
X402946Y299066D01*
X404778Y297841D01*
X405670Y297664D01*
Y301790D01*
D02*
G37*
G36*
X68270Y296396D02*
Y292270D01*
X72396D01*
X72219Y293162D01*
X70994Y294994D01*
X69162Y296219D01*
X68270Y296396D01*
D02*
G37*
G36*
X65730D02*
X64838Y296219D01*
X63006Y294994D01*
X61781Y293162D01*
X61604Y292270D01*
X65730D01*
Y296396D01*
D02*
G37*
G36*
X331270Y293396D02*
Y289270D01*
X335396D01*
X335219Y290162D01*
X333994Y291994D01*
X332162Y293219D01*
X331270Y293396D01*
D02*
G37*
G36*
X328730D02*
X327838Y293219D01*
X326006Y291994D01*
X324781Y290162D01*
X324604Y289270D01*
X328730D01*
Y293396D01*
D02*
G37*
G36*
X104270Y296472D02*
Y286270D01*
X114472D01*
X114243Y288013D01*
X113080Y290820D01*
X111230Y293230D01*
X108820Y295080D01*
X106012Y296243D01*
X104270Y296472D01*
D02*
G37*
G36*
X101730D02*
X99987Y296243D01*
X97180Y295080D01*
X94770Y293230D01*
X92920Y290820D01*
X91757Y288013D01*
X91528Y286270D01*
X101730D01*
Y296472D01*
D02*
G37*
G36*
X72396Y289730D02*
X68270D01*
Y285604D01*
X69162Y285781D01*
X70994Y287006D01*
X72219Y288838D01*
X72396Y289730D01*
D02*
G37*
G36*
X65730D02*
X61604D01*
X61781Y288838D01*
X63006Y287006D01*
X64838Y285781D01*
X65730Y285604D01*
Y289730D01*
D02*
G37*
G36*
X628310Y285606D02*
Y281480D01*
X632436D01*
X632259Y282372D01*
X631034Y284204D01*
X629202Y285429D01*
X628310Y285606D01*
D02*
G37*
G36*
X625770D02*
X624878Y285429D01*
X623046Y284204D01*
X621821Y282372D01*
X621644Y281480D01*
X625770D01*
Y285606D01*
D02*
G37*
G36*
X114472Y283730D02*
X104270D01*
Y273528D01*
X106012Y273757D01*
X108820Y274920D01*
X111230Y276770D01*
X113080Y279180D01*
X114243Y281987D01*
X114472Y283730D01*
D02*
G37*
G36*
X101730D02*
X91528D01*
X91757Y281987D01*
X92920Y279180D01*
X94770Y276770D01*
X97180Y274920D01*
X99987Y273757D01*
X101730Y273528D01*
Y283730D01*
D02*
G37*
G36*
X335396Y286730D02*
X324604D01*
X324781Y285838D01*
X325881Y284193D01*
Y278540D01*
X321960D01*
Y268270D01*
X331250D01*
X340540D01*
Y278540D01*
X334119D01*
Y284193D01*
X335219Y285838D01*
X335396Y286730D01*
D02*
G37*
G36*
X813340Y269774D02*
X812250Y269631D01*
X810051Y268720D01*
X808163Y267271D01*
X806714Y265382D01*
X806531Y264942D01*
X797957D01*
X796312Y266042D01*
X795420Y266219D01*
Y260823D01*
Y255427D01*
X796312Y255605D01*
X797957Y256704D01*
X806531D01*
X806714Y256264D01*
X808163Y254376D01*
X810051Y252927D01*
X812250Y252016D01*
X813340Y251873D01*
Y260823D01*
Y269774D01*
D02*
G37*
G36*
X815880Y269774D02*
Y262093D01*
X823561D01*
X823417Y263183D01*
X822506Y265382D01*
X821057Y267271D01*
X819169Y268720D01*
X816970Y269631D01*
X815880Y269774D01*
D02*
G37*
G36*
X792880Y266219D02*
X791988Y266042D01*
X790156Y264817D01*
X788931Y262985D01*
X788754Y262093D01*
X792880D01*
Y266219D01*
D02*
G37*
G36*
X31410Y271872D02*
Y261670D01*
X41612D01*
X41383Y263412D01*
X40220Y266220D01*
X38370Y268630D01*
X35960Y270480D01*
X33152Y271643D01*
X31410Y271872D01*
D02*
G37*
G36*
X28870D02*
X27127Y271643D01*
X24320Y270480D01*
X21910Y268630D01*
X20060Y266220D01*
X18897Y263412D01*
X18668Y261670D01*
X28870D01*
Y271872D01*
D02*
G37*
G36*
X329980Y265730D02*
X321960D01*
Y255460D01*
X329980D01*
Y265730D01*
D02*
G37*
G36*
X792880Y259553D02*
X788754D01*
X788931Y258662D01*
X790156Y256829D01*
X791988Y255605D01*
X792880Y255427D01*
Y259553D01*
D02*
G37*
G36*
X65730Y257730D02*
X61604D01*
X61781Y256838D01*
X63006Y255006D01*
X64838Y253781D01*
X65730Y253604D01*
Y257730D01*
D02*
G37*
G36*
X823561Y259553D02*
X815880D01*
Y251873D01*
X816970Y252016D01*
X819169Y252927D01*
X821057Y254376D01*
X822506Y256264D01*
X823417Y258463D01*
X823561Y259553D01*
D02*
G37*
G36*
X41612Y259130D02*
X31410D01*
Y248928D01*
X33152Y249157D01*
X35960Y250320D01*
X38370Y252170D01*
X40220Y254580D01*
X41383Y257387D01*
X41612Y259130D01*
D02*
G37*
G36*
X28870D02*
X18668D01*
X18897Y257387D01*
X20060Y254580D01*
X21910Y252170D01*
X24320Y250320D01*
X27127Y249157D01*
X28870Y248928D01*
Y259130D01*
D02*
G37*
G36*
X520420Y244086D02*
X519528Y243909D01*
X517696Y242684D01*
X516471Y240852D01*
X516294Y239960D01*
X520420D01*
Y244086D01*
D02*
G37*
G36*
X68270Y243396D02*
Y239270D01*
X72396D01*
X72219Y240162D01*
X70994Y241994D01*
X69162Y243219D01*
X68270Y243396D01*
D02*
G37*
G36*
X65730D02*
X64838Y243219D01*
X63006Y241994D01*
X61781Y240162D01*
X61604Y239270D01*
X65730D01*
Y243396D01*
D02*
G37*
G36*
X520420Y237420D02*
X516294D01*
X516471Y236528D01*
X517696Y234696D01*
X519528Y233471D01*
X520420Y233294D01*
Y237420D01*
D02*
G37*
G36*
X72396Y236730D02*
X68270D01*
Y232604D01*
X69162Y232781D01*
X70994Y234006D01*
X72219Y235838D01*
X72396Y236730D01*
D02*
G37*
G36*
X65730D02*
X61604D01*
X61781Y235838D01*
X63006Y234006D01*
X64838Y232781D01*
X65730Y232604D01*
Y236730D01*
D02*
G37*
G36*
X612040Y240730D02*
X604020D01*
Y230460D01*
X612040D01*
Y240730D01*
D02*
G37*
G36*
X715590Y274360D02*
X692510D01*
Y261280D01*
Y248580D01*
Y235880D01*
Y223180D01*
X715590D01*
Y235880D01*
Y248580D01*
Y261280D01*
Y274360D01*
D02*
G37*
G36*
X823650Y226607D02*
X805570D01*
Y221686D01*
X797957D01*
X796312Y222785D01*
X794150Y223215D01*
X791988Y222785D01*
X790156Y221561D01*
X788931Y219728D01*
X788501Y217567D01*
X788931Y215405D01*
X790156Y213573D01*
X791988Y212348D01*
X794150Y211918D01*
X796312Y212348D01*
X797957Y213447D01*
X805570D01*
Y208527D01*
X823650D01*
Y226607D01*
D02*
G37*
G36*
X68270Y223396D02*
Y219270D01*
X72396D01*
X72219Y220162D01*
X70994Y221994D01*
X69162Y223219D01*
X68270Y223396D01*
D02*
G37*
G36*
X65730D02*
X64838Y223219D01*
X63006Y221994D01*
X61781Y220162D01*
X61604Y219270D01*
X65730D01*
Y223396D01*
D02*
G37*
G36*
X72396Y216730D02*
X68270D01*
Y212604D01*
X69162Y212781D01*
X70994Y214006D01*
X72219Y215838D01*
X72396Y216730D01*
D02*
G37*
G36*
X65730D02*
X61604D01*
X61781Y215838D01*
X63006Y214006D01*
X64838Y212781D01*
X65730Y212604D01*
Y216730D01*
D02*
G37*
G36*
X104270Y219532D02*
Y209330D01*
X114472D01*
X114243Y211073D01*
X113080Y213880D01*
X111230Y216290D01*
X108820Y218140D01*
X106012Y219303D01*
X104270Y219532D01*
D02*
G37*
G36*
X101730Y219532D02*
X99987Y219303D01*
X97180Y218140D01*
X94770Y216290D01*
X92920Y213880D01*
X91757Y211073D01*
X91528Y209330D01*
X101730D01*
Y219532D01*
D02*
G37*
G36*
Y206790D02*
X91528D01*
X91757Y205047D01*
X92920Y202240D01*
X94770Y199830D01*
X97180Y197980D01*
X99987Y196817D01*
X101730Y196588D01*
Y206790D01*
D02*
G37*
G36*
X114472D02*
X104270D01*
Y196588D01*
X106012Y196817D01*
X108820Y197980D01*
X111230Y199830D01*
X113080Y202240D01*
X114243Y205047D01*
X114472Y206790D01*
D02*
G37*
G36*
X31410Y194932D02*
Y184730D01*
X41612D01*
X41383Y186473D01*
X40220Y189280D01*
X38370Y191690D01*
X35960Y193540D01*
X33152Y194703D01*
X31410Y194932D01*
D02*
G37*
G36*
X28870Y194932D02*
X27127Y194703D01*
X24320Y193540D01*
X21910Y191690D01*
X20060Y189280D01*
X18897Y186473D01*
X18668Y184730D01*
X28870D01*
Y194932D01*
D02*
G37*
G36*
X65730Y183396D02*
X64838Y183219D01*
X63006Y181994D01*
X61781Y180162D01*
X61604Y179270D01*
X65730D01*
Y183396D01*
D02*
G37*
G36*
X72396Y176730D02*
X68270D01*
Y172604D01*
X69162Y172781D01*
X70994Y174006D01*
X72219Y175838D01*
X72396Y176730D01*
D02*
G37*
G36*
X65730D02*
X61604D01*
X61781Y175838D01*
X63006Y174006D01*
X64838Y172781D01*
X65730Y172604D01*
Y176730D01*
D02*
G37*
G36*
X41612Y182190D02*
X31410D01*
Y171988D01*
X33152Y172217D01*
X35960Y173380D01*
X38370Y175230D01*
X40220Y177640D01*
X41383Y180448D01*
X41612Y182190D01*
D02*
G37*
G36*
X28870D02*
X18668D01*
X18897Y180448D01*
X20060Y177640D01*
X21910Y175230D01*
X24320Y173380D01*
X27127Y172217D01*
X28870Y171988D01*
Y182190D01*
D02*
G37*
G36*
X68270Y165396D02*
Y161270D01*
X72396D01*
X72219Y162162D01*
X70994Y163994D01*
X69162Y165219D01*
X68270Y165396D01*
D02*
G37*
G36*
X65730D02*
X64838Y165219D01*
X63006Y163994D01*
X61781Y162162D01*
X61604Y161270D01*
X65730D01*
Y165396D01*
D02*
G37*
G36*
X330540Y160540D02*
X322520D01*
Y150270D01*
X330540D01*
Y160540D01*
D02*
G37*
G36*
X300730Y153396D02*
X299838Y153219D01*
X298006Y151994D01*
X296781Y150162D01*
X296604Y149270D01*
X300730D01*
Y153396D01*
D02*
G37*
G36*
X813340Y150717D02*
X812250Y150574D01*
X810051Y149663D01*
X808163Y148214D01*
X806714Y146326D01*
X806531Y145886D01*
X797957D01*
X796312Y146985D01*
X795420Y147163D01*
Y141767D01*
Y136371D01*
X796312Y136548D01*
X797957Y137647D01*
X806531D01*
X806714Y137208D01*
X808163Y135319D01*
X810051Y133870D01*
X812250Y132959D01*
X813340Y132816D01*
Y141767D01*
Y150717D01*
D02*
G37*
G36*
X815880Y150717D02*
Y143037D01*
X823561D01*
X823417Y144127D01*
X822506Y146326D01*
X821057Y148214D01*
X819169Y149663D01*
X816970Y150574D01*
X815880Y150717D01*
D02*
G37*
G36*
X792880Y147163D02*
X791988Y146985D01*
X790156Y145761D01*
X788931Y143928D01*
X788754Y143037D01*
X792880D01*
Y147163D01*
D02*
G37*
G36*
X330540Y147730D02*
X322520D01*
Y137460D01*
X330540D01*
Y147730D01*
D02*
G37*
G36*
X792880Y140497D02*
X788754D01*
X788931Y139605D01*
X790156Y137773D01*
X791988Y136548D01*
X792880Y136371D01*
Y140497D01*
D02*
G37*
G36*
X68270Y140396D02*
Y136270D01*
X72396D01*
X72219Y137162D01*
X70994Y138994D01*
X69162Y140218D01*
X68270Y140396D01*
D02*
G37*
G36*
X65730D02*
X64838Y140218D01*
X63006Y138994D01*
X61781Y137162D01*
X61604Y136270D01*
X65730D01*
Y140396D01*
D02*
G37*
G36*
X823561Y140497D02*
X815880D01*
Y132816D01*
X816970Y132959D01*
X819169Y133870D01*
X821057Y135319D01*
X822506Y137208D01*
X823417Y139407D01*
X823561Y140497D01*
D02*
G37*
G36*
X72396Y133730D02*
X68270D01*
Y129604D01*
X69162Y129781D01*
X70994Y131006D01*
X72219Y132838D01*
X72396Y133730D01*
D02*
G37*
G36*
X65730D02*
X61604D01*
X61781Y132838D01*
X63006Y131006D01*
X64838Y129781D01*
X65730Y129604D01*
Y133730D01*
D02*
G37*
G36*
X72396Y158730D02*
X61604D01*
X61781Y157838D01*
X63006Y156006D01*
X64838Y154782D01*
X66011Y154548D01*
X66811Y154389D01*
D01*
D01*
X66686Y153119D01*
X45000D01*
X43424Y152806D01*
X42087Y151913D01*
X34715Y144540D01*
X17460D01*
Y121460D01*
X40540D01*
Y138715D01*
X46706Y144881D01*
X101699D01*
X101782Y143611D01*
X101013Y143510D01*
X98988Y143243D01*
X96180Y142080D01*
X93770Y140230D01*
X91920Y137820D01*
X90757Y135013D01*
X90528Y133270D01*
X102000D01*
X113472D01*
X113243Y135013D01*
X112080Y137820D01*
X110230Y140230D01*
X107820Y142080D01*
X105013Y143243D01*
X102987Y143510D01*
X102218Y143611D01*
X102301Y144881D01*
X144294D01*
X151675Y137500D01*
X107715Y93540D01*
X90460D01*
Y70460D01*
X113540D01*
Y87715D01*
X156706Y130881D01*
X230421D01*
X231006Y130006D01*
X232838Y128781D01*
X235000Y128351D01*
X237162Y128781D01*
X238994Y130006D01*
X240219Y131838D01*
X240649Y134000D01*
X240219Y136162D01*
X239267Y137585D01*
X240176Y138945D01*
X240606Y141107D01*
X240176Y143268D01*
X238951Y145101D01*
X237119Y146325D01*
X234957Y146755D01*
X232796Y146325D01*
X230963Y145101D01*
X230307Y144119D01*
X156706D01*
X148913Y151913D01*
X147576Y152806D01*
X146730Y152974D01*
D01*
X146000Y153119D01*
X67314D01*
X67189Y154389D01*
X67967Y154544D01*
X67989Y154548D01*
X69162Y154782D01*
X70994Y156006D01*
X72219Y157838D01*
X72396Y158730D01*
D02*
G37*
G36*
X113472Y130730D02*
X103270D01*
Y120528D01*
X105013Y120757D01*
X107820Y121920D01*
X110230Y123770D01*
X112080Y126180D01*
X113243Y128987D01*
X113472Y130730D01*
D02*
G37*
G36*
X100730D02*
X90528D01*
X90757Y128987D01*
X91920Y126180D01*
X93770Y123770D01*
X96180Y121920D01*
X98988Y120757D01*
X100730Y120528D01*
Y130730D01*
D02*
G37*
G36*
X720000Y133649D02*
X717838Y133219D01*
X716006Y131994D01*
X714781Y130162D01*
X714395Y128221D01*
X705003Y118828D01*
X700670D01*
Y123999D01*
X677590D01*
Y105419D01*
X700670D01*
Y110590D01*
X706709D01*
X708286Y110904D01*
X709622Y111797D01*
X720221Y122395D01*
X722162Y122781D01*
X723994Y124006D01*
X725219Y125838D01*
X725648Y128000D01*
X725219Y130162D01*
X723994Y131994D01*
X722162Y133219D01*
X720000Y133649D01*
D02*
G37*
G36*
X68270Y121396D02*
Y117270D01*
X72396D01*
X72219Y118162D01*
X70994Y119994D01*
X69162Y121219D01*
X68270Y121396D01*
D02*
G37*
G36*
X65730D02*
X64838Y121219D01*
X63006Y119994D01*
X61781Y118162D01*
X61604Y117270D01*
X65730D01*
Y121396D01*
D02*
G37*
G36*
X72396Y114730D02*
X68270D01*
Y110604D01*
X69162Y110781D01*
X70994Y112006D01*
X72219Y113838D01*
X72396Y114730D01*
D02*
G37*
G36*
X65730D02*
X61604D01*
X61781Y113838D01*
X63006Y112006D01*
X64838Y110781D01*
X65730Y110604D01*
Y114730D01*
D02*
G37*
G36*
X823650Y107550D02*
X805570D01*
Y102629D01*
X797957D01*
X796312Y103729D01*
X794150Y104158D01*
X791988Y103729D01*
X790156Y102504D01*
X788931Y100672D01*
X788501Y98510D01*
X788931Y96348D01*
X790156Y94516D01*
X791988Y93291D01*
X794150Y92861D01*
X796312Y93291D01*
X797957Y94391D01*
X805570D01*
Y89470D01*
X823650D01*
Y107550D01*
D02*
G37*
G36*
X68270Y102396D02*
Y98270D01*
X72396D01*
X72219Y99162D01*
X70994Y100994D01*
X69162Y102219D01*
X68270Y102396D01*
D02*
G37*
G36*
X65730D02*
X64838Y102219D01*
X63006Y100994D01*
X61781Y99162D01*
X61604Y98270D01*
X65730D01*
Y102396D01*
D02*
G37*
G36*
X675420Y106270D02*
X663650D01*
Y98000D01*
X675420D01*
Y106270D01*
D02*
G37*
G36*
X661110D02*
X649340D01*
Y98000D01*
X661110D01*
Y106270D01*
D02*
G37*
G36*
X584420D02*
X572650D01*
Y98000D01*
X584420D01*
Y106270D01*
D02*
G37*
G36*
X570110D02*
X558340D01*
Y98000D01*
X570110D01*
Y106270D01*
D02*
G37*
G36*
X29000Y119640D02*
X25988Y119243D01*
X23180Y118080D01*
X20770Y116230D01*
X18920Y113820D01*
X17757Y111012D01*
X17360Y108000D01*
X17757Y104987D01*
X18920Y102180D01*
X20770Y99770D01*
X23180Y97920D01*
X25988Y96757D01*
X29000Y96360D01*
X32013Y96757D01*
X34820Y97920D01*
X37230Y99770D01*
X39080Y102180D01*
X40243Y104987D01*
X40640Y108000D01*
X40243Y111012D01*
X39080Y113820D01*
X37230Y116230D01*
X34820Y118080D01*
X32013Y119243D01*
X29000Y119640D01*
D02*
G37*
G36*
X102000Y118639D02*
X98988Y118243D01*
X96180Y117080D01*
X93770Y115230D01*
X91920Y112820D01*
X90757Y110013D01*
X90360Y107000D01*
X90757Y103987D01*
X91920Y101180D01*
X93770Y98770D01*
X96180Y96920D01*
X98988Y95757D01*
X102000Y95360D01*
X105013Y95757D01*
X107820Y96920D01*
X110230Y98770D01*
X112080Y101180D01*
X113243Y103987D01*
X113639Y107000D01*
X113243Y110013D01*
X112080Y112820D01*
X110230Y115230D01*
X107820Y117080D01*
X105013Y118243D01*
X102000Y118639D01*
D02*
G37*
G36*
X72396Y95730D02*
X68270D01*
Y91604D01*
X69162Y91781D01*
X70994Y93006D01*
X72219Y94838D01*
X72396Y95730D01*
D02*
G37*
G36*
X65730D02*
X61604D01*
X61781Y94838D01*
X63006Y93006D01*
X64838Y91781D01*
X65730Y91604D01*
Y95730D01*
D02*
G37*
G36*
X30270Y94472D02*
Y84270D01*
X40472D01*
X40243Y86012D01*
X39080Y88820D01*
X37230Y91230D01*
X34820Y93080D01*
X32013Y94243D01*
X30270Y94472D01*
D02*
G37*
G36*
X27730D02*
X25988Y94243D01*
X23180Y93080D01*
X20770Y91230D01*
X18920Y88820D01*
X17757Y86012D01*
X17528Y84270D01*
X27730D01*
Y94472D01*
D02*
G37*
G36*
X675420Y95460D02*
X649340D01*
Y87190D01*
X657881D01*
Y84807D01*
X656781Y83162D01*
X656604Y82270D01*
X667396D01*
X667219Y83162D01*
X666119Y84807D01*
Y87190D01*
X675420D01*
Y95460D01*
D02*
G37*
G36*
X584420D02*
X558340D01*
Y87190D01*
X567261D01*
Y84427D01*
X566161Y82782D01*
X565984Y81890D01*
X576776D01*
X576599Y82782D01*
X575499Y84427D01*
Y87190D01*
X584420D01*
Y95460D01*
D02*
G37*
G36*
X68270Y83396D02*
Y79270D01*
X72396D01*
X72219Y80162D01*
X70994Y81994D01*
X69162Y83219D01*
X68270Y83396D01*
D02*
G37*
G36*
X65730D02*
X64838Y83219D01*
X63006Y81994D01*
X61781Y80162D01*
X61604Y79270D01*
X65730D01*
Y83396D01*
D02*
G37*
G36*
X468910Y88860D02*
X460890D01*
Y78590D01*
X468910D01*
Y88860D01*
D02*
G37*
G36*
X407110D02*
X399090D01*
Y78590D01*
X407110D01*
Y88860D01*
D02*
G37*
G36*
X667396Y79730D02*
X663270D01*
Y75604D01*
X664162Y75781D01*
X665994Y77006D01*
X667219Y78838D01*
X667396Y79730D01*
D02*
G37*
G36*
X660730D02*
X656604D01*
X656781Y78838D01*
X658006Y77006D01*
X659838Y75781D01*
X660730Y75604D01*
Y79730D01*
D02*
G37*
G36*
X576776Y79350D02*
X572650D01*
Y75224D01*
X573542Y75401D01*
X575374Y76626D01*
X576599Y78458D01*
X576776Y79350D01*
D02*
G37*
G36*
X570110D02*
X565984D01*
X566161Y78458D01*
X567386Y76626D01*
X569218Y75401D01*
X570110Y75224D01*
Y79350D01*
D02*
G37*
G36*
X72396Y76730D02*
X68270D01*
Y72604D01*
X69162Y72781D01*
X70994Y74006D01*
X72219Y75838D01*
X72396Y76730D01*
D02*
G37*
G36*
X65730D02*
X61604D01*
X61781Y75838D01*
X63006Y74006D01*
X64838Y72781D01*
X65730Y72604D01*
Y76730D01*
D02*
G37*
G36*
X40472Y81730D02*
X30270D01*
Y71528D01*
X32013Y71757D01*
X34820Y72920D01*
X37230Y74770D01*
X39080Y77180D01*
X40243Y79987D01*
X40472Y81730D01*
D02*
G37*
G36*
X27730D02*
X17528D01*
X17757Y79987D01*
X18920Y77180D01*
X20770Y74770D01*
X23180Y72920D01*
X25988Y71757D01*
X27730Y71528D01*
Y81730D01*
D02*
G37*
G36*
X468910Y76050D02*
X460890D01*
Y65780D01*
X468910D01*
Y76050D01*
D02*
G37*
G36*
X458350Y88860D02*
X450330D01*
Y82969D01*
X434635D01*
Y77320D01*
Y71672D01*
X450330D01*
Y65780D01*
X458350D01*
Y77320D01*
Y88860D01*
D02*
G37*
G36*
X417670D02*
X409650D01*
Y77320D01*
Y65780D01*
X417670D01*
Y71672D01*
X432095D01*
Y77320D01*
Y82969D01*
X417670D01*
Y88860D01*
D02*
G37*
G36*
X407110Y76050D02*
X399090D01*
Y65780D01*
X407110D01*
Y76050D01*
D02*
G37*
G36*
X68270Y64396D02*
Y60270D01*
X72396D01*
X72219Y61162D01*
X70994Y62994D01*
X69162Y64219D01*
D01*
X68270Y64396D01*
D02*
G37*
G36*
X65730D02*
X64838Y64219D01*
X63006Y62994D01*
X61781Y61162D01*
X61604Y60270D01*
X65730D01*
Y64396D01*
D02*
G37*
G36*
X655470Y61951D02*
Y54270D01*
X663151D01*
X663007Y55360D01*
X662096Y57559D01*
X660647Y59447D01*
X658759Y60896D01*
X656560Y61807D01*
X655470Y61951D01*
D02*
G37*
G36*
X652930D02*
X651840Y61807D01*
X649641Y60896D01*
X647753Y59447D01*
X646304Y57559D01*
X645393Y55360D01*
X645249Y54270D01*
X652930D01*
Y61951D01*
D02*
G37*
G36*
X72396Y57730D02*
X68270D01*
Y53604D01*
X69162Y53781D01*
X70994Y55006D01*
X72219Y56838D01*
X72396Y57730D01*
D02*
G37*
G36*
X65730D02*
X61604D01*
X61781Y56838D01*
X63006Y55006D01*
X64838Y53781D01*
X65730Y53604D01*
Y57730D01*
D02*
G37*
G36*
X663151Y51730D02*
X655470D01*
Y44049D01*
X656560Y44193D01*
X658759Y45104D01*
X660647Y46553D01*
X662096Y48441D01*
X663007Y50640D01*
X663151Y51730D01*
D02*
G37*
G36*
X652930D02*
X645249D01*
X645393Y50640D01*
X646304Y48441D01*
X647753Y46553D01*
X649641Y45104D01*
X651840Y44193D01*
X652930Y44049D01*
Y51730D01*
D02*
G37*
G36*
X287270Y45472D02*
Y35270D01*
X297472D01*
X297243Y37013D01*
X296080Y39820D01*
X294230Y42230D01*
X291820Y44080D01*
X289013Y45243D01*
X287270Y45472D01*
D02*
G37*
G36*
X284730D02*
X282987Y45243D01*
X280180Y44080D01*
X277770Y42230D01*
X275920Y39820D01*
X274757Y37013D01*
X274528Y35270D01*
X284730D01*
Y45472D01*
D02*
G37*
G36*
X813340Y31661D02*
X812250Y31517D01*
X810051Y30606D01*
X808163Y29157D01*
X806714Y27269D01*
X806531Y26829D01*
X797957D01*
X796312Y27929D01*
X795420Y28106D01*
Y22710D01*
Y17314D01*
X796312Y17491D01*
X797957Y18591D01*
X806531D01*
X806714Y18151D01*
X808163Y16263D01*
X810051Y14814D01*
X812250Y13903D01*
X813340Y13759D01*
Y22710D01*
Y31661D01*
D02*
G37*
G36*
X815880Y31661D02*
Y23980D01*
X823561D01*
X823417Y25070D01*
X822506Y27269D01*
X821057Y29157D01*
X819169Y30606D01*
X816970Y31517D01*
X815880Y31661D01*
D02*
G37*
G36*
X792880Y28106D02*
X791988Y27929D01*
X790156Y26704D01*
X788931Y24872D01*
X788754Y23980D01*
X792880D01*
Y28106D01*
D02*
G37*
G36*
X297472Y32730D02*
X287270D01*
Y22528D01*
X289013Y22757D01*
X291820Y23920D01*
X294230Y25770D01*
X296080Y28180D01*
X297243Y30987D01*
X297472Y32730D01*
D02*
G37*
G36*
X284730D02*
X274528D01*
X274757Y30987D01*
X275920Y28180D01*
X277770Y25770D01*
X280180Y23920D01*
X282987Y22757D01*
X284730Y22528D01*
Y32730D01*
D02*
G37*
G36*
X261000Y45640D02*
X257987Y45243D01*
X255180Y44080D01*
X252770Y42230D01*
X250920Y39820D01*
X249757Y37013D01*
X249360Y34000D01*
X249757Y30987D01*
X250920Y28180D01*
X252770Y25770D01*
X255180Y23920D01*
X257987Y22757D01*
X261000Y22360D01*
X264013Y22757D01*
X266820Y23920D01*
X269230Y25770D01*
X271080Y28180D01*
X272243Y30987D01*
X272640Y34000D01*
X272243Y37013D01*
X271080Y39820D01*
X269230Y42230D01*
X266820Y44080D01*
X264013Y45243D01*
X261000Y45640D01*
D02*
G37*
G36*
X236000D02*
X232987Y45243D01*
X230180Y44080D01*
X227770Y42230D01*
X225920Y39820D01*
X224757Y37013D01*
X224360Y34000D01*
X224757Y30987D01*
X225920Y28180D01*
X227770Y25770D01*
X230180Y23920D01*
X232987Y22757D01*
X236000Y22360D01*
X239013Y22757D01*
X241820Y23920D01*
X244230Y25770D01*
X246080Y28180D01*
X247243Y30987D01*
X247640Y34000D01*
X247243Y37013D01*
X246080Y39820D01*
X244230Y42230D01*
X241820Y44080D01*
X239013Y45243D01*
X236000Y45640D01*
D02*
G37*
G36*
X211000D02*
X207987Y45243D01*
X205180Y44080D01*
X202770Y42230D01*
X200920Y39820D01*
X199757Y37013D01*
X199360Y34000D01*
X199757Y30987D01*
X200920Y28180D01*
X202770Y25770D01*
X205180Y23920D01*
X207987Y22757D01*
X211000Y22360D01*
X214013Y22757D01*
X216820Y23920D01*
X219230Y25770D01*
X221080Y28180D01*
X222243Y30987D01*
X222640Y34000D01*
X222243Y37013D01*
X221080Y39820D01*
X219230Y42230D01*
X216820Y44080D01*
X214013Y45243D01*
X211000Y45640D01*
D02*
G37*
G36*
X167578Y55570D02*
X145422D01*
X144431Y55373D01*
X143591Y54812D01*
X138188Y49409D01*
X137627Y48569D01*
X137430Y47578D01*
Y19422D01*
X137627Y18431D01*
X138188Y17591D01*
X143591Y12188D01*
X144431Y11627D01*
X145422Y11430D01*
X169578D01*
X170569Y11627D01*
X171409Y12188D01*
X176111Y16890D01*
X176672Y17730D01*
X176869Y18722D01*
Y24982D01*
X178139Y25486D01*
X180180Y23920D01*
X182987Y22757D01*
X186000Y22360D01*
X189013Y22757D01*
X191820Y23920D01*
X194230Y25770D01*
X196080Y28180D01*
X197243Y30987D01*
X197640Y34000D01*
X197243Y37013D01*
X196080Y39820D01*
X194230Y42230D01*
X191820Y44080D01*
X189013Y45243D01*
X186000Y45640D01*
X182987Y45243D01*
X180180Y44080D01*
X178139Y42514D01*
X176869Y43018D01*
Y46278D01*
X176672Y47270D01*
X176111Y48110D01*
X169409Y54812D01*
X168569Y55373D01*
X167578Y55570D01*
D02*
G37*
G36*
X471940Y27951D02*
Y20270D01*
X479621D01*
X479477Y21360D01*
X478566Y23559D01*
X477117Y25447D01*
X475229Y26896D01*
X473030Y27807D01*
X471940Y27951D01*
D02*
G37*
G36*
X469400D02*
X468310Y27807D01*
X466111Y26896D01*
X464223Y25447D01*
X462774Y23559D01*
X461863Y21360D01*
X461719Y20270D01*
X469400D01*
Y27951D01*
D02*
G37*
G36*
X412740D02*
Y20270D01*
X420421D01*
X420277Y21360D01*
X419366Y23559D01*
X417917Y25447D01*
X416029Y26896D01*
X413830Y27807D01*
X412740Y27951D01*
D02*
G37*
G36*
X410200D02*
X409110Y27807D01*
X406911Y26896D01*
X405023Y25447D01*
X403574Y23559D01*
X402663Y21360D01*
X402519Y20270D01*
X410200D01*
Y27951D01*
D02*
G37*
G36*
X654470Y26951D02*
Y19270D01*
X662151D01*
X662007Y20360D01*
X661096Y22559D01*
X659647Y24447D01*
X657759Y25896D01*
X655560Y26807D01*
X655394Y26829D01*
X654470Y26951D01*
D02*
G37*
G36*
X651930Y26951D02*
X650840Y26807D01*
X648641Y25896D01*
X646753Y24447D01*
X645304Y22559D01*
X644393Y20360D01*
X644249Y19270D01*
X651930D01*
Y26951D01*
D02*
G37*
G36*
X792880Y21440D02*
X788754D01*
X788931Y20548D01*
X790156Y18716D01*
X791988Y17491D01*
X792880Y17314D01*
Y21440D01*
D02*
G37*
G36*
X823561Y21440D02*
X815880D01*
Y13759D01*
X816970Y13903D01*
X819169Y14814D01*
X821057Y16263D01*
X822506Y18151D01*
X823417Y20350D01*
X823561Y21440D01*
D02*
G37*
G36*
X563690Y30480D02*
X545610D01*
Y12400D01*
X563690D01*
Y30480D01*
D02*
G37*
G36*
X479621Y17730D02*
X471940D01*
Y10049D01*
X473030Y10193D01*
X475229Y11104D01*
X477117Y12553D01*
X478566Y14441D01*
X479477Y16640D01*
X479621Y17730D01*
D02*
G37*
G36*
X469400D02*
X461719D01*
X461863Y16640D01*
X462774Y14441D01*
X464223Y12553D01*
X466111Y11104D01*
X468310Y10193D01*
X469400Y10049D01*
Y17730D01*
D02*
G37*
G36*
X420421D02*
X412740D01*
Y10049D01*
X413830Y10193D01*
X416029Y11104D01*
X417917Y12553D01*
X419366Y14441D01*
X420277Y16640D01*
X420421Y17730D01*
D02*
G37*
G36*
X410200D02*
X402519D01*
X402663Y16640D01*
X403574Y14441D01*
X405023Y12553D01*
X406911Y11104D01*
X409110Y10193D01*
X410200Y10049D01*
Y17730D01*
D02*
G37*
G36*
X454710Y28040D02*
X436630D01*
Y9960D01*
X454710D01*
Y28040D01*
D02*
G37*
G36*
X344710D02*
X326630D01*
Y9960D01*
X344710D01*
Y28040D01*
D02*
G37*
G36*
X651930Y16730D02*
X644249D01*
X644393Y15640D01*
X645304Y13441D01*
X646753Y11553D01*
X648641Y10104D01*
X650840Y9193D01*
X651930Y9049D01*
Y16730D01*
D02*
G37*
G36*
X662151D02*
X654470D01*
Y9049D01*
X655560Y9193D01*
X657759Y10104D01*
X659647Y11553D01*
X661096Y13441D01*
X662007Y15640D01*
X662151Y16730D01*
D02*
G37*
G36*
X605060Y50439D02*
X600641Y50004D01*
X596393Y48715D01*
X592477Y46622D01*
X589045Y43805D01*
X586228Y40373D01*
X584135Y36457D01*
X582846Y32209D01*
X582411Y27790D01*
X582846Y23371D01*
X584135Y19123D01*
X586228Y15207D01*
X589045Y11775D01*
X592477Y8958D01*
X596393Y6865D01*
X600641Y5576D01*
X605060Y5141D01*
X609479Y5576D01*
X613727Y6865D01*
X617643Y8958D01*
X621075Y11775D01*
X623892Y15207D01*
X625985Y19123D01*
X627274Y23371D01*
X627709Y27790D01*
X627274Y32209D01*
X625985Y36457D01*
X623892Y40373D01*
X621075Y43805D01*
X617643Y46622D01*
X613727Y48715D01*
X609479Y50004D01*
X605060Y50439D01*
D02*
G37*
G36*
X25060D02*
X20641Y50004D01*
X16393Y48715D01*
X12477Y46622D01*
X9045Y43805D01*
X6228Y40373D01*
X4135Y36457D01*
X2846Y32209D01*
X2411Y27790D01*
X2846Y23371D01*
X4135Y19123D01*
X6228Y15207D01*
X9045Y11775D01*
X12477Y8958D01*
X16393Y6865D01*
X20641Y5576D01*
X25060Y5141D01*
X29479Y5576D01*
X33727Y6865D01*
X37643Y8958D01*
X41075Y11775D01*
X43892Y15207D01*
X45985Y19123D01*
X47274Y23371D01*
X47709Y27790D01*
X47274Y32209D01*
X45985Y36457D01*
X43892Y40373D01*
X41075Y43805D01*
X37643Y46622D01*
X33727Y48715D01*
X29479Y50004D01*
X25060Y50439D01*
D02*
G37*
%LPD*%
G36*
X634862Y435256D02*
X641792D01*
Y426091D01*
X639640Y425807D01*
X637441Y424896D01*
X635553Y423447D01*
X634104Y421559D01*
X633193Y419360D01*
X632882Y417000D01*
X633193Y414640D01*
X633375Y414200D01*
X591258Y372084D01*
X579098D01*
X578612Y373257D01*
X613730Y408375D01*
X614170Y408193D01*
X616530Y407882D01*
X618890Y408193D01*
X621089Y409104D01*
X622977Y410553D01*
X624426Y412441D01*
X625337Y414640D01*
X625648Y417000D01*
X625337Y419360D01*
X624426Y421559D01*
X622977Y423447D01*
X621089Y424896D01*
X620649Y425079D01*
Y442824D01*
X627706Y449881D01*
X634862D01*
Y435256D01*
D02*
G37*
G36*
X174280Y46278D02*
Y18722D01*
X169578Y14020D01*
X145422D01*
X140020Y19422D01*
Y47578D01*
X145422Y52980D01*
X167578D01*
X174280Y46278D01*
D02*
G37*
D19*
X513790Y350370D02*
D03*
X486290D02*
D03*
X358750Y267000D02*
D03*
X331250D02*
D03*
X267040Y372920D02*
D03*
X294540D02*
D03*
X294540Y397050D02*
D03*
X267040D02*
D03*
X267040Y421180D02*
D03*
X294540D02*
D03*
X348750Y149000D02*
D03*
X321250D02*
D03*
X459620Y77320D02*
D03*
X487120D02*
D03*
X408380D02*
D03*
X380880D02*
D03*
X602750Y242000D02*
D03*
X575250D02*
D03*
D20*
X383190Y303690D02*
D03*
Y298690D02*
D03*
Y293690D02*
D03*
Y288690D02*
D03*
Y283690D02*
D03*
Y278690D02*
D03*
Y273690D02*
D03*
Y268690D02*
D03*
Y263690D02*
D03*
Y258690D02*
D03*
Y253690D02*
D03*
Y248690D02*
D03*
Y243690D02*
D03*
Y238690D02*
D03*
Y233690D02*
D03*
Y228690D02*
D03*
Y223690D02*
D03*
Y218690D02*
D03*
Y213690D02*
D03*
Y208690D02*
D03*
Y203690D02*
D03*
Y198690D02*
D03*
Y193690D02*
D03*
Y188690D02*
D03*
Y183690D02*
D03*
X540690D02*
D03*
Y188690D02*
D03*
Y193690D02*
D03*
Y198690D02*
D03*
Y203690D02*
D03*
Y208690D02*
D03*
Y213690D02*
D03*
Y218690D02*
D03*
Y223690D02*
D03*
Y228690D02*
D03*
Y233690D02*
D03*
Y238690D02*
D03*
Y243690D02*
D03*
Y248690D02*
D03*
Y253690D02*
D03*
Y258690D02*
D03*
Y263690D02*
D03*
Y268690D02*
D03*
Y273690D02*
D03*
Y278690D02*
D03*
Y283690D02*
D03*
Y288690D02*
D03*
Y293690D02*
D03*
Y298690D02*
D03*
Y303690D02*
D03*
D21*
X401940Y164940D02*
D03*
X406940D02*
D03*
X411940D02*
D03*
X416940D02*
D03*
X421940D02*
D03*
X426940D02*
D03*
X431940D02*
D03*
X436940D02*
D03*
X441940D02*
D03*
X446940D02*
D03*
X451940D02*
D03*
X456940D02*
D03*
X461940D02*
D03*
X466940D02*
D03*
X471940D02*
D03*
X476940D02*
D03*
X481940D02*
D03*
X486940D02*
D03*
X491940D02*
D03*
X496940D02*
D03*
X501940D02*
D03*
X506940D02*
D03*
X511940D02*
D03*
X516940D02*
D03*
X521940D02*
D03*
Y322440D02*
D03*
X516940D02*
D03*
X511940D02*
D03*
X506940D02*
D03*
X501940D02*
D03*
X496940D02*
D03*
X491940D02*
D03*
X486940D02*
D03*
X481940D02*
D03*
X476940D02*
D03*
X471940D02*
D03*
X466940D02*
D03*
X461940D02*
D03*
X456940D02*
D03*
X451940D02*
D03*
X446940D02*
D03*
X441940D02*
D03*
X436940D02*
D03*
X431940D02*
D03*
X426940D02*
D03*
X421940D02*
D03*
X416940D02*
D03*
X411940D02*
D03*
X406940D02*
D03*
X401940D02*
D03*
D22*
X325000Y464000D02*
D03*
X387000D02*
D03*
D23*
X335000Y375500D02*
D03*
Y418500D02*
D03*
D24*
X223070Y420880D02*
D03*
Y408380D02*
D03*
Y395880D02*
D03*
Y383380D02*
D03*
X247070Y420880D02*
D03*
Y408380D02*
D03*
Y395880D02*
D03*
Y383380D02*
D03*
D25*
X172500Y389000D02*
D03*
X202000D02*
D03*
X172250Y414000D02*
D03*
X201750D02*
D03*
X647780Y348950D02*
D03*
X677280D02*
D03*
D26*
X481500Y117960D02*
D03*
X386500D02*
D03*
D27*
X544490Y142870D02*
D03*
Y113370D02*
D03*
X671270Y490120D02*
D03*
Y519620D02*
D03*
X645670Y490120D02*
D03*
Y519620D02*
D03*
D28*
X571380Y141730D02*
D03*
Y96730D02*
D03*
X662380Y141730D02*
D03*
Y96730D02*
D03*
D29*
X689130Y142209D02*
D03*
Y114709D02*
D03*
X627040Y233750D02*
D03*
Y261250D02*
D03*
D30*
X630018Y348950D02*
D03*
X598522D02*
D03*
D31*
X671029Y474118D02*
D03*
Y442622D02*
D03*
X645911Y474118D02*
D03*
Y442622D02*
D03*
D32*
X551000Y520000D02*
D03*
Y458000D02*
D03*
D33*
X504000Y437000D02*
D03*
X458400D02*
D03*
D34*
X426000Y528750D02*
D03*
Y499250D02*
D03*
X270818Y523750D02*
D03*
Y494250D02*
D03*
D35*
X656250Y255120D02*
D03*
Y242420D02*
D03*
Y267820D02*
D03*
Y229720D02*
D03*
X704050Y255120D02*
D03*
Y242420D02*
D03*
Y267820D02*
D03*
Y229720D02*
D03*
D64*
X481200Y503200D02*
D03*
D65*
X176000Y327000D02*
X201071D01*
X205929Y332000D02*
X294239Y243690D01*
X195929Y318000D02*
X290239Y223690D01*
X169496Y323000D02*
X198000D01*
X201071Y327000D02*
X294381Y233690D01*
X138000Y379000D02*
X185000Y332000D01*
X198000Y323000D02*
X292310Y228690D01*
X81540Y311000D02*
X195858D01*
X122000Y318000D02*
X195929D01*
X195858Y311000D02*
X288168Y218690D01*
X185000Y332000D02*
X205929D01*
X294381Y233690D02*
X383190D01*
X30140Y362400D02*
X81540Y311000D01*
X53887Y438609D02*
X169496Y323000D01*
X103000Y337000D02*
X122000Y318000D01*
X103000Y400000D02*
X176000Y327000D01*
X645911Y423617D02*
Y442622D01*
X642000Y419706D02*
X645911Y423617D01*
X642000Y417000D02*
Y419706D01*
X592965Y367965D02*
X642000Y417000D01*
X247070Y420880D02*
Y431930D01*
X244371Y434629D02*
X247070Y431930D01*
X235000Y437000D02*
X249000Y451000D01*
X235000Y416950D02*
Y437000D01*
X249000Y451000D02*
X274000D01*
X235000Y416950D02*
X243570Y408380D01*
X380880Y94830D02*
X386500Y100450D01*
X380880Y77320D02*
Y94830D01*
X386500Y100450D02*
Y117960D01*
X481500Y101085D02*
Y131500D01*
Y101085D02*
X487120Y95465D01*
Y78590D02*
Y95465D01*
X519000Y141000D02*
X521000Y139000D01*
X504000Y141000D02*
X519000D01*
X521000Y62929D02*
Y139000D01*
X491940Y153060D02*
X504000Y141000D01*
X513000Y137000D02*
X516000Y134000D01*
X502000Y137000D02*
X513000D01*
X516000Y65000D02*
Y134000D01*
X486940Y152060D02*
X502000Y137000D01*
X617142Y186000D02*
X778387D01*
X589452Y213690D02*
X617142Y186000D01*
X778387D02*
X797150Y167237D01*
X553690Y263690D02*
X582000Y292000D01*
Y297000D01*
X540690Y263690D02*
X553690D01*
X488950Y185950D02*
X491940Y182959D01*
Y164940D02*
Y182959D01*
X221625Y383380D02*
X222348Y382658D01*
X215822Y395880D02*
X223070D01*
X205750Y405952D02*
X215822Y395880D01*
X231243D02*
X233000Y394123D01*
X223070Y395880D02*
X231243D01*
X201750Y414000D02*
X205750Y410000D01*
Y405952D02*
Y410000D01*
X233000Y367000D02*
Y394123D01*
X491940Y153060D02*
Y164940D01*
X500071Y42000D02*
X521000Y62929D01*
X395000Y42000D02*
X500071D01*
X386000Y33000D02*
X395000Y42000D01*
X386000Y19000D02*
Y33000D01*
X214620Y383380D02*
X221625D01*
X202000Y389000D02*
X209000D01*
X214620Y383380D01*
X222348Y367500D02*
Y382658D01*
X486940Y164940D02*
Y178060D01*
X498000Y47000D02*
X516000Y65000D01*
X486940Y152060D02*
Y164940D01*
X388670Y47000D02*
X498000D01*
X360670Y19000D02*
X388670Y47000D01*
X484000Y181000D02*
X486940Y178060D01*
X208000Y337000D02*
X296310Y248690D01*
X143000Y384000D02*
X190000Y337000D01*
X208000D01*
X370000Y144000D02*
X427000D01*
X349000Y123000D02*
X370000Y144000D01*
X302000Y148000D02*
X327000Y123000D01*
X349000D01*
X348750Y131750D02*
Y149000D01*
X427000Y144000D02*
X431940Y148940D01*
Y164940D01*
X450000Y139000D02*
X474000D01*
X481500Y131500D01*
X395000Y137000D02*
X428000D01*
X437000Y146000D01*
X436940Y157690D02*
Y164940D01*
Y157690D02*
X437000Y157630D01*
Y146000D02*
Y157630D01*
X441940Y147060D02*
Y164940D01*
Y147060D02*
X450000Y139000D01*
X386500Y128500D02*
X395000Y137000D01*
X233851Y140000D02*
X234957Y141107D01*
X155000Y140000D02*
X233851D01*
X234000Y135000D02*
X235000Y134000D01*
X155000Y135000D02*
X234000D01*
X146000Y149000D02*
X155000Y140000D01*
X45000Y149000D02*
X146000D01*
X426940Y152940D02*
Y164940D01*
X423000Y149000D02*
X426940Y152940D01*
X348750Y149000D02*
X423000D01*
X437000Y196000D02*
X509630D01*
X421940Y180940D02*
X437000Y196000D01*
X509630D02*
X544490Y161140D01*
X463839Y188000D02*
X471940Y179900D01*
X29000Y133000D02*
X45000Y149000D01*
X471940Y164940D02*
Y179900D01*
X102000Y82000D02*
X155000Y135000D01*
X465183Y181000D02*
X466940Y179243D01*
Y164940D02*
Y179243D01*
X460000Y188000D02*
X463839D01*
X460000Y181000D02*
X465183D01*
X521690Y238690D02*
X540690D01*
X401940Y339940D02*
X409060D01*
X411940Y337060D01*
Y322440D02*
Y337060D01*
X406940Y303060D02*
Y322440D01*
X401940D02*
Y339940D01*
X350000Y287000D02*
X358750Y278250D01*
Y267000D02*
Y278250D01*
X321000Y331000D02*
X368310Y283690D01*
X383190D01*
X280000Y331000D02*
X321000D01*
X370000Y262933D02*
X374243Y258690D01*
X358750Y267000D02*
X365960D01*
X370000Y262933D02*
Y262960D01*
X374243Y258690D02*
X383190D01*
X365960Y267000D02*
X370000Y262960D01*
X330000Y266000D02*
X342310Y253690D01*
X383190D01*
X330000Y266000D02*
Y288000D01*
X258263Y420880D02*
X266740D01*
X247070D02*
X248070Y419880D01*
X253517D01*
X253717Y419680D01*
X257063D01*
X258263Y420880D01*
X70000Y479000D02*
X86000Y463000D01*
X124071D02*
X143000Y444071D01*
X86000Y463000D02*
X124071D01*
X278000Y348000D02*
X324000D01*
X267040Y358960D02*
X278000Y348000D01*
X324000D02*
X335000Y359000D01*
X765000Y46000D02*
Y152213D01*
X718000Y32000D02*
X751000D01*
X765000Y46000D01*
X696670Y36000D02*
X749000D01*
X761000Y48000D02*
Y149142D01*
X749000Y36000D02*
X761000Y48000D01*
X704000Y18000D02*
X718000Y32000D01*
X678670Y18000D02*
X696670Y36000D01*
X745213Y172000D02*
X765000Y152213D01*
X705000Y53000D02*
X707330D01*
X734794Y80464D01*
X679670Y53000D02*
X682000D01*
X713465Y84465D01*
X744464D02*
X753000Y93000D01*
X713465Y84465D02*
X744464D01*
X734794Y80464D02*
X747536D01*
X540690Y183690D02*
X582683D01*
X742142Y168000D02*
X761000Y149142D01*
X747536Y80464D02*
X757000Y89929D01*
Y146071D01*
X739071Y164000D02*
X757000Y146071D01*
X753000Y93000D02*
Y143000D01*
X611343Y172000D02*
X745213D01*
X609686Y168000D02*
X742142D01*
X608029Y164000D02*
X739071D01*
X736000Y160000D02*
X753000Y143000D01*
X606373Y160000D02*
X736000D01*
X582683Y183690D02*
X606373Y160000D01*
X583340Y188690D02*
X608029Y164000D01*
X540690Y188690D02*
X583340D01*
X583996Y193690D02*
X609686Y168000D01*
X540690Y193690D02*
X583996D01*
X584653Y198690D02*
X611343Y172000D01*
X540690Y198690D02*
X584653D01*
X575250Y244250D02*
X593000Y262000D01*
X575250Y242000D02*
Y244250D01*
X627000Y217000D02*
Y233960D01*
X335000Y375500D02*
X370500D01*
X335000Y359000D02*
Y375500D01*
X267040Y358960D02*
Y372920D01*
X243570Y408380D02*
X247070D01*
Y375070D02*
Y383380D01*
Y395880D02*
X265870D01*
X267040Y397050D01*
X394000Y358000D02*
X395000Y359000D01*
X370929Y358000D02*
X394000D01*
X394000Y353000D02*
X395000Y352000D01*
X373000Y353000D02*
X394000D01*
X617000Y320000D02*
X637000D01*
X555690Y258690D02*
X617000Y320000D01*
X672000Y296000D02*
X679000Y289000D01*
Y251000D02*
Y289000D01*
X615000Y305000D02*
X758071D01*
X772000Y318929D01*
X553690Y243690D02*
X615000Y305000D01*
X768000Y322000D02*
Y403000D01*
X756000Y310000D02*
X768000Y322000D01*
X614000Y310000D02*
X756000D01*
X552690Y248690D02*
X614000Y310000D01*
X772000Y318929D02*
Y400986D01*
X670420Y242420D02*
X679000Y251000D01*
X656250Y242420D02*
X670420D01*
X656250Y255120D02*
X668120D01*
X673000Y260000D02*
Y279000D01*
X668120Y255120D02*
X673000Y260000D01*
X620000Y297000D02*
X655000D01*
X673000Y279000D01*
X540690Y258690D02*
X555690D01*
X540690Y243690D02*
X553690D01*
X540690Y248690D02*
X552690D01*
X544490Y142870D02*
Y161140D01*
X421940Y164940D02*
Y180940D01*
X794350Y482350D02*
X814810D01*
X794150Y336623D02*
X814610D01*
X794150Y217567D02*
X814610D01*
X794150Y98510D02*
X814610D01*
X469570Y351320D02*
X485340D01*
X794150Y141767D02*
X814610D01*
X748657Y181000D02*
X777000Y152657D01*
Y94000D02*
X797490Y73510D01*
X777000Y94000D02*
Y152657D01*
X748000Y176000D02*
X771000Y153000D01*
Y74000D02*
X796820Y48180D01*
X771000Y74000D02*
Y153000D01*
X794150Y22710D02*
X814610D01*
X794150Y260823D02*
X814610D01*
X706709Y114709D02*
X720000Y128000D01*
X689130Y114709D02*
X706709D01*
X794350Y382350D02*
X814810D01*
X662000Y81000D02*
Y91870D01*
X664620Y94490D01*
X662380Y96730D02*
X664620Y94490D01*
X571380Y80620D02*
Y96730D01*
X582000Y349000D02*
X598472D01*
X598522Y348950D01*
X630018D02*
X647780D01*
X103000Y247000D02*
Y260000D01*
X156310Y193690D02*
X383190D01*
X103000Y247000D02*
X156310Y193690D01*
X53887Y285400D02*
X150597Y188690D01*
X30140Y285400D02*
X53887D01*
X150597Y188690D02*
X383190D01*
X103000Y183060D02*
X103630Y183690D01*
X383190D01*
X365653Y293690D02*
X383190D01*
X356000Y303343D02*
Y343071D01*
X370929Y358000D01*
X356000Y303343D02*
X365653Y293690D01*
X671029Y442622D02*
Y449971D01*
X667000Y454000D02*
X671029Y449971D01*
X626000Y454000D02*
X667000D01*
X616530Y444530D02*
X626000Y454000D01*
X616530Y417000D02*
Y444530D01*
X574495Y374964D02*
X616530Y417000D01*
X546000Y374964D02*
X574495D01*
X361000Y341000D02*
X373000Y353000D01*
X366310Y298690D02*
X383190D01*
X361000Y304000D02*
Y341000D01*
Y304000D02*
X366310Y298690D01*
X546000Y367965D02*
X592965D01*
X678230Y348000D02*
X694000D01*
X677280Y348950D02*
X678230Y348000D01*
X645670Y519620D02*
X671270D01*
Y511730D02*
X692330Y490670D01*
Y417000D02*
Y490670D01*
X671270Y511730D02*
Y519620D01*
X513790Y350370D02*
X532750D01*
X627040Y261250D02*
Y280210D01*
X302000Y148000D02*
X320250D01*
X321250Y149000D01*
X321250Y149000D01*
X247070Y383380D02*
X258830D01*
X267040Y375170D01*
Y372920D02*
Y375170D01*
X266740Y420880D02*
X267040Y421180D01*
X645250Y267820D02*
X656250D01*
X638680Y261250D02*
X645250Y267820D01*
X627040Y261250D02*
X638680D01*
X612250D02*
X627040D01*
X602750Y251750D02*
X612250Y261250D01*
X602750Y242000D02*
Y251750D01*
X627000Y233960D02*
X640775D01*
X645015Y229720D02*
X656250D01*
X640775Y233960D02*
X645015Y229720D01*
X565000Y242000D02*
X575250D01*
X556690Y233690D02*
X565000Y242000D01*
X540690Y233690D02*
X556690D01*
X544490Y97510D02*
Y113370D01*
X143000Y384000D02*
Y444071D01*
X138000Y379000D02*
Y442000D01*
X103000Y400000D02*
Y413209D01*
X296310Y248690D02*
X383190D01*
X386500Y117960D02*
Y128500D01*
X671029Y489879D02*
X671270Y490120D01*
X671029Y474118D02*
Y489879D01*
X645670Y474359D02*
Y490120D01*
Y474359D02*
X645911Y474118D01*
X294239Y243690D02*
X383190D01*
X45000Y480000D02*
X67000Y458000D01*
X122000D01*
X70000Y479000D02*
Y480000D01*
X122000Y458000D02*
X138000Y442000D01*
X292310Y228690D02*
X383190D01*
X288168Y218690D02*
X383190D01*
X290239Y223690D02*
X383190D01*
X797150Y311623D02*
X814610D01*
X778364Y286293D02*
X814610D01*
X767000Y248000D02*
Y281473D01*
X771000Y244929D02*
Y278929D01*
X722638Y196567D02*
X771000Y244929D01*
Y278929D02*
X778364Y286293D01*
X767000Y281473D02*
X797150Y311623D01*
X719567Y200567D02*
X767000Y248000D01*
X623504Y200567D02*
X719567D01*
X595381Y228690D02*
X623504Y200567D01*
X620433Y196567D02*
X722638D01*
X540690Y228690D02*
X595381D01*
X593310Y223690D02*
X620433Y196567D01*
X540690Y223690D02*
X593310D01*
X813460Y431000D02*
X814810Y432350D01*
X796000Y431000D02*
X813460D01*
X772000Y400986D02*
X778363Y407350D01*
X814810D01*
X768000Y403000D02*
X796000Y431000D01*
X796820Y48180D02*
X814610D01*
X797490Y73510D02*
X814610D01*
X540690Y218690D02*
X591523D01*
X797150Y167237D02*
X814610D01*
X540690Y213690D02*
X589452D01*
X617647Y192567D02*
X814610D01*
X591523Y218690D02*
X617647Y192567D01*
X613000Y176000D02*
X748000D01*
X585310Y203690D02*
X613000Y176000D01*
X615071Y181000D02*
X748657D01*
X587381Y208690D02*
X615071Y181000D01*
X540690Y208690D02*
X587381D01*
X540690Y203690D02*
X585310D01*
X521470Y50671D02*
X530000Y59201D01*
X521470Y19000D02*
Y50671D01*
X496000Y19000D02*
Y32272D01*
X530000Y59201D02*
Y142000D01*
X523000Y149000D02*
X530000Y142000D01*
X501940Y155060D02*
Y164940D01*
X508000Y149000D02*
X523000D01*
X501940Y155060D02*
X508000Y149000D01*
X521000Y145000D02*
X525000Y141000D01*
X506000Y145000D02*
X521000D01*
X525000Y61272D02*
Y141000D01*
X496940Y154060D02*
Y164940D01*
Y154060D02*
X506000Y145000D01*
X496000Y32272D02*
X525000Y61272D01*
X421940Y322440D02*
Y390091D01*
X436940Y322440D02*
Y344940D01*
X431940Y322440D02*
Y364940D01*
X426940Y322440D02*
Y384940D01*
X436940Y344940D02*
X491000Y399000D01*
X431940Y364940D02*
X466000Y399000D01*
X426940Y384940D02*
X441000Y399000D01*
X416000Y396031D02*
Y399000D01*
Y396031D02*
X421940Y390091D01*
X391000Y399000D02*
X416940Y373060D01*
Y322440D02*
Y373060D01*
X275310Y213690D02*
X383190D01*
X267000Y222000D02*
X275310Y213690D01*
X270410Y208690D02*
X383190D01*
X262050Y217050D02*
X270410Y208690D01*
X265511Y203690D02*
X383190D01*
X257101Y212101D02*
X265511Y203690D01*
X260611Y198690D02*
X383190D01*
X252151Y207151D02*
X260611Y198690D01*
X50540Y208460D02*
X94060Y164940D01*
X30140Y208460D02*
X50540D01*
X125000Y176000D02*
X398130D01*
X113940Y164940D02*
X125000Y176000D01*
X398130D02*
X401940Y172190D01*
X94060Y164940D02*
X113940D01*
X401940D02*
Y172190D01*
X30140Y438609D02*
X53887D01*
X501940Y322440D02*
Y336270D01*
X513790Y348120D01*
Y350370D01*
X496940Y322440D02*
Y337470D01*
X486290Y348120D02*
X496940Y337470D01*
X486290Y348120D02*
Y350370D01*
D66*
X571380Y142300D02*
X596000D01*
X573440Y46440D02*
X596000Y69000D01*
Y142300D01*
X545060D02*
X571380D01*
X596000D02*
X661810D01*
X554650Y46440D02*
X573440D01*
X391150Y528750D02*
X426000D01*
X371400Y509000D02*
X391150Y528750D01*
X371400Y509000D02*
X387000Y493400D01*
Y464000D02*
Y493400D01*
X662140Y141970D02*
X688890D01*
X689130Y142209D01*
X661810Y142300D02*
X662140Y141970D01*
X544490Y142870D02*
X545060Y142300D01*
X408380Y77320D02*
X458350D01*
X459620Y78590D01*
X20000Y480000D02*
X20285Y479715D01*
D67*
X261000Y34000D02*
D03*
X236000D02*
D03*
X211000D02*
D03*
X186000D02*
D03*
X286000D02*
D03*
X814810Y382350D02*
D03*
Y407350D02*
D03*
Y432350D02*
D03*
Y457350D02*
D03*
X711000Y524000D02*
D03*
X736000D02*
D03*
X761000D02*
D03*
X786000D02*
D03*
X103000Y438209D02*
D03*
X30140Y413609D02*
D03*
X103000Y362000D02*
D03*
X30140Y337400D02*
D03*
X103000Y285000D02*
D03*
X30140Y260400D02*
D03*
X103000Y208060D02*
D03*
X30140Y183460D02*
D03*
X29000Y108000D02*
D03*
Y83000D02*
D03*
X102000Y107000D02*
D03*
Y132000D02*
D03*
X120000Y480000D02*
D03*
X95000D02*
D03*
X70000D02*
D03*
X45000D02*
D03*
X416000Y399000D02*
D03*
X441000D02*
D03*
X466000D02*
D03*
X491000D02*
D03*
D68*
X161000Y34000D02*
D03*
X811000Y524000D02*
D03*
X20000Y480000D02*
D03*
X391000Y399000D02*
D03*
D69*
X335670Y19000D02*
D03*
X445670D02*
D03*
X730000Y53000D02*
D03*
X729000Y18000D02*
D03*
X692330Y417000D02*
D03*
D70*
X360670Y19000D02*
D03*
X386000D02*
D03*
X411470D02*
D03*
X470670D02*
D03*
X496000D02*
D03*
X521470D02*
D03*
X554650Y46440D02*
D03*
X705000Y53000D02*
D03*
X679670D02*
D03*
X654200D02*
D03*
X704000Y18000D02*
D03*
X678670D02*
D03*
X653200D02*
D03*
X814610Y73510D02*
D03*
Y48180D02*
D03*
Y22710D02*
D03*
Y192567D02*
D03*
Y167237D02*
D03*
Y141767D02*
D03*
Y311623D02*
D03*
Y286293D02*
D03*
Y260823D02*
D03*
X667330Y417000D02*
D03*
X642000D02*
D03*
X616530D02*
D03*
D71*
X554650Y21440D02*
D03*
X814610Y98510D02*
D03*
Y217567D02*
D03*
Y336623D02*
D03*
D72*
X814810Y482350D02*
D03*
X103000Y413209D02*
D03*
X30140Y438609D02*
D03*
X103000Y337000D02*
D03*
X30140Y362400D02*
D03*
X103000Y260000D02*
D03*
X30140Y285400D02*
D03*
X103000Y183060D02*
D03*
X30140Y208460D02*
D03*
X29000Y133000D02*
D03*
X102000Y82000D02*
D03*
D73*
X320600Y509000D02*
D03*
D74*
X346000D02*
D03*
X371400D02*
D03*
D75*
X171910Y507850D02*
D03*
X221910D02*
D03*
D76*
X25060Y517790D02*
D03*
X605060D02*
D03*
X25060Y27790D02*
D03*
X605060D02*
D03*
D77*
X169000Y375000D02*
D03*
X181000D02*
D03*
X167000Y48000D02*
D03*
X244371Y434629D02*
D03*
X234957Y141107D02*
D03*
X488950Y185950D02*
D03*
X484000Y181000D02*
D03*
X620000Y297000D02*
D03*
X637000Y320000D02*
D03*
X694000Y348000D02*
D03*
X794350Y482350D02*
D03*
Y382350D02*
D03*
X521000Y442000D02*
D03*
Y504000D02*
D03*
X443010Y485876D02*
D03*
X394000Y522000D02*
D03*
X348750Y131750D02*
D03*
X235000Y134000D02*
D03*
X460000Y188000D02*
D03*
Y181000D02*
D03*
X521690Y238690D02*
D03*
X406940Y303060D02*
D03*
X401940Y339940D02*
D03*
X350000Y287000D02*
D03*
X280000Y331000D02*
D03*
X330000Y288000D02*
D03*
X593000Y262000D02*
D03*
X627000Y217000D02*
D03*
X370500Y375500D02*
D03*
X247070Y375070D02*
D03*
X443010Y498876D02*
D03*
Y511875D02*
D03*
Y472876D02*
D03*
X395000Y359000D02*
D03*
Y352000D02*
D03*
X582000Y297000D02*
D03*
X672000Y296000D02*
D03*
X67000Y443000D02*
D03*
Y406000D02*
D03*
Y387000D02*
D03*
Y368000D02*
D03*
Y348000D02*
D03*
Y311000D02*
D03*
Y291000D02*
D03*
Y259000D02*
D03*
Y238000D02*
D03*
Y218000D02*
D03*
Y178000D02*
D03*
Y160000D02*
D03*
Y135000D02*
D03*
Y116000D02*
D03*
Y97000D02*
D03*
Y78000D02*
D03*
Y59000D02*
D03*
X533667Y431000D02*
D03*
X546333D02*
D03*
X521000Y453000D02*
D03*
Y431000D02*
D03*
X559000D02*
D03*
X301000Y522500D02*
D03*
X236000D02*
D03*
X394000Y509000D02*
D03*
Y496000D02*
D03*
X288000Y513000D02*
D03*
Y522500D02*
D03*
Y532000D02*
D03*
X250000D02*
D03*
Y522500D02*
D03*
Y513000D02*
D03*
X182882Y435517D02*
D03*
X165000D02*
D03*
X146000Y45000D02*
D03*
X160000Y19000D02*
D03*
X146000Y24000D02*
D03*
Y34500D02*
D03*
X300000Y451000D02*
D03*
X264000Y477000D02*
D03*
Y464000D02*
D03*
X274000Y451000D02*
D03*
X287000D02*
D03*
X407000Y426000D02*
D03*
X433000D02*
D03*
X420000D02*
D03*
X521000Y530000D02*
D03*
Y491000D02*
D03*
Y517000D02*
D03*
X794150Y336623D02*
D03*
Y217567D02*
D03*
Y98510D02*
D03*
X469570Y351320D02*
D03*
X794150Y141767D02*
D03*
Y22710D02*
D03*
Y260823D02*
D03*
X720000Y128000D02*
D03*
X662000Y81000D02*
D03*
X571380Y80620D02*
D03*
X582000Y349000D02*
D03*
X252151Y207151D02*
D03*
X546000Y374964D02*
D03*
Y367965D02*
D03*
X532750Y350370D02*
D03*
X627040Y280210D02*
D03*
X302000Y148000D02*
D03*
X433365Y77320D02*
D03*
X544490Y97510D02*
D03*
X267000Y222000D02*
D03*
X257101Y212101D02*
D03*
X262050Y217050D02*
D03*
D78*
X233000Y367000D02*
D03*
X222348Y367500D02*
D03*
M02*
