G04*
G04 #@! TF.GenerationSoftware,Altium Limited,Altium Designer,20.0.13 (296)*
G04*
G04 Layer_Color=8421504*
%FSLAX44Y44*%
%MOMM*%
G71*
G01*
G75*
%ADD19R,1.3500X1.8000*%
%ADD20O,1.7500X0.3000*%
%ADD21O,0.3000X1.7500*%
%ADD22R,2.3100X2.5200*%
%ADD23R,1.6000X2.8000*%
%ADD24R,1.2000X0.5000*%
%ADD25R,1.1000X1.7500*%
%ADD26R,5.5000X2.0000*%
%ADD27R,1.7500X1.1000*%
%ADD28R,2.1000X1.4000*%
%ADD29R,1.8000X1.3500*%
%ADD30R,0.9652X1.7018*%
%ADD31R,1.7018X0.9652*%
%ADD32R,2.5200X2.3100*%
G04:AMPARAMS|DCode=33|XSize=0.98mm|YSize=2.4mm|CornerRadius=0.245mm|HoleSize=0mm|Usage=FLASHONLY|Rotation=0.000|XOffset=0mm|YOffset=0mm|HoleType=Round|Shape=RoundedRectangle|*
%AMROUNDEDRECTD33*
21,1,0.9800,1.9100,0,0,0.0*
21,1,0.4900,2.4000,0,0,0.0*
1,1,0.4900,0.2450,-0.9550*
1,1,0.4900,-0.2450,-0.9550*
1,1,0.4900,-0.2450,0.9550*
1,1,0.4900,0.2450,0.9550*
%
%ADD33ROUNDEDRECTD33*%
%ADD34R,1.8200X1.1600*%
%ADD35R,1.8000X0.8000*%
G36*
X475900Y497900D02*
Y478700D01*
X458600D01*
Y497900D01*
X475900D01*
D02*
G37*
G36*
X503800D02*
Y478700D01*
X486500D01*
Y497900D01*
X503800D01*
D02*
G37*
G36*
X475900Y527700D02*
Y508500D01*
X458600D01*
Y527700D01*
X475900D01*
D02*
G37*
G36*
X503800D02*
Y508500D01*
X486500D01*
Y527700D01*
X503800D01*
D02*
G37*
D19*
X513790Y350370D02*
D03*
X486290D02*
D03*
X358750Y267000D02*
D03*
X331250D02*
D03*
X267040Y372920D02*
D03*
X294540D02*
D03*
X294540Y397050D02*
D03*
X267040D02*
D03*
X267040Y421180D02*
D03*
X294540D02*
D03*
X348750Y149000D02*
D03*
X321250D02*
D03*
X459620Y77320D02*
D03*
X487120D02*
D03*
X408380D02*
D03*
X380880D02*
D03*
X602750Y242000D02*
D03*
X575250D02*
D03*
D20*
X383190Y303690D02*
D03*
Y298690D02*
D03*
Y293690D02*
D03*
Y288690D02*
D03*
Y283690D02*
D03*
Y278690D02*
D03*
Y273690D02*
D03*
Y268690D02*
D03*
Y263690D02*
D03*
Y258690D02*
D03*
Y253690D02*
D03*
Y248690D02*
D03*
Y243690D02*
D03*
Y238690D02*
D03*
Y233690D02*
D03*
Y228690D02*
D03*
Y223690D02*
D03*
Y218690D02*
D03*
Y213690D02*
D03*
Y208690D02*
D03*
Y203690D02*
D03*
Y198690D02*
D03*
Y193690D02*
D03*
Y188690D02*
D03*
Y183690D02*
D03*
X540690D02*
D03*
Y188690D02*
D03*
Y193690D02*
D03*
Y198690D02*
D03*
Y203690D02*
D03*
Y208690D02*
D03*
Y213690D02*
D03*
Y218690D02*
D03*
Y223690D02*
D03*
Y228690D02*
D03*
Y233690D02*
D03*
Y238690D02*
D03*
Y243690D02*
D03*
Y248690D02*
D03*
Y253690D02*
D03*
Y258690D02*
D03*
Y263690D02*
D03*
Y268690D02*
D03*
Y273690D02*
D03*
Y278690D02*
D03*
Y283690D02*
D03*
Y288690D02*
D03*
Y293690D02*
D03*
Y298690D02*
D03*
Y303690D02*
D03*
D21*
X401940Y164940D02*
D03*
X406940D02*
D03*
X411940D02*
D03*
X416940D02*
D03*
X421940D02*
D03*
X426940D02*
D03*
X431940D02*
D03*
X436940D02*
D03*
X441940D02*
D03*
X446940D02*
D03*
X451940D02*
D03*
X456940D02*
D03*
X461940D02*
D03*
X466940D02*
D03*
X471940D02*
D03*
X476940D02*
D03*
X481940D02*
D03*
X486940D02*
D03*
X491940D02*
D03*
X496940D02*
D03*
X501940D02*
D03*
X506940D02*
D03*
X511940D02*
D03*
X516940D02*
D03*
X521940D02*
D03*
Y322440D02*
D03*
X516940D02*
D03*
X511940D02*
D03*
X506940D02*
D03*
X501940D02*
D03*
X496940D02*
D03*
X491940D02*
D03*
X486940D02*
D03*
X481940D02*
D03*
X476940D02*
D03*
X471940D02*
D03*
X466940D02*
D03*
X461940D02*
D03*
X456940D02*
D03*
X451940D02*
D03*
X446940D02*
D03*
X441940D02*
D03*
X436940D02*
D03*
X431940D02*
D03*
X426940D02*
D03*
X421940D02*
D03*
X416940D02*
D03*
X411940D02*
D03*
X406940D02*
D03*
X401940D02*
D03*
D22*
X325000Y464000D02*
D03*
X387000D02*
D03*
D23*
X335000Y375500D02*
D03*
Y418500D02*
D03*
D24*
X223070Y420880D02*
D03*
Y408380D02*
D03*
Y395880D02*
D03*
Y383380D02*
D03*
X247070Y420880D02*
D03*
Y408380D02*
D03*
Y395880D02*
D03*
Y383380D02*
D03*
D25*
X172500Y389000D02*
D03*
X202000D02*
D03*
X172250Y414000D02*
D03*
X201750D02*
D03*
X647780Y348950D02*
D03*
X677280D02*
D03*
D26*
X481500Y117960D02*
D03*
X386500D02*
D03*
D27*
X544490Y142870D02*
D03*
Y113370D02*
D03*
X671270Y490120D02*
D03*
Y519620D02*
D03*
X645670Y490120D02*
D03*
Y519620D02*
D03*
D28*
X571380Y141730D02*
D03*
Y96730D02*
D03*
X662380Y141730D02*
D03*
Y96730D02*
D03*
D29*
X689130Y142209D02*
D03*
Y114709D02*
D03*
X627040Y233750D02*
D03*
Y261250D02*
D03*
D30*
X630018Y348950D02*
D03*
X598522D02*
D03*
D31*
X671029Y474118D02*
D03*
Y442622D02*
D03*
X645911Y474118D02*
D03*
Y442622D02*
D03*
D32*
X551000Y520000D02*
D03*
Y458000D02*
D03*
D33*
X504000Y437000D02*
D03*
X458400D02*
D03*
D34*
X426000Y528750D02*
D03*
Y499250D02*
D03*
X270818Y523750D02*
D03*
Y494250D02*
D03*
D35*
X656250Y255120D02*
D03*
Y242420D02*
D03*
Y267820D02*
D03*
Y229720D02*
D03*
X704050Y255120D02*
D03*
Y242420D02*
D03*
Y267820D02*
D03*
Y229720D02*
D03*
M02*
