M48
;Layer_Color=9474304
;FILE_FORMAT=4:4
METRIC,LZ
;TYPE=PLATED
T1F00S00C0.2000
T2F00S00C0.3000
T3F00S00C1.0000
T4F00S00C1.0200
T5F00S00C1.2000
T6F00S00C1.2700
T7F00S00C2.5000
%
T01
X00222348Y003675
X00233Y00367
T02
X0054449Y0009751
X0057138Y0008062
X00662Y00081
X0072Y00128
X0079415Y00141767
Y0009851
Y0002271
Y00217567
Y00260823
Y00336623
X00672Y00296
X0062Y00297
X0062704Y0028021
X00637Y0032
X00582Y00297
X00593Y00262
X00627Y00217
X0052169Y0023869
X0048895Y0018595
X00484Y00181
X0046
Y00188
X00433365Y0007732
X0034875Y0013175
X00302Y00148
X00234957Y00141107
X00235Y00134
X00252151Y00207151
X00257101Y00212101
X0026205Y0021705
X00267Y00222
X0028Y00331
X0033Y00288
X0035Y00287
X0040694Y0030306
X0040194Y0033994
X00167Y00048
X00146Y00045
Y000345
Y00024
X0016Y00019
X00067Y00059
Y00078
Y00097
Y00116
Y00135
Y0016
Y00178
Y00218
Y00238
Y00259
Y00291
Y00311
Y00348
Y00368
Y00387
Y00406
Y00443
X00165Y00435517
X00182882
X00244371Y00434629
X00274Y00451
X00287
X003
X00264Y00464
Y00477
X0025Y00513
Y005225
Y00532
X00236Y005225
X00288
Y00513
Y00532
X00301Y005225
X00394Y00522
Y00509
Y00496
X0044301Y00498876
Y00485876
Y00472876
Y00511875
X00433Y00426
X0042
X00407
X003705Y003755
X0046957Y0035132
X0024707Y0037507
X00181Y00375
X00169
X00546Y00374964
Y00367965
X0053275Y0035037
X00582Y00349
X00559Y00431
X00546333
X00533667
X00521
Y00442
Y00453
Y00491
Y00504
Y00517
Y0053
X0079435Y0048235
Y0038235
X00694Y00348
T03
X0017191Y0050785
X0022191
T04
X00496Y00019
X0052147
X0055465Y0002144
Y0004644
X006542Y00053
X0067967
X00705
X0073
X00729Y00018
X00704
X0067867
X006532
X0081461Y0002271
Y0004818
Y0007351
Y0009851
Y00141767
Y00167237
Y00192567
Y00217567
Y00260823
Y00286293
Y00311623
Y00336623
X0047067Y00019
X0044567
X0041147
X00386
X0036067
X0033567
X0061653Y00417
X00642
X0066733
X0069233
T05
X00102Y00082
Y00107
Y00132
X00103Y0018306
Y0020806
Y0026
Y00285
Y00337
X00161Y00034
X00186
X00211
X00236
X00261
X00286
X00029Y00083
Y00108
Y00133
X0003014Y0018346
Y0020846
Y002604
Y002854
Y003374
Y003624
Y00413609
Y00438609
X0002Y0048
X00045
X0007
X00095
X0012
X00103Y00438209
Y00413209
Y00362
X00391Y00399
X00416
X00441
X00466
X00491
X0081481Y0040735
Y0038235
Y0043235
Y0045735
Y0048235
X00811Y00524
X00786
X00761
X00736
X00711
T06
X003206Y00509
X00346
X003714
T07
X0060506Y0002779
X0002506
Y0051779
X0060506
M30
