G04*
G04 #@! TF.GenerationSoftware,Altium Limited,Altium Designer,20.0.13 (296)*
G04*
G04 Layer_Physical_Order=3*
G04 Layer_Color=128*
%FSLAX44Y44*%
%MOMM*%
G71*
G01*
G75*
%ADD11C,0.2000*%
%ADD79C,1.0160*%
%ADD80C,2.2160*%
G04:AMPARAMS|DCode=81|XSize=2.724mm|YSize=2.724mm|CornerRadius=0mm|HoleSize=0mm|Usage=FLASHONLY|Rotation=0.000|XOffset=0mm|YOffset=0mm|HoleType=Round|Shape=Relief|Width=0.254mm|Gap=0.254mm|Entries=4|*
%AMTHD81*
7,0,0,2.7240,2.2160,0.2540,45*
%
%ADD81THD81*%
%ADD82C,2.0360*%
G04:AMPARAMS|DCode=83|XSize=2.544mm|YSize=2.544mm|CornerRadius=0mm|HoleSize=0mm|Usage=FLASHONLY|Rotation=0.000|XOffset=0mm|YOffset=0mm|HoleType=Round|Shape=Relief|Width=0.254mm|Gap=0.254mm|Entries=4|*
%AMTHD83*
7,0,0,2.5440,2.0360,0.2540,45*
%
%ADD83THD83*%
%ADD84C,2.2860*%
G04:AMPARAMS|DCode=85|XSize=2.794mm|YSize=2.794mm|CornerRadius=0mm|HoleSize=0mm|Usage=FLASHONLY|Rotation=0.000|XOffset=0mm|YOffset=0mm|HoleType=Round|Shape=Relief|Width=0.254mm|Gap=0.254mm|Entries=4|*
%AMTHD85*
7,0,0,2.7940,2.2860,0.2540,45*
%
%ADD85THD85*%
G04:AMPARAMS|DCode=86|XSize=2.524mm|YSize=2.524mm|CornerRadius=0mm|HoleSize=0mm|Usage=FLASHONLY|Rotation=0.000|XOffset=0mm|YOffset=0mm|HoleType=Round|Shape=Relief|Width=0.254mm|Gap=0.254mm|Entries=4|*
%AMTHD86*
7,0,0,2.5240,2.0160,0.2540,45*
%
%ADD86THD86*%
%ADD87C,2.0160*%
%ADD88C,3.5160*%
%ADD89C,1.3160*%
%ADD90C,1.2160*%
G04:AMPARAMS|DCode=91|XSize=1.824mm|YSize=1.824mm|CornerRadius=0mm|HoleSize=0mm|Usage=FLASHONLY|Rotation=0.000|XOffset=0mm|YOffset=0mm|HoleType=Round|Shape=Relief|Width=0.254mm|Gap=0.254mm|Entries=4|*
%AMTHD91*
7,0,0,1.8240,1.3160,0.2540,45*
%
%ADD91THD91*%
D11*
X156000Y378000D02*
Y439000D01*
X161000Y444000D01*
X185000D01*
X165000Y369000D02*
X182000D01*
X156000Y378000D02*
X165000Y369000D01*
X185000Y444000D02*
X191026Y437974D01*
Y378026D02*
Y437974D01*
X182000Y369000D02*
X191026Y378026D01*
X175299Y18299D02*
Y46701D01*
X168000Y54000D02*
X175299Y46701D01*
X145000Y54000D02*
X168000D01*
X139000Y48000D02*
X145000Y54000D01*
X139000Y19000D02*
Y48000D01*
Y19000D02*
X145000Y13000D01*
X170000D01*
X175299Y18299D01*
X318776Y540000D02*
X334113Y524663D01*
X222000Y540000D02*
X318776D01*
X203812Y521812D02*
X222000Y540000D01*
X203812Y496188D02*
Y521812D01*
Y496188D02*
X211000Y489000D01*
X226000D01*
X241000Y504000D01*
X291000D01*
X306000Y489000D01*
X326000D01*
X334113Y497113D01*
Y524663D01*
X486000Y446500D02*
X493500Y454000D01*
X506000D01*
X531000Y479000D01*
X566000D01*
X576000Y469000D01*
Y432000D02*
Y469000D01*
X563000Y419000D02*
X576000Y432000D01*
X492442Y419000D02*
X563000D01*
X486000Y425442D02*
X492442Y419000D01*
X486000Y425442D02*
Y446500D01*
D79*
X-5217Y10076D02*
G03*
X7483Y-2624I12700J0D01*
G01*
X41797D02*
G03*
X41818Y-2603I0J21D01*
G01*
X831897D02*
G03*
X844597Y10097I0J12700D01*
G01*
Y535399D02*
G03*
X831897Y548099I-12700J0D01*
G01*
X7483D02*
G03*
X-5217Y535399I0J-12700D01*
G01*
Y10076D02*
Y535399D01*
X7483Y548099D02*
X831897D01*
X844597Y10097D02*
Y535399D01*
X41818Y-2603D02*
X831897D01*
X7483Y-2624D02*
X41797D01*
D80*
X261000Y34000D02*
D03*
X236000D02*
D03*
X211000D02*
D03*
X186000D02*
D03*
X286000D02*
D03*
X814810Y382350D02*
D03*
Y407350D02*
D03*
Y432350D02*
D03*
Y457350D02*
D03*
X711000Y524000D02*
D03*
X736000D02*
D03*
X761000D02*
D03*
X786000D02*
D03*
X811000D02*
D03*
X103000Y413209D02*
D03*
Y438209D02*
D03*
X30140Y438609D02*
D03*
Y413609D02*
D03*
X103000Y337000D02*
D03*
Y362000D02*
D03*
X30140Y362400D02*
D03*
Y337400D02*
D03*
X103000Y260000D02*
D03*
Y285000D02*
D03*
X30140Y285400D02*
D03*
Y260400D02*
D03*
X103000Y183060D02*
D03*
Y208060D02*
D03*
X30140Y208460D02*
D03*
Y183460D02*
D03*
X29000Y133000D02*
D03*
Y83000D02*
D03*
X102000Y82000D02*
D03*
Y132000D02*
D03*
X120000Y480000D02*
D03*
X95000D02*
D03*
X70000D02*
D03*
X45000D02*
D03*
X391000Y399000D02*
D03*
X416000D02*
D03*
X441000D02*
D03*
X466000D02*
D03*
X491000D02*
D03*
D81*
X161000Y34000D02*
D03*
X814810Y482350D02*
D03*
X29000Y108000D02*
D03*
X102000Y107000D02*
D03*
X20000Y480000D02*
D03*
D82*
X360670Y19000D02*
D03*
X386000D02*
D03*
X411470D02*
D03*
X470670D02*
D03*
X496000D02*
D03*
X521470D02*
D03*
X554650Y46440D02*
D03*
X705000Y53000D02*
D03*
X679670D02*
D03*
X654200D02*
D03*
X704000Y18000D02*
D03*
X678670D02*
D03*
X653200D02*
D03*
X814610Y73510D02*
D03*
Y48180D02*
D03*
Y22710D02*
D03*
Y192567D02*
D03*
Y167237D02*
D03*
Y141767D02*
D03*
Y311623D02*
D03*
Y286293D02*
D03*
Y260823D02*
D03*
X667330Y417000D02*
D03*
X642000D02*
D03*
X616530D02*
D03*
D83*
X335670Y19000D02*
D03*
X445670D02*
D03*
X554650Y21440D02*
D03*
X730000Y53000D02*
D03*
X729000Y18000D02*
D03*
X814610Y98510D02*
D03*
Y217567D02*
D03*
Y336623D02*
D03*
X692330Y417000D02*
D03*
D84*
X346000Y509000D02*
D03*
D85*
X320600D02*
D03*
X371400D02*
D03*
D86*
X221910Y507850D02*
D03*
D87*
X171910D02*
D03*
D88*
X25060Y517790D02*
D03*
X605060D02*
D03*
X25060Y27790D02*
D03*
X605060D02*
D03*
D89*
X181000Y375000D02*
D03*
X167000Y48000D02*
D03*
X244371Y434629D02*
D03*
X234957Y141107D02*
D03*
X488950Y185950D02*
D03*
X484000Y181000D02*
D03*
X620000Y297000D02*
D03*
X637000Y320000D02*
D03*
X694000Y348000D02*
D03*
X794350Y382350D02*
D03*
X521000Y504000D02*
D03*
X443010Y485876D02*
D03*
X235000Y134000D02*
D03*
X460000Y188000D02*
D03*
Y181000D02*
D03*
X521690Y238690D02*
D03*
X406940Y303060D02*
D03*
X280000Y331000D02*
D03*
X330000Y288000D02*
D03*
X370500Y375500D02*
D03*
X247070Y375070D02*
D03*
X443010Y498876D02*
D03*
Y511875D02*
D03*
Y472876D02*
D03*
X395000Y359000D02*
D03*
D03*
Y352000D02*
D03*
D03*
X582000Y297000D02*
D03*
X672000Y296000D02*
D03*
X67000Y443000D02*
D03*
Y406000D02*
D03*
Y387000D02*
D03*
Y368000D02*
D03*
Y348000D02*
D03*
Y311000D02*
D03*
Y291000D02*
D03*
Y259000D02*
D03*
Y238000D02*
D03*
Y218000D02*
D03*
Y178000D02*
D03*
Y160000D02*
D03*
Y135000D02*
D03*
Y116000D02*
D03*
Y97000D02*
D03*
Y78000D02*
D03*
Y59000D02*
D03*
X300000Y451000D02*
D03*
X264000Y477000D02*
D03*
Y464000D02*
D03*
X274000Y451000D02*
D03*
X287000D02*
D03*
X521000Y530000D02*
D03*
Y491000D02*
D03*
Y517000D02*
D03*
X469570Y351320D02*
D03*
X794150Y141767D02*
D03*
Y22710D02*
D03*
Y260823D02*
D03*
X720000Y128000D02*
D03*
X662000Y81000D02*
D03*
X571380Y80620D02*
D03*
X252151Y207151D02*
D03*
X546000Y374964D02*
D03*
Y367965D02*
D03*
X627040Y280210D02*
D03*
X302000Y148000D02*
D03*
X433365Y77320D02*
D03*
X267000Y222000D02*
D03*
X257101Y212101D02*
D03*
X262050Y217050D02*
D03*
D90*
X233000Y367000D02*
D03*
X222348Y367500D02*
D03*
D91*
X169000Y375000D02*
D03*
X794350Y482350D02*
D03*
X521000Y442000D02*
D03*
X394000Y522000D02*
D03*
X348750Y131750D02*
D03*
X401940Y339940D02*
D03*
X350000Y287000D02*
D03*
X593000Y262000D02*
D03*
X627000Y217000D02*
D03*
X533667Y431000D02*
D03*
X546333D02*
D03*
X521000Y453000D02*
D03*
Y431000D02*
D03*
X559000D02*
D03*
X301000Y522500D02*
D03*
X236000D02*
D03*
X394000Y509000D02*
D03*
Y496000D02*
D03*
X288000Y513000D02*
D03*
Y522500D02*
D03*
Y532000D02*
D03*
X250000D02*
D03*
Y522500D02*
D03*
Y513000D02*
D03*
X182882Y435517D02*
D03*
X165000D02*
D03*
X146000Y45000D02*
D03*
X160000Y19000D02*
D03*
X146000Y24000D02*
D03*
Y34500D02*
D03*
X407000Y426000D02*
D03*
X433000D02*
D03*
X420000D02*
D03*
X794150Y336623D02*
D03*
Y217567D02*
D03*
Y98510D02*
D03*
X582000Y349000D02*
D03*
X532750Y350370D02*
D03*
X544490Y97510D02*
D03*
M02*
