G04*
G04 #@! TF.GenerationSoftware,Altium Limited,Altium Designer,20.0.13 (296)*
G04*
G04 Layer_Physical_Order=4*
G04 Layer_Color=16711680*
%FSLAX44Y44*%
%MOMM*%
G71*
G01*
G75*
%ADD65C,0.3000*%
%ADD67C,1.8000*%
%ADD68R,1.8000X1.8000*%
%ADD69R,1.3000X1.3000*%
%ADD70C,1.3000*%
%ADD71R,1.3000X1.3000*%
%ADD72R,1.8000X1.8000*%
%ADD73R,1.9050X1.9050*%
%ADD74C,1.9050*%
%ADD75C,1.7000*%
%ADD76C,4.0000*%
%ADD77C,0.6000*%
%ADD78C,0.4000*%
G36*
X372067Y541730D02*
X357169Y526831D01*
X356607Y525991D01*
X356410Y525000D01*
Y517228D01*
X355208Y516819D01*
X354605Y517605D01*
X352085Y519539D01*
X349150Y520755D01*
X347270Y521002D01*
Y509000D01*
Y496998D01*
X349150Y497245D01*
X352085Y498461D01*
X354605Y500395D01*
X355208Y501181D01*
X356410Y500773D01*
Y496000D01*
X356410Y487000D01*
X356418Y486961D01*
X356411Y486922D01*
X357411Y453922D01*
X357414Y453910D01*
X357412Y453899D01*
X357528Y453417D01*
X357639Y452937D01*
X357645Y452928D01*
X357648Y452916D01*
X357939Y452515D01*
X358225Y452114D01*
X358235Y452108D01*
X358241Y452099D01*
X394822Y418262D01*
X394359Y417079D01*
X381921D01*
X364000Y435000D01*
X353590D01*
X353590Y476000D01*
X353393Y476991D01*
X352831Y477831D01*
X342831Y487831D01*
X341991Y488393D01*
X341000Y488590D01*
X327754D01*
X327369Y489860D01*
X327831Y490169D01*
X333831Y496169D01*
X334393Y497009D01*
X334590Y498000D01*
Y501965D01*
X335860Y502396D01*
X337395Y500395D01*
X339915Y498461D01*
X342850Y497245D01*
X344730Y496998D01*
Y509000D01*
Y521002D01*
X342850Y520755D01*
X339915Y519539D01*
X337395Y517605D01*
X335860Y515604D01*
X334590Y516035D01*
Y524000D01*
X334393Y524991D01*
X333831Y525831D01*
X319831Y539831D01*
X318991Y540393D01*
X318000Y540590D01*
X223000D01*
X222009Y540393D01*
X221169Y539831D01*
X204169Y522831D01*
X203607Y521991D01*
X203410Y521000D01*
Y497000D01*
X203607Y496009D01*
X204169Y495169D01*
X210169Y489169D01*
X211009Y488607D01*
X212000Y488410D01*
X226000D01*
X226991Y488607D01*
X227831Y489169D01*
X230831Y492169D01*
X243073Y504410D01*
X256952Y504410D01*
X257478Y503140D01*
X253169Y498831D01*
X252607Y497991D01*
X252410Y497000D01*
X252410Y459075D01*
X251237Y458588D01*
X237913Y471913D01*
X236576Y472806D01*
X235000Y473119D01*
X178706D01*
X151913Y499913D01*
X151000Y500522D01*
Y534000D01*
X170800Y543000D01*
X371541D01*
X372067Y541730D01*
D02*
G37*
G36*
X835000Y535000D02*
X835000Y510000D01*
X829000Y504000D01*
X693000Y504000D01*
X688000Y509000D01*
Y535000D01*
X694000Y541000D01*
X829000D01*
X835000Y535000D01*
D02*
G37*
G36*
X632000Y534000D02*
Y490000D01*
X605000Y457000D01*
X597000Y447000D01*
X561000Y411000D01*
X508485D01*
X507999Y412173D01*
X513236Y417410D01*
X562064Y417410D01*
X563055Y417607D01*
X563895Y418169D01*
X576198Y430471D01*
X576759Y431312D01*
X576956Y432303D01*
X576956Y468685D01*
X576759Y469676D01*
X576198Y470516D01*
X567321Y479392D01*
X566481Y479954D01*
X565490Y480151D01*
X532110Y480151D01*
X531119Y479954D01*
X530279Y479392D01*
X506133Y455247D01*
X494036Y455247D01*
X493045Y455050D01*
X492205Y454488D01*
X485382Y447666D01*
X485382Y447666D01*
X484821Y446826D01*
X484624Y445835D01*
Y425786D01*
X484821Y424795D01*
X485382Y423955D01*
X490988Y418349D01*
X490844Y417628D01*
X490513Y417079D01*
X474401D01*
X473915Y418252D01*
X476831Y421169D01*
X477393Y422009D01*
X477590Y423000D01*
Y447000D01*
X477393Y447991D01*
X476831Y448831D01*
X468831Y456831D01*
X468369Y457140D01*
X468754Y458410D01*
X505000Y458410D01*
X505991Y458607D01*
X506831Y459169D01*
X531073Y483410D01*
X570000Y483410D01*
X570991Y483607D01*
X571831Y484169D01*
X581831Y494169D01*
X582393Y495009D01*
X582590Y496000D01*
X582590Y509842D01*
X583860Y510030D01*
X584135Y509123D01*
X586228Y505207D01*
X589045Y501775D01*
X592477Y498958D01*
X596393Y496865D01*
X600641Y495576D01*
X605060Y495141D01*
X609479Y495576D01*
X613727Y496865D01*
X617643Y498958D01*
X621075Y501775D01*
X623892Y505207D01*
X625985Y509123D01*
X627274Y513371D01*
X627709Y517790D01*
X627274Y522209D01*
X625985Y526457D01*
X623892Y530373D01*
X621075Y533805D01*
X617643Y536622D01*
X613727Y538715D01*
X609479Y540004D01*
X605060Y540439D01*
X600641Y540004D01*
X596393Y538715D01*
X592477Y536622D01*
X589045Y533805D01*
X586228Y530373D01*
X584135Y526457D01*
X583860Y525550D01*
X582590Y525738D01*
Y530000D01*
X582393Y530991D01*
X581831Y531831D01*
X571932Y541730D01*
X571980Y542156D01*
X572368Y543000D01*
X623000D01*
X632000Y534000D01*
D02*
G37*
G36*
X332000Y524000D02*
Y498000D01*
X326000Y492000D01*
X306000D01*
X297000Y501000D01*
X296389Y501611D01*
X296000Y502000D01*
X291000Y507000D01*
X285000D01*
X242000Y507000D01*
X229000Y494000D01*
X226000Y491000D01*
X212000D01*
X206000Y497000D01*
Y521000D01*
X223000Y538000D01*
X318000D01*
X332000Y524000D01*
D02*
G37*
G36*
X570000Y540000D02*
X580000Y530000D01*
X580000Y496000D01*
X570000Y486000D01*
X530000Y486000D01*
X505000Y461000D01*
X433000Y461000D01*
X408000Y486000D01*
Y510000D01*
X409000Y512000D01*
X415000Y516000D01*
X437000D01*
X443000Y522000D01*
Y531000D01*
X452000Y540000D01*
X570000Y540000D01*
D02*
G37*
G36*
X174087Y466087D02*
X175424Y465194D01*
X177000Y464881D01*
X233294D01*
X242001Y456173D01*
X241515Y455000D01*
X167000D01*
X151000Y465947D01*
Y487515D01*
X152173Y488001D01*
X174087Y466087D01*
D02*
G37*
G36*
X565490Y477561D02*
X574367Y468685D01*
X574367Y432303D01*
X562064Y420000D01*
X493000Y420000D01*
X487214Y425786D01*
Y445835D01*
X494036Y452657D01*
X507206Y452657D01*
X532110Y477561D01*
X565490Y477561D01*
D02*
G37*
G36*
X440000Y534990D02*
X440000Y524000D01*
X435000Y519000D01*
X411000D01*
X402000Y510000D01*
Y486000D01*
X433000Y455000D01*
X467000D01*
X475000Y447000D01*
Y423000D01*
X469000Y417000D01*
X400000D01*
X360000Y454000D01*
X359000Y487000D01*
X359000Y496000D01*
Y525000D01*
X375000Y541000D01*
X433990Y541000D01*
X440000Y534990D01*
D02*
G37*
G36*
X190007Y437551D02*
Y378448D01*
X181578Y370020D01*
X165422D01*
X157020Y378422D01*
Y438578D01*
X161422Y442980D01*
X184578D01*
X190007Y437551D01*
D02*
G37*
G36*
X692019Y543156D02*
X692067Y542730D01*
X686169Y536831D01*
X685607Y535991D01*
X685410Y535000D01*
Y509000D01*
X685607Y508009D01*
X686169Y507169D01*
X691169Y502169D01*
X692009Y501607D01*
X693000Y501410D01*
X829000Y501410D01*
X829991Y501607D01*
X830831Y502169D01*
X836831Y508169D01*
X837393Y509009D01*
X837590Y510000D01*
X837590Y535000D01*
X837393Y535991D01*
X836831Y536831D01*
X832424Y541238D01*
X832432Y541263D01*
X833139Y542320D01*
X835383Y541390D01*
X837700Y539842D01*
X838685Y538857D01*
X839431Y537896D01*
X839489Y537809D01*
X839827Y536992D01*
X839852Y536870D01*
X840000Y535683D01*
Y535683D01*
X840000D01*
X840000Y535683D01*
X840000Y11267D01*
X840000Y10353D01*
X839644Y8562D01*
X838945Y6875D01*
X838117Y5635D01*
X837284Y4710D01*
X837284D01*
X837284Y4710D01*
X836402Y3828D01*
X834327Y2442D01*
X833498Y2098D01*
X832460Y1060D01*
X831959Y994D01*
X831897Y1006D01*
X41818D01*
X41797Y1024D01*
Y1343D01*
X40932Y985D01*
X7483D01*
X7422Y973D01*
X5125Y1275D01*
X2928Y2185D01*
X1041Y3633D01*
X-407Y5520D01*
X-1318Y7718D01*
X-1620Y10014D01*
X-1608Y10076D01*
Y176617D01*
X-536Y495052D01*
X6980Y502797D01*
X8249Y502744D01*
X9045Y501775D01*
X12477Y498958D01*
X16393Y496865D01*
X20641Y495576D01*
X25060Y495141D01*
X29479Y495576D01*
X33727Y496865D01*
X33997Y497009D01*
X37643Y498958D01*
X41075Y501775D01*
X43892Y505207D01*
X45919Y509000D01*
X127000D01*
X133708Y502293D01*
X133222Y501119D01*
X112000D01*
X110424Y500806D01*
X109087Y499913D01*
X106001Y496827D01*
D01*
X99713Y490538D01*
X98013Y491243D01*
X95000Y491640D01*
X91987Y491243D01*
X89180Y490080D01*
X86770Y488230D01*
X84920Y485820D01*
X83757Y483013D01*
X83360Y480000D01*
X83757Y476987D01*
X84920Y474180D01*
X86770Y471770D01*
X89180Y469920D01*
X91987Y468757D01*
X95000Y468360D01*
X98013Y468757D01*
X100820Y469920D01*
X103230Y471770D01*
X105080Y474180D01*
X106243Y476987D01*
X106639Y480000D01*
X106243Y483013D01*
X105539Y484713D01*
X113706Y492881D01*
X119699D01*
X119782Y491611D01*
X119013Y491510D01*
X116987Y491243D01*
X114180Y490080D01*
X111770Y488230D01*
X109920Y485820D01*
X108757Y483013D01*
X108528Y481270D01*
X131472D01*
X131243Y483013D01*
X130080Y485820D01*
X128230Y488230D01*
X125820Y490080D01*
X123013Y491243D01*
X120987Y491510D01*
X120218Y491611D01*
X120301Y492881D01*
X143119D01*
X148000Y488000D01*
Y454000D01*
X155000Y447000D01*
X251175D01*
X251881Y446294D01*
Y434270D01*
X250734Y433923D01*
X249970Y434877D01*
X249590Y436790D01*
X248365Y438623D01*
X246533Y439847D01*
X244371Y440277D01*
X242210Y439847D01*
X241893Y439636D01*
X191585D01*
X186409Y444812D01*
X185569Y445373D01*
X184578Y445570D01*
X161422D01*
X160431Y445373D01*
X159591Y444812D01*
X155188Y440409D01*
X154627Y439569D01*
X154430Y438578D01*
Y378422D01*
X154627Y377431D01*
X155188Y376591D01*
X156881Y374899D01*
Y55570D01*
X145422D01*
X144431Y55373D01*
X143591Y54812D01*
X138188Y49409D01*
X137627Y48569D01*
X137430Y47578D01*
Y19422D01*
X137627Y18431D01*
X138188Y17591D01*
X143591Y12188D01*
X144431Y11627D01*
X145422Y11430D01*
X169578D01*
X170569Y11627D01*
X171409Y12188D01*
X176111Y16890D01*
X176672Y17730D01*
X176869Y18722D01*
Y24982D01*
X178139Y25486D01*
X180180Y23920D01*
X182987Y22757D01*
X186000Y22360D01*
X189013Y22757D01*
X191820Y23920D01*
X194230Y25770D01*
X196080Y28180D01*
X197243Y30987D01*
X197640Y34000D01*
X197243Y37013D01*
X196539Y38713D01*
X200541Y42715D01*
X201785Y42307D01*
X202044Y41285D01*
X200920Y39820D01*
X199757Y37013D01*
X199360Y34000D01*
X199757Y30987D01*
X200920Y28180D01*
X202770Y25770D01*
X205180Y23920D01*
X207987Y22757D01*
X211000Y22360D01*
X214013Y22757D01*
X216820Y23920D01*
X219230Y25770D01*
X221080Y28180D01*
X222243Y30987D01*
X222640Y34000D01*
X222243Y37013D01*
X221080Y39820D01*
X219230Y42230D01*
X216820Y44080D01*
X214013Y45243D01*
X211000Y45640D01*
X210220Y46324D01*
Y52296D01*
X211393Y52782D01*
X225462Y38713D01*
X224757Y37013D01*
X224360Y34000D01*
X224757Y30987D01*
X225920Y28180D01*
X227770Y25770D01*
X230180Y23920D01*
X232987Y22757D01*
X236000Y22360D01*
X239013Y22757D01*
X241820Y23920D01*
X244230Y25770D01*
X246080Y28180D01*
X247243Y30987D01*
X247640Y34000D01*
X247243Y37013D01*
X246080Y39820D01*
X244230Y42230D01*
X241820Y44080D01*
X239013Y45243D01*
X236000Y45640D01*
X232987Y45243D01*
X231287Y44538D01*
X215119Y60706D01*
Y72396D01*
X216292Y72882D01*
X250461Y38713D01*
X249757Y37013D01*
X249360Y34000D01*
X249757Y30987D01*
X250920Y28180D01*
X252770Y25770D01*
X255180Y23920D01*
X257987Y22757D01*
X261000Y22360D01*
X264013Y22757D01*
X266820Y23920D01*
X269230Y25770D01*
X271080Y28180D01*
X272243Y30987D01*
X272640Y34000D01*
X272243Y37013D01*
X271080Y39820D01*
X269230Y42230D01*
X266820Y44080D01*
X264013Y45243D01*
X261000Y45640D01*
X257987Y45243D01*
X256287Y44538D01*
X220119Y80706D01*
Y198294D01*
X224857Y203032D01*
X248344D01*
X249989Y201932D01*
X252151Y201502D01*
X254312Y201932D01*
X256145Y203157D01*
X257369Y204989D01*
X257683Y206568D01*
X259262Y206882D01*
X261095Y208106D01*
X262319Y209939D01*
X262633Y211518D01*
X264212Y211832D01*
X266044Y213056D01*
X267269Y214889D01*
X267583Y216467D01*
X269162Y216782D01*
X270994Y218006D01*
X272219Y219838D01*
X272649Y222000D01*
X272219Y224162D01*
X270994Y225994D01*
X269162Y227219D01*
X267000Y227649D01*
X264838Y227219D01*
X264016Y226669D01*
X215550D01*
X213974Y226356D01*
X212638Y225463D01*
X198087Y210913D01*
X197194Y209576D01*
X196881Y208000D01*
Y50706D01*
X190713Y44538D01*
X189013Y45243D01*
X186000Y45640D01*
X182987Y45243D01*
X180180Y44080D01*
X178139Y42514D01*
X176869Y43018D01*
Y46278D01*
X176672Y47270D01*
X176111Y48110D01*
X169409Y54812D01*
X168569Y55373D01*
X167578Y55570D01*
X165119D01*
Y367181D01*
X165422Y367430D01*
X181578D01*
X182569Y367627D01*
X183409Y368188D01*
X191838Y376617D01*
X192399Y377458D01*
X192596Y378448D01*
Y431398D01*
X239867D01*
X240377Y430635D01*
X242210Y429410D01*
X242916Y429270D01*
Y378825D01*
X241851Y377232D01*
X241422Y375070D01*
X241851Y372908D01*
X243076Y371076D01*
X244908Y369851D01*
X247070Y369422D01*
X249232Y369851D01*
X250611Y370773D01*
X251881Y370186D01*
Y355000D01*
X252194Y353424D01*
X253087Y352087D01*
X274395Y330779D01*
X274781Y328838D01*
X273792Y328033D01*
X237119Y364706D01*
Y364993D01*
X237277Y365229D01*
X237629Y367000D01*
X237277Y368771D01*
X236273Y370273D01*
X234771Y371277D01*
X233000Y371629D01*
X231229Y371277D01*
X229727Y370273D01*
X228766Y368835D01*
X228060Y368590D01*
X227514Y368441D01*
X226666Y369063D01*
X226624Y369271D01*
X225621Y370773D01*
X224119Y371777D01*
X222348Y372129D01*
X220576Y371777D01*
X219074Y370773D01*
X218071Y369271D01*
X217719Y367500D01*
X218071Y365729D01*
X219074Y364227D01*
X220576Y363223D01*
X220854Y363168D01*
X386935Y197087D01*
X388271Y196194D01*
X389848Y195881D01*
X463294D01*
X478395Y180779D01*
X478781Y178838D01*
X480006Y177006D01*
X481838Y175781D01*
X484000Y175352D01*
X486162Y175781D01*
X487994Y177006D01*
X489219Y178838D01*
X489533Y180417D01*
X491111Y180731D01*
X492944Y181956D01*
X494168Y183788D01*
X494598Y185950D01*
X494168Y188111D01*
X492944Y189944D01*
X491111Y191168D01*
X488950Y191598D01*
X487918Y191393D01*
X471398Y207913D01*
X470062Y208806D01*
X468485Y209119D01*
X392706D01*
X277034Y324792D01*
X277838Y325781D01*
X280000Y325351D01*
X282162Y325781D01*
X283994Y327006D01*
X285219Y328838D01*
X285648Y331000D01*
X285219Y333162D01*
X283994Y334994D01*
X282162Y336219D01*
X280221Y336605D01*
X260119Y356706D01*
Y445422D01*
X261389Y445948D01*
X277634Y429703D01*
X278410Y362970D01*
X278512Y362490D01*
X278607Y362009D01*
X278616Y361996D01*
X278619Y361981D01*
X278896Y361576D01*
X279169Y361169D01*
X285169Y355169D01*
X286009Y354607D01*
X287000Y354410D01*
X310000Y354410D01*
X310991Y354607D01*
X311831Y355169D01*
X317831Y361169D01*
X318393Y362009D01*
X318590Y363000D01*
Y387489D01*
X340274Y399745D01*
X340288Y399757D01*
X340305Y399763D01*
X352305Y406763D01*
X352554Y406984D01*
X352831Y407169D01*
X352929Y407316D01*
X353062Y407433D01*
X353208Y407732D01*
X353393Y408009D01*
X353427Y408182D01*
X353504Y408341D01*
X353525Y408673D01*
X353590Y409000D01*
Y410751D01*
X354763Y411237D01*
X366381Y399619D01*
Y379307D01*
X365281Y377662D01*
X364851Y375500D01*
X365281Y373338D01*
X366506Y371506D01*
X368338Y370281D01*
X370500Y369851D01*
X372662Y370281D01*
X374494Y371506D01*
X375719Y373338D01*
X376148Y375500D01*
X375719Y377662D01*
X374619Y379307D01*
Y389721D01*
X375793Y390207D01*
X389000Y377000D01*
X441379D01*
X441905Y375730D01*
X429294Y363119D01*
X398807D01*
X397162Y364219D01*
X395000Y364649D01*
X392838Y364219D01*
X391006Y362994D01*
X389781Y361162D01*
X389352Y359000D01*
X389781Y356838D01*
X390676Y355500D01*
X389781Y354162D01*
X389352Y352000D01*
X389781Y349838D01*
X391006Y348006D01*
X392838Y346782D01*
X395000Y346352D01*
X397162Y346782D01*
X398807Y347881D01*
X431071D01*
X432648Y348195D01*
X433984Y349087D01*
X450242Y365345D01*
X541087D01*
X542006Y363970D01*
X543838Y362746D01*
X546000Y362316D01*
X548162Y362746D01*
X549994Y363970D01*
X551219Y365803D01*
X551649Y367965D01*
X551219Y370126D01*
X550324Y371465D01*
X551219Y372803D01*
X551649Y374964D01*
X551219Y377126D01*
X549994Y378959D01*
X548162Y380183D01*
X546000Y380613D01*
X543838Y380183D01*
X542006Y378959D01*
X541087Y377584D01*
X538243D01*
X537757Y378757D01*
X634170Y475170D01*
Y526170D01*
X652000Y544000D01*
X691632D01*
X692019Y543156D01*
D02*
G37*
G36*
X301000Y486000D02*
X341000D01*
X351000Y476000D01*
X351000Y409000D01*
X339000Y402000D01*
X316000Y389000D01*
Y363000D01*
X310000Y357000D01*
X287000Y357000D01*
X281000Y363000D01*
X280212Y430788D01*
X255000Y456000D01*
X255000Y497000D01*
X260000Y502000D01*
X285000Y502000D01*
X301000Y486000D01*
D02*
G37*
G36*
X174280Y46278D02*
Y18722D01*
X169578Y14020D01*
X145422D01*
X140020Y19422D01*
Y47578D01*
X145422Y52980D01*
X167578D01*
X174280Y46278D01*
D02*
G37*
%LPC*%
G36*
X173180Y518818D02*
Y509120D01*
X182878D01*
X182666Y510732D01*
X181553Y513418D01*
X179784Y515724D01*
X177478Y517493D01*
X174792Y518606D01*
X173180Y518818D01*
D02*
G37*
G36*
X170640D02*
X169028Y518606D01*
X166342Y517493D01*
X164036Y515724D01*
X162267Y513418D01*
X161154Y510732D01*
X160942Y509120D01*
X170640D01*
Y518818D01*
D02*
G37*
G36*
X182878Y506580D02*
X173180D01*
Y496882D01*
X174792Y497094D01*
X177478Y498207D01*
X179784Y499976D01*
X181553Y502282D01*
X182666Y504968D01*
X182878Y506580D01*
D02*
G37*
G36*
X170640D02*
X160942D01*
X161154Y504968D01*
X162267Y502282D01*
X164036Y499976D01*
X166342Y498207D01*
X169028Y497094D01*
X170640Y496882D01*
Y506580D01*
D02*
G37*
G36*
X794350Y487999D02*
X792188Y487569D01*
X790356Y486344D01*
X789131Y484512D01*
X788701Y482350D01*
X789131Y480188D01*
X790356Y478356D01*
X792188Y477131D01*
X794350Y476701D01*
X796512Y477131D01*
X798344Y478356D01*
X799568Y480188D01*
X799998Y482350D01*
X799568Y484512D01*
X798344Y486344D01*
X796512Y487569D01*
X794350Y487999D01*
D02*
G37*
G36*
X826350Y493890D02*
X803270D01*
Y470810D01*
X826350D01*
Y493890D01*
D02*
G37*
G36*
X131472Y478730D02*
X121270D01*
Y468528D01*
X123013Y468757D01*
X125820Y469920D01*
X128230Y471770D01*
X130080Y474180D01*
X131243Y476987D01*
X131472Y478730D01*
D02*
G37*
G36*
X118730D02*
X108528D01*
X108757Y476987D01*
X109920Y474180D01*
X111770Y471770D01*
X114180Y469920D01*
X116987Y468757D01*
X118730Y468528D01*
Y478730D01*
D02*
G37*
G36*
X31540Y491540D02*
X8460D01*
Y468460D01*
X31540D01*
Y491540D01*
D02*
G37*
G36*
X70000Y491640D02*
X66987Y491243D01*
X64180Y490080D01*
X61770Y488230D01*
X59920Y485820D01*
X58757Y483013D01*
X58360Y480000D01*
X58757Y476987D01*
X59920Y474180D01*
X61770Y471770D01*
X64180Y469920D01*
X66987Y468757D01*
X70000Y468360D01*
X73012Y468757D01*
X75820Y469920D01*
X78230Y471770D01*
X80080Y474180D01*
X81243Y476987D01*
X81639Y480000D01*
X81243Y483013D01*
X80080Y485820D01*
X78230Y488230D01*
X75820Y490080D01*
X73012Y491243D01*
X70000Y491640D01*
D02*
G37*
G36*
X45000D02*
X41987Y491243D01*
X39180Y490080D01*
X36770Y488230D01*
X34920Y485820D01*
X33757Y483013D01*
X33360Y480000D01*
X33757Y476987D01*
X34920Y474180D01*
X36770Y471770D01*
X39180Y469920D01*
X41987Y468757D01*
X45000Y468360D01*
X48012Y468757D01*
X50820Y469920D01*
X53230Y471770D01*
X55080Y474180D01*
X56243Y476987D01*
X56639Y480000D01*
X56243Y483013D01*
X55080Y485820D01*
X53230Y488230D01*
X50820Y490080D01*
X48012Y491243D01*
X45000Y491640D01*
D02*
G37*
G36*
X814810Y468989D02*
X811797Y468593D01*
X808990Y467430D01*
X806580Y465580D01*
X804730Y463170D01*
X804025Y461469D01*
X763350D01*
X761774Y461156D01*
X760437Y460263D01*
X738087Y437913D01*
X737194Y436576D01*
X736881Y435000D01*
Y150706D01*
X719779Y133605D01*
X717838Y133219D01*
X716006Y131994D01*
X714781Y130162D01*
X714352Y128000D01*
X714781Y125838D01*
X716006Y124006D01*
X717838Y122781D01*
X720000Y122352D01*
X722162Y122781D01*
X723994Y124006D01*
X725219Y125838D01*
X725605Y127779D01*
X743913Y146087D01*
X744806Y147424D01*
X745119Y149000D01*
Y433294D01*
X765056Y453231D01*
X804025D01*
X804730Y451530D01*
X806580Y449119D01*
X808990Y447270D01*
X811797Y446107D01*
X814810Y445710D01*
X817822Y446107D01*
X820630Y447270D01*
X823040Y449119D01*
X824890Y451530D01*
X826053Y454337D01*
X826450Y457350D01*
X826053Y460363D01*
X824890Y463170D01*
X823040Y465580D01*
X820630Y467430D01*
X817822Y468593D01*
X814810Y468989D01*
D02*
G37*
G36*
X68270Y448396D02*
Y444270D01*
X72396D01*
X72219Y445162D01*
X70994Y446994D01*
X69162Y448219D01*
X68270Y448396D01*
D02*
G37*
G36*
X65730D02*
X64838Y448219D01*
X63006Y446994D01*
X61781Y445162D01*
X61604Y444270D01*
X65730D01*
Y448396D01*
D02*
G37*
G36*
X104270Y449681D02*
Y439479D01*
X114472D01*
X114243Y441222D01*
X113080Y444029D01*
X111230Y446440D01*
X108820Y448289D01*
X106012Y449452D01*
X104270Y449681D01*
D02*
G37*
G36*
X101730D02*
X99987Y449452D01*
X97180Y448289D01*
X94770Y446440D01*
X92920Y444029D01*
X91757Y441222D01*
X91528Y439479D01*
X101730D01*
Y449681D01*
D02*
G37*
G36*
X72396Y441730D02*
X68270D01*
Y437604D01*
X69162Y437781D01*
X70994Y439006D01*
X72219Y440838D01*
X72396Y441730D01*
D02*
G37*
G36*
X65730D02*
X61604D01*
X61781Y440838D01*
X63006Y439006D01*
X64838Y437781D01*
X65730Y437604D01*
Y441730D01*
D02*
G37*
G36*
X41680Y450149D02*
X18600D01*
Y427069D01*
X41680D01*
Y450149D01*
D02*
G37*
G36*
X114472Y436939D02*
X104270D01*
Y426737D01*
X106012Y426966D01*
X108820Y428129D01*
X111230Y429979D01*
X113080Y432389D01*
X114243Y435196D01*
X114472Y436939D01*
D02*
G37*
G36*
X101730D02*
X91528D01*
X91757Y435196D01*
X92920Y432389D01*
X94770Y429979D01*
X97180Y428129D01*
X99987Y426966D01*
X101730Y426737D01*
Y436939D01*
D02*
G37*
G36*
X814810Y443989D02*
X811797Y443593D01*
X808990Y442430D01*
X806580Y440580D01*
X804730Y438170D01*
X803567Y435363D01*
X803170Y432350D01*
X803567Y429337D01*
X804730Y426530D01*
X806580Y424119D01*
X808990Y422270D01*
X811797Y421107D01*
X814810Y420710D01*
X817822Y421107D01*
X820630Y422270D01*
X823040Y424119D01*
X824890Y426530D01*
X826053Y429337D01*
X826450Y432350D01*
X826053Y435363D01*
X824890Y438170D01*
X823040Y440580D01*
X820630Y442430D01*
X817822Y443593D01*
X814810Y443989D01*
D02*
G37*
G36*
X668600Y425951D02*
Y418270D01*
X676281D01*
X676137Y419360D01*
X675226Y421559D01*
X673777Y423447D01*
X671889Y424896D01*
X669690Y425807D01*
X668600Y425951D01*
D02*
G37*
G36*
X666060D02*
X664970Y425807D01*
X662771Y424896D01*
X660883Y423447D01*
X659434Y421559D01*
X658523Y419360D01*
X658379Y418270D01*
X666060D01*
Y425951D01*
D02*
G37*
G36*
X31410Y425081D02*
Y414879D01*
X41612D01*
X41383Y416622D01*
X40220Y419429D01*
X38370Y421839D01*
X35960Y423689D01*
X33152Y424852D01*
X31410Y425081D01*
D02*
G37*
G36*
X28870D02*
X27127Y424852D01*
X24320Y423689D01*
X21910Y421839D01*
X20060Y419429D01*
X18897Y416622D01*
X18668Y414879D01*
X28870D01*
Y425081D01*
D02*
G37*
G36*
X676281Y415730D02*
X668600D01*
Y408049D01*
X669690Y408193D01*
X671889Y409104D01*
X673777Y410553D01*
X675226Y412441D01*
X676137Y414640D01*
X676281Y415730D01*
D02*
G37*
G36*
X666060D02*
X658379D01*
X658523Y414640D01*
X659434Y412441D01*
X660883Y410553D01*
X662771Y409104D01*
X664970Y408193D01*
X666060Y408049D01*
Y415730D01*
D02*
G37*
G36*
X701370Y426040D02*
X683290D01*
Y407960D01*
X701370D01*
Y426040D01*
D02*
G37*
G36*
X642000Y426118D02*
X639640Y425807D01*
X637441Y424896D01*
X635553Y423447D01*
X634104Y421559D01*
X633193Y419360D01*
X632882Y417000D01*
X633193Y414640D01*
X634104Y412441D01*
X635553Y410553D01*
X637441Y409104D01*
X639640Y408193D01*
X642000Y407882D01*
X644360Y408193D01*
X646559Y409104D01*
X648447Y410553D01*
X649896Y412441D01*
X650807Y414640D01*
X651118Y417000D01*
X650807Y419360D01*
X649896Y421559D01*
X648447Y423447D01*
X646559Y424896D01*
X644360Y425807D01*
X642000Y426118D01*
D02*
G37*
G36*
X616530D02*
X614170Y425807D01*
X611971Y424896D01*
X610083Y423447D01*
X608634Y421559D01*
X607723Y419360D01*
X607412Y417000D01*
X607723Y414640D01*
X608634Y412441D01*
X610083Y410553D01*
X611971Y409104D01*
X614170Y408193D01*
X616530Y407882D01*
X618890Y408193D01*
X621089Y409104D01*
X622977Y410553D01*
X624426Y412441D01*
X625337Y414640D01*
X625648Y417000D01*
X625337Y419360D01*
X624426Y421559D01*
X622977Y423447D01*
X621089Y424896D01*
X618890Y425807D01*
X616530Y426118D01*
D02*
G37*
G36*
X68270Y411396D02*
Y407270D01*
X72396D01*
X72219Y408162D01*
X70994Y409994D01*
X69162Y411219D01*
X68270Y411396D01*
D02*
G37*
G36*
X65730D02*
X64838Y411219D01*
X63006Y409994D01*
X61781Y408162D01*
X61604Y407270D01*
X65730D01*
Y411396D01*
D02*
G37*
G36*
X41612Y412339D02*
X31410D01*
Y402137D01*
X33152Y402366D01*
X35960Y403529D01*
X38370Y405379D01*
X40220Y407789D01*
X41383Y410597D01*
X41612Y412339D01*
D02*
G37*
G36*
X28870D02*
X18668D01*
X18897Y410597D01*
X20060Y407789D01*
X21910Y405379D01*
X24320Y403529D01*
X27127Y402366D01*
X28870Y402137D01*
Y412339D01*
D02*
G37*
G36*
X114540Y424749D02*
X91460D01*
Y401669D01*
X114540D01*
Y424749D01*
D02*
G37*
G36*
X72396Y404730D02*
X68270D01*
Y400604D01*
X69162Y400781D01*
X70994Y402006D01*
X72219Y403838D01*
X72396Y404730D01*
D02*
G37*
G36*
X65730D02*
X61604D01*
X61781Y403838D01*
X63006Y402006D01*
X64838Y400781D01*
X65730Y400604D01*
Y404730D01*
D02*
G37*
G36*
X814810Y418989D02*
X811797Y418593D01*
X808990Y417430D01*
X806580Y415580D01*
X804730Y413170D01*
X803567Y410363D01*
X803170Y407350D01*
X803567Y404337D01*
X804730Y401530D01*
X806580Y399119D01*
X808990Y397270D01*
X811797Y396107D01*
X814810Y395710D01*
X817822Y396107D01*
X820630Y397270D01*
X823040Y399119D01*
X824890Y401530D01*
X826053Y404337D01*
X826450Y407350D01*
X826053Y410363D01*
X824890Y413170D01*
X823040Y415580D01*
X820630Y417430D01*
X817822Y418593D01*
X814810Y418989D01*
D02*
G37*
G36*
X68270Y392396D02*
Y388270D01*
X72396D01*
X72219Y389162D01*
X70994Y390994D01*
X69162Y392219D01*
X68270Y392396D01*
D02*
G37*
G36*
X65730D02*
X64838Y392219D01*
X63006Y390994D01*
X61781Y389162D01*
X61604Y388270D01*
X65730D01*
Y392396D01*
D02*
G37*
G36*
X816080Y393822D02*
Y383620D01*
X826282D01*
X826053Y385363D01*
X824890Y388170D01*
X823040Y390580D01*
X820630Y392430D01*
X817822Y393593D01*
X816080Y393822D01*
D02*
G37*
G36*
X795620Y387746D02*
Y383620D01*
X799746D01*
X799568Y384512D01*
X798344Y386344D01*
X796512Y387569D01*
X795620Y387746D01*
D02*
G37*
G36*
X793080D02*
X792188Y387569D01*
X790356Y386344D01*
X789131Y384512D01*
X788954Y383620D01*
X793080D01*
Y387746D01*
D02*
G37*
G36*
X813540Y393822D02*
X811797Y393593D01*
X808990Y392430D01*
X806580Y390580D01*
X804730Y388170D01*
X803567Y385363D01*
X803338Y383620D01*
X813540D01*
Y393822D01*
D02*
G37*
G36*
X72396Y385730D02*
X68270D01*
Y381604D01*
X69162Y381781D01*
X70994Y383006D01*
X72219Y384838D01*
X72396Y385730D01*
D02*
G37*
G36*
X65730D02*
X61604D01*
X61781Y384838D01*
X63006Y383006D01*
X64838Y381781D01*
X65730Y381604D01*
Y385730D01*
D02*
G37*
G36*
X799746Y381080D02*
X795620D01*
Y376954D01*
X796512Y377131D01*
X798344Y378356D01*
X799568Y380188D01*
X799746Y381080D01*
D02*
G37*
G36*
X793080D02*
X788954D01*
X789131Y380188D01*
X790356Y378356D01*
X792188Y377131D01*
X793080Y376954D01*
Y381080D01*
D02*
G37*
G36*
X826282D02*
X816080D01*
Y370878D01*
X817822Y371107D01*
X820630Y372270D01*
X823040Y374119D01*
X824890Y376530D01*
X826053Y379337D01*
X826282Y381080D01*
D02*
G37*
G36*
X813540D02*
X803338D01*
X803567Y379337D01*
X804730Y376530D01*
X806580Y374119D01*
X808990Y372270D01*
X811797Y371107D01*
X813540Y370878D01*
Y381080D01*
D02*
G37*
G36*
X68270Y373396D02*
Y369270D01*
X72396D01*
X72219Y370162D01*
X70994Y371994D01*
X69162Y373219D01*
X68270Y373396D01*
D02*
G37*
G36*
X65730D02*
X64838Y373219D01*
X63006Y371994D01*
X61781Y370162D01*
X61604Y369270D01*
X65730D01*
Y373396D01*
D02*
G37*
G36*
X104270Y373472D02*
Y363270D01*
X114472D01*
X114243Y365013D01*
X113080Y367820D01*
X111230Y370230D01*
X108820Y372080D01*
X106012Y373243D01*
X104270Y373472D01*
D02*
G37*
G36*
X101730D02*
X99987Y373243D01*
X97180Y372080D01*
X94770Y370230D01*
X92920Y367820D01*
X91757Y365013D01*
X91528Y363270D01*
X101730D01*
Y373472D01*
D02*
G37*
G36*
X72396Y366730D02*
X68270D01*
Y362604D01*
X69162Y362781D01*
X70994Y364006D01*
X72219Y365838D01*
X72396Y366730D01*
D02*
G37*
G36*
X65730D02*
X61604D01*
X61781Y365838D01*
X63006Y364006D01*
X64838Y362781D01*
X65730Y362604D01*
Y366730D01*
D02*
G37*
G36*
X470840Y356716D02*
Y352590D01*
X474966D01*
X474789Y353482D01*
X473564Y355314D01*
X471732Y356539D01*
X470840Y356716D01*
D02*
G37*
G36*
X468300D02*
X467408Y356539D01*
X465576Y355314D01*
X464351Y353482D01*
X464174Y352590D01*
X468300D01*
Y356716D01*
D02*
G37*
G36*
X41680Y373940D02*
X18600D01*
Y350860D01*
X41680D01*
Y373940D01*
D02*
G37*
G36*
X114472Y360730D02*
X104270D01*
Y350528D01*
X106012Y350757D01*
X108820Y351920D01*
X111230Y353770D01*
X113080Y356180D01*
X114243Y358987D01*
X114472Y360730D01*
D02*
G37*
G36*
X101730D02*
X91528D01*
X91757Y358987D01*
X92920Y356180D01*
X94770Y353770D01*
X97180Y351920D01*
X99987Y350757D01*
X101730Y350528D01*
Y360730D01*
D02*
G37*
G36*
X695270Y353396D02*
Y349270D01*
X699396D01*
X699219Y350162D01*
X697994Y351994D01*
X696162Y353218D01*
X695270Y353396D01*
D02*
G37*
G36*
X692730D02*
X691838Y353218D01*
X690006Y351994D01*
X688782Y350162D01*
X688604Y349270D01*
X692730D01*
Y353396D01*
D02*
G37*
G36*
X68270D02*
Y349270D01*
X72396D01*
X72219Y350162D01*
X70994Y351994D01*
X69162Y353218D01*
X68270Y353396D01*
D02*
G37*
G36*
X65730D02*
X64838Y353218D01*
X63006Y351994D01*
X61781Y350162D01*
X61604Y349270D01*
X65730D01*
Y353396D01*
D02*
G37*
G36*
X474966Y350050D02*
X470840D01*
Y345924D01*
X471732Y346101D01*
X473564Y347326D01*
X474789Y349158D01*
X474966Y350050D01*
D02*
G37*
G36*
X468300D02*
X464174D01*
X464351Y349158D01*
X465576Y347326D01*
X467408Y346101D01*
X468300Y345924D01*
Y350050D01*
D02*
G37*
G36*
X532750Y356018D02*
X530588Y355588D01*
X528756Y354364D01*
X527531Y352532D01*
X527101Y350370D01*
X527531Y348208D01*
X528756Y346376D01*
X530588Y345151D01*
X532750Y344721D01*
X534911Y345151D01*
X536744Y346376D01*
X537968Y348208D01*
X538398Y350370D01*
X537968Y352532D01*
X536744Y354364D01*
X534911Y355588D01*
X532750Y356018D01*
D02*
G37*
G36*
X582000Y354649D02*
X579838Y354218D01*
X578006Y352994D01*
X576781Y351162D01*
X576352Y349000D01*
X576781Y346838D01*
X578006Y345006D01*
X579838Y343781D01*
X582000Y343352D01*
X584162Y343781D01*
X585994Y345006D01*
X587219Y346838D01*
X587649Y349000D01*
X587219Y351162D01*
X585994Y352994D01*
X584162Y354218D01*
X582000Y354649D01*
D02*
G37*
G36*
X699396Y346730D02*
X695270D01*
Y342604D01*
X696162Y342781D01*
X697994Y344006D01*
X699219Y345838D01*
X699396Y346730D01*
D02*
G37*
G36*
X692730D02*
X688604D01*
X688782Y345838D01*
X690006Y344006D01*
X691838Y342781D01*
X692730Y342604D01*
Y346730D01*
D02*
G37*
G36*
X72396D02*
X68270D01*
Y342604D01*
X69162Y342781D01*
X70994Y344006D01*
X72219Y345838D01*
X72396Y346730D01*
D02*
G37*
G36*
X65730D02*
X61604D01*
X61781Y345838D01*
X63006Y344006D01*
X64838Y342781D01*
X65730Y342604D01*
Y346730D01*
D02*
G37*
G36*
X31410Y348872D02*
Y338670D01*
X41612D01*
X41383Y340412D01*
X40220Y343220D01*
X38370Y345630D01*
X35960Y347480D01*
X33152Y348643D01*
X31410Y348872D01*
D02*
G37*
G36*
X28870D02*
X27127Y348643D01*
X24320Y347480D01*
X21910Y345630D01*
X20060Y343220D01*
X18897Y340412D01*
X18668Y338670D01*
X28870D01*
Y348872D01*
D02*
G37*
G36*
X401940Y345588D02*
X399778Y345159D01*
X397946Y343934D01*
X396721Y342102D01*
X396292Y339940D01*
X396721Y337778D01*
X397946Y335946D01*
X399778Y334721D01*
X401940Y334291D01*
X404102Y334721D01*
X405934Y335946D01*
X407159Y337778D01*
X407589Y339940D01*
X407159Y342102D01*
X405934Y343934D01*
X404102Y345159D01*
X401940Y345588D01*
D02*
G37*
G36*
X794150Y342272D02*
X791988Y341842D01*
X790156Y340617D01*
X788931Y338785D01*
X788501Y336623D01*
X788931Y334462D01*
X790156Y332629D01*
X791988Y331405D01*
X794150Y330975D01*
X796312Y331405D01*
X798144Y332629D01*
X799369Y334462D01*
X799799Y336623D01*
X799369Y338785D01*
X798144Y340617D01*
X796312Y341842D01*
X794150Y342272D01*
D02*
G37*
G36*
X823650Y345663D02*
X805570D01*
Y327583D01*
X823650D01*
Y345663D01*
D02*
G37*
G36*
X41612Y336130D02*
X31410D01*
Y325928D01*
X33152Y326157D01*
X35960Y327320D01*
X38370Y329170D01*
X40220Y331580D01*
X41383Y334387D01*
X41612Y336130D01*
D02*
G37*
G36*
X28870D02*
X18668D01*
X18897Y334387D01*
X20060Y331580D01*
X21910Y329170D01*
X24320Y327320D01*
X27127Y326157D01*
X28870Y325928D01*
Y336130D01*
D02*
G37*
G36*
X114540Y348540D02*
X91460D01*
Y325460D01*
X114540D01*
Y348540D01*
D02*
G37*
G36*
X68270Y316396D02*
Y312270D01*
X72396D01*
X72219Y313162D01*
X70994Y314994D01*
X69162Y316218D01*
X68270Y316396D01*
D02*
G37*
G36*
X65730D02*
X64838Y316218D01*
X63006Y314994D01*
X61781Y313162D01*
X61604Y312270D01*
X65730D01*
Y316396D01*
D02*
G37*
G36*
X72396Y309730D02*
X68270D01*
Y305604D01*
X69162Y305781D01*
X70994Y307006D01*
X72219Y308838D01*
X72396Y309730D01*
D02*
G37*
G36*
X65730D02*
X61604D01*
X61781Y308838D01*
X63006Y307006D01*
X64838Y305781D01*
X65730Y305604D01*
Y309730D01*
D02*
G37*
G36*
X408210Y308456D02*
Y304330D01*
X412336D01*
X412159Y305222D01*
X410934Y307054D01*
X409102Y308279D01*
X408210Y308456D01*
D02*
G37*
G36*
X405670D02*
X404778Y308279D01*
X402946Y307054D01*
X401721Y305222D01*
X401544Y304330D01*
X405670D01*
Y308456D01*
D02*
G37*
G36*
X814610Y320741D02*
X812250Y320431D01*
X810051Y319520D01*
X808163Y318071D01*
X806714Y316182D01*
X805803Y313983D01*
X805492Y311623D01*
X805803Y309263D01*
X806714Y307064D01*
X808163Y305176D01*
X810051Y303727D01*
X812250Y302816D01*
X814610Y302505D01*
X816970Y302816D01*
X819169Y303727D01*
X821057Y305176D01*
X822506Y307064D01*
X823417Y309263D01*
X823728Y311623D01*
X823417Y313983D01*
X822506Y316182D01*
X821057Y318071D01*
X819169Y319520D01*
X816970Y320431D01*
X814610Y320741D01*
D02*
G37*
G36*
X620000Y302649D02*
X617838Y302218D01*
X616193Y301119D01*
X585807D01*
X584162Y302218D01*
X582000Y302649D01*
X579838Y302218D01*
X578006Y300994D01*
X576781Y299162D01*
X576352Y297000D01*
X576781Y294838D01*
X578006Y293006D01*
X579838Y291781D01*
X582000Y291352D01*
X584162Y291781D01*
X585807Y292881D01*
X616193D01*
X617838Y291781D01*
X620000Y291352D01*
X622162Y291781D01*
X623994Y293006D01*
X625219Y294838D01*
X625648Y297000D01*
X625219Y299162D01*
X623994Y300994D01*
X622162Y302218D01*
X620000Y302649D01*
D02*
G37*
G36*
X412336Y301790D02*
X408210D01*
Y297664D01*
X409102Y297841D01*
X410934Y299066D01*
X412159Y300898D01*
X412336Y301790D01*
D02*
G37*
G36*
X405670D02*
X401544D01*
X401721Y300898D01*
X402946Y299066D01*
X404778Y297841D01*
X405670Y297664D01*
Y301790D01*
D02*
G37*
G36*
X68270Y296396D02*
Y292270D01*
X72396D01*
X72219Y293162D01*
X70994Y294994D01*
X69162Y296219D01*
X68270Y296396D01*
D02*
G37*
G36*
X65730D02*
X64838Y296219D01*
X63006Y294994D01*
X61781Y293162D01*
X61604Y292270D01*
X65730D01*
Y296396D01*
D02*
G37*
G36*
X637000Y325648D02*
X634838Y325219D01*
X633006Y323994D01*
X631781Y322162D01*
X631352Y320000D01*
X631781Y317838D01*
X633006Y316006D01*
X634838Y314781D01*
X637000Y314352D01*
X639162Y314781D01*
X640807Y315881D01*
X646294D01*
X666395Y295779D01*
X666781Y293838D01*
X668006Y292006D01*
X669838Y290781D01*
X672000Y290352D01*
X674162Y290781D01*
X675994Y292006D01*
X677219Y293838D01*
X677648Y296000D01*
X677219Y298162D01*
X675994Y299994D01*
X674162Y301218D01*
X672221Y301605D01*
X650913Y322913D01*
X649576Y323806D01*
X648000Y324119D01*
X640807D01*
X639162Y325219D01*
X637000Y325648D01*
D02*
G37*
G36*
X331270Y293396D02*
Y289270D01*
X335396D01*
X335219Y290162D01*
X333994Y291994D01*
X332162Y293219D01*
X331270Y293396D01*
D02*
G37*
G36*
X328730D02*
X327838Y293219D01*
X326006Y291994D01*
X324781Y290162D01*
X324604Y289270D01*
X328730D01*
Y293396D01*
D02*
G37*
G36*
X104270Y296472D02*
Y286270D01*
X114472D01*
X114243Y288013D01*
X113080Y290820D01*
X111230Y293230D01*
X108820Y295080D01*
X106012Y296243D01*
X104270Y296472D01*
D02*
G37*
G36*
X101730D02*
X99987Y296243D01*
X97180Y295080D01*
X94770Y293230D01*
X92920Y290820D01*
X91757Y288013D01*
X91528Y286270D01*
X101730D01*
Y296472D01*
D02*
G37*
G36*
X72396Y289730D02*
X68270D01*
Y285604D01*
X69162Y285781D01*
X70994Y287006D01*
X72219Y288838D01*
X72396Y289730D01*
D02*
G37*
G36*
X65730D02*
X61604D01*
X61781Y288838D01*
X63006Y287006D01*
X64838Y285781D01*
X65730Y285604D01*
Y289730D01*
D02*
G37*
G36*
X335396Y286730D02*
X331270D01*
Y282604D01*
X332162Y282782D01*
X333994Y284006D01*
X335219Y285838D01*
X335396Y286730D01*
D02*
G37*
G36*
X328730D02*
X324604D01*
X324781Y285838D01*
X326006Y284006D01*
X327838Y282782D01*
X328730Y282604D01*
Y286730D01*
D02*
G37*
G36*
X628310Y285606D02*
Y281480D01*
X632436D01*
X632259Y282372D01*
X631034Y284204D01*
X629202Y285429D01*
X628310Y285606D01*
D02*
G37*
G36*
X625770D02*
X624878Y285429D01*
X623046Y284204D01*
X621821Y282372D01*
X621644Y281480D01*
X625770D01*
Y285606D01*
D02*
G37*
G36*
X350000Y292649D02*
X347838Y292218D01*
X346006Y290994D01*
X344781Y289162D01*
X344352Y287000D01*
X344781Y284838D01*
X346006Y283006D01*
X347838Y281781D01*
X350000Y281352D01*
X352162Y281781D01*
X353994Y283006D01*
X355219Y284838D01*
X355648Y287000D01*
X355219Y289162D01*
X353994Y290994D01*
X352162Y292218D01*
X350000Y292649D01*
D02*
G37*
G36*
X814610Y295411D02*
X812250Y295101D01*
X810051Y294190D01*
X808163Y292741D01*
X806714Y290852D01*
X805803Y288653D01*
X805492Y286293D01*
X805803Y283933D01*
X806714Y281734D01*
X808163Y279846D01*
X810051Y278397D01*
X812250Y277486D01*
X814610Y277175D01*
X816970Y277486D01*
X819169Y278397D01*
X821057Y279846D01*
X822506Y281734D01*
X823417Y283933D01*
X823728Y286293D01*
X823417Y288653D01*
X822506Y290852D01*
X821057Y292741D01*
X819169Y294190D01*
X816970Y295101D01*
X814610Y295411D01*
D02*
G37*
G36*
X632436Y278940D02*
X628310D01*
Y274814D01*
X629202Y274991D01*
X631034Y276216D01*
X632259Y278048D01*
X632436Y278940D01*
D02*
G37*
G36*
X625770D02*
X621644D01*
X621821Y278048D01*
X623046Y276216D01*
X624878Y274991D01*
X625770Y274814D01*
Y278940D01*
D02*
G37*
G36*
X41680Y296940D02*
X18600D01*
Y273860D01*
X41680D01*
Y296940D01*
D02*
G37*
G36*
X114472Y283730D02*
X104270D01*
Y273528D01*
X106012Y273757D01*
X108820Y274920D01*
X111230Y276770D01*
X113080Y279180D01*
X114243Y281987D01*
X114472Y283730D01*
D02*
G37*
G36*
X101730D02*
X91528D01*
X91757Y281987D01*
X92920Y279180D01*
X94770Y276770D01*
X97180Y274920D01*
X99987Y273757D01*
X101730Y273528D01*
Y283730D01*
D02*
G37*
G36*
X815880Y269774D02*
Y262093D01*
X823561D01*
X823417Y263183D01*
X822506Y265382D01*
X821057Y267271D01*
X819169Y268720D01*
X816970Y269631D01*
X815880Y269774D01*
D02*
G37*
G36*
X813340Y269774D02*
X812250Y269631D01*
X810051Y268720D01*
X808163Y267271D01*
X806714Y265382D01*
X805803Y263183D01*
X805659Y262093D01*
X813340D01*
Y269774D01*
D02*
G37*
G36*
X795420Y266219D02*
Y262093D01*
X799546D01*
X799369Y262985D01*
X798144Y264817D01*
X796312Y266042D01*
X795420Y266219D01*
D02*
G37*
G36*
X792880D02*
X791988Y266042D01*
X790156Y264817D01*
X788931Y262985D01*
X788754Y262093D01*
X792880D01*
Y266219D01*
D02*
G37*
G36*
X31410Y271872D02*
Y261670D01*
X41612D01*
X41383Y263412D01*
X40220Y266220D01*
X38370Y268630D01*
X35960Y270480D01*
X33152Y271643D01*
X31410Y271872D01*
D02*
G37*
G36*
X28870D02*
X27127Y271643D01*
X24320Y270480D01*
X21910Y268630D01*
X20060Y266220D01*
X18897Y263412D01*
X18668Y261670D01*
X28870D01*
Y271872D01*
D02*
G37*
G36*
X68270Y264396D02*
Y260270D01*
X72396D01*
X72219Y261162D01*
X70994Y262994D01*
X69162Y264219D01*
X68270Y264396D01*
D02*
G37*
G36*
X65730D02*
X64838Y264219D01*
X63006Y262994D01*
X61781Y261162D01*
X61604Y260270D01*
X65730D01*
Y264396D01*
D02*
G37*
G36*
X593000Y267649D02*
X590838Y267219D01*
X589006Y265994D01*
X587781Y264162D01*
X587351Y262000D01*
X587781Y259838D01*
X589006Y258006D01*
X590838Y256782D01*
X593000Y256352D01*
X595162Y256782D01*
X596994Y258006D01*
X598219Y259838D01*
X598648Y262000D01*
X598219Y264162D01*
X596994Y265994D01*
X595162Y267219D01*
X593000Y267649D01*
D02*
G37*
G36*
X799546Y259553D02*
X795420D01*
Y255427D01*
X796312Y255605D01*
X798144Y256829D01*
X799369Y258662D01*
X799546Y259553D01*
D02*
G37*
G36*
X792880D02*
X788754D01*
X788931Y258662D01*
X790156Y256829D01*
X791988Y255605D01*
X792880Y255427D01*
Y259553D01*
D02*
G37*
G36*
X72396Y257730D02*
X68270D01*
Y253604D01*
X69162Y253781D01*
X70994Y255006D01*
X72219Y256838D01*
X72396Y257730D01*
D02*
G37*
G36*
X65730D02*
X61604D01*
X61781Y256838D01*
X63006Y255006D01*
X64838Y253781D01*
X65730Y253604D01*
Y257730D01*
D02*
G37*
G36*
X823561Y259553D02*
X815880D01*
Y251873D01*
X816970Y252016D01*
X819169Y252927D01*
X821057Y254376D01*
X822506Y256264D01*
X823417Y258463D01*
X823561Y259553D01*
D02*
G37*
G36*
X813340D02*
X805659D01*
X805803Y258463D01*
X806714Y256264D01*
X808163Y254376D01*
X810051Y252927D01*
X812250Y252016D01*
X813340Y251873D01*
Y259553D01*
D02*
G37*
G36*
X41612Y259130D02*
X31410D01*
Y248928D01*
X33152Y249157D01*
X35960Y250320D01*
X38370Y252170D01*
X40220Y254580D01*
X41383Y257387D01*
X41612Y259130D01*
D02*
G37*
G36*
X28870D02*
X18668D01*
X18897Y257387D01*
X20060Y254580D01*
X21910Y252170D01*
X24320Y250320D01*
X27127Y249157D01*
X28870Y248928D01*
Y259130D01*
D02*
G37*
G36*
X114540Y271540D02*
X91460D01*
Y248460D01*
X114540D01*
Y271540D01*
D02*
G37*
G36*
X522960Y244086D02*
Y239960D01*
X527086D01*
X526908Y240852D01*
X525684Y242684D01*
X523852Y243909D01*
X522960Y244086D01*
D02*
G37*
G36*
X520420D02*
X519528Y243909D01*
X517696Y242684D01*
X516471Y240852D01*
X516294Y239960D01*
X520420D01*
Y244086D01*
D02*
G37*
G36*
X68270Y243396D02*
Y239270D01*
X72396D01*
X72219Y240162D01*
X70994Y241994D01*
X69162Y243219D01*
X68270Y243396D01*
D02*
G37*
G36*
X65730D02*
X64838Y243219D01*
X63006Y241994D01*
X61781Y240162D01*
X61604Y239270D01*
X65730D01*
Y243396D01*
D02*
G37*
G36*
X527086Y237420D02*
X522960D01*
Y233294D01*
X523852Y233471D01*
X525684Y234696D01*
X526908Y236528D01*
X527086Y237420D01*
D02*
G37*
G36*
X520420D02*
X516294D01*
X516471Y236528D01*
X517696Y234696D01*
X519528Y233471D01*
X520420Y233294D01*
Y237420D01*
D02*
G37*
G36*
X72396Y236730D02*
X68270D01*
Y232604D01*
X69162Y232781D01*
X70994Y234006D01*
X72219Y235838D01*
X72396Y236730D01*
D02*
G37*
G36*
X65730D02*
X61604D01*
X61781Y235838D01*
X63006Y234006D01*
X64838Y232781D01*
X65730Y232604D01*
Y236730D01*
D02*
G37*
G36*
X68270Y223396D02*
Y219270D01*
X72396D01*
X72219Y220162D01*
X70994Y221994D01*
X69162Y223219D01*
X68270Y223396D01*
D02*
G37*
G36*
X65730D02*
X64838Y223219D01*
X63006Y221994D01*
X61781Y220162D01*
X61604Y219270D01*
X65730D01*
Y223396D01*
D02*
G37*
G36*
X72396Y216730D02*
X68270D01*
Y212604D01*
X69162Y212781D01*
X70994Y214006D01*
X72219Y215838D01*
X72396Y216730D01*
D02*
G37*
G36*
X65730D02*
X61604D01*
X61781Y215838D01*
X63006Y214006D01*
X64838Y212781D01*
X65730Y212604D01*
Y216730D01*
D02*
G37*
G36*
X794150Y223215D02*
X791988Y222785D01*
X790156Y221561D01*
X788931Y219728D01*
X788501Y217567D01*
X788931Y215405D01*
X790156Y213573D01*
X791988Y212348D01*
X794150Y211918D01*
X796312Y212348D01*
X798144Y213573D01*
X799369Y215405D01*
X799799Y217567D01*
X799369Y219728D01*
X798144Y221561D01*
X796312Y222785D01*
X794150Y223215D01*
D02*
G37*
G36*
X627000Y222649D02*
X624838Y222219D01*
X623006Y220994D01*
X621781Y219162D01*
X621352Y217000D01*
X621781Y214838D01*
X623006Y213006D01*
X624838Y211781D01*
X627000Y211352D01*
X629162Y211781D01*
X630994Y213006D01*
X632219Y214838D01*
X632649Y217000D01*
X632219Y219162D01*
X630994Y220994D01*
X629162Y222219D01*
X627000Y222649D01*
D02*
G37*
G36*
X104270Y219532D02*
Y209330D01*
X114472D01*
X114243Y211073D01*
X113080Y213880D01*
X111230Y216290D01*
X108820Y218140D01*
X106012Y219303D01*
X104270Y219532D01*
D02*
G37*
G36*
X101730Y219532D02*
X99987Y219303D01*
X97180Y218140D01*
X94770Y216290D01*
X92920Y213880D01*
X91757Y211073D01*
X91528Y209330D01*
X101730D01*
Y219532D01*
D02*
G37*
G36*
X823650Y226607D02*
X805570D01*
Y208527D01*
X823650D01*
Y226607D01*
D02*
G37*
G36*
X41680Y220000D02*
X18600D01*
Y196920D01*
X41680D01*
Y220000D01*
D02*
G37*
G36*
X101730Y206790D02*
X91528D01*
X91757Y205047D01*
X92920Y202240D01*
X94770Y199830D01*
X97180Y197980D01*
X99987Y196817D01*
X101730Y196588D01*
Y206790D01*
D02*
G37*
G36*
X114472D02*
X104270D01*
Y196588D01*
X106012Y196817D01*
X108820Y197980D01*
X111230Y199830D01*
X113080Y202240D01*
X114243Y205047D01*
X114472Y206790D01*
D02*
G37*
G36*
X31410Y194932D02*
Y184730D01*
X41612D01*
X41383Y186473D01*
X40220Y189280D01*
X38370Y191690D01*
X35960Y193540D01*
X33152Y194703D01*
X31410Y194932D01*
D02*
G37*
G36*
X28870Y194932D02*
X27127Y194703D01*
X24320Y193540D01*
X21910Y191690D01*
X20060Y189280D01*
X18897Y186473D01*
X18668Y184730D01*
X28870D01*
Y194932D01*
D02*
G37*
G36*
X814610Y201685D02*
X812250Y201374D01*
X810051Y200463D01*
X808163Y199014D01*
X806714Y197126D01*
X805803Y194927D01*
X805492Y192567D01*
X805803Y190207D01*
X806714Y188008D01*
X808163Y186119D01*
X810051Y184670D01*
X812250Y183759D01*
X814610Y183449D01*
X816970Y183759D01*
X819169Y184670D01*
X821057Y186119D01*
X822506Y188008D01*
X823417Y190207D01*
X823728Y192567D01*
X823417Y194927D01*
X822506Y197126D01*
X821057Y199014D01*
X819169Y200463D01*
X816970Y201374D01*
X814610Y201685D01*
D02*
G37*
G36*
X68270Y183396D02*
Y179270D01*
X72396D01*
X72219Y180162D01*
X70994Y181994D01*
X69162Y183219D01*
X68270Y183396D01*
D02*
G37*
G36*
X65730D02*
X64838Y183219D01*
X63006Y181994D01*
X61781Y180162D01*
X61604Y179270D01*
X65730D01*
Y183396D01*
D02*
G37*
G36*
X460000Y193648D02*
X457838Y193218D01*
X456193Y192119D01*
X403000D01*
X401424Y191806D01*
X400087Y190913D01*
X382294Y173119D01*
X262851D01*
X261274Y172806D01*
X259938Y171913D01*
X234737Y146711D01*
X232796Y146325D01*
X230963Y145101D01*
X229739Y143268D01*
X229309Y141107D01*
X229739Y138945D01*
X230690Y137521D01*
X229781Y136162D01*
X229352Y134000D01*
X229781Y131838D01*
X231006Y130006D01*
X232838Y128781D01*
X235000Y128351D01*
X237162Y128781D01*
X238994Y130006D01*
X240219Y131838D01*
X240403Y132766D01*
X267518Y159881D01*
X386000D01*
X387576Y160194D01*
X388913Y161087D01*
X405171Y177345D01*
X455779D01*
X456006Y177006D01*
X457838Y175781D01*
X460000Y175352D01*
X462162Y175781D01*
X463994Y177006D01*
X465219Y178838D01*
X465648Y181000D01*
X465219Y183162D01*
X464324Y184500D01*
X465219Y185838D01*
X465648Y188000D01*
X465219Y190162D01*
X463994Y191994D01*
X462162Y193218D01*
X460000Y193648D01*
D02*
G37*
G36*
X72396Y176730D02*
X68270D01*
Y172604D01*
X69162Y172781D01*
X70994Y174006D01*
X72219Y175838D01*
X72396Y176730D01*
D02*
G37*
G36*
X65730D02*
X61604D01*
X61781Y175838D01*
X63006Y174006D01*
X64838Y172781D01*
X65730Y172604D01*
Y176730D01*
D02*
G37*
G36*
X41612Y182190D02*
X31410D01*
Y171988D01*
X33152Y172217D01*
X35960Y173380D01*
X38370Y175230D01*
X40220Y177640D01*
X41383Y180448D01*
X41612Y182190D01*
D02*
G37*
G36*
X28870D02*
X18668D01*
X18897Y180448D01*
X20060Y177640D01*
X21910Y175230D01*
X24320Y173380D01*
X27127Y172217D01*
X28870Y171988D01*
Y182190D01*
D02*
G37*
G36*
X114540Y194600D02*
X91460D01*
Y171520D01*
X114540D01*
Y194600D01*
D02*
G37*
G36*
X68270Y165396D02*
Y161270D01*
X72396D01*
X72219Y162162D01*
X70994Y163994D01*
X69162Y165219D01*
X68270Y165396D01*
D02*
G37*
G36*
X65730D02*
X64838Y165219D01*
X63006Y163994D01*
X61781Y162162D01*
X61604Y161270D01*
X65730D01*
Y165396D01*
D02*
G37*
G36*
X814610Y176355D02*
X812250Y176044D01*
X810051Y175133D01*
X808163Y173684D01*
X806714Y171796D01*
X805803Y169597D01*
X805492Y167237D01*
X805803Y164877D01*
X806714Y162678D01*
X808163Y160789D01*
X810051Y159340D01*
X812250Y158429D01*
X814610Y158119D01*
X816970Y158429D01*
X819169Y159340D01*
X821057Y160789D01*
X822506Y162678D01*
X823417Y164877D01*
X823728Y167237D01*
X823417Y169597D01*
X822506Y171796D01*
X821057Y173684D01*
X819169Y175133D01*
X816970Y176044D01*
X814610Y176355D01*
D02*
G37*
G36*
X72396Y158730D02*
X68270D01*
Y154604D01*
X69162Y154782D01*
X70994Y156006D01*
X72219Y157838D01*
X72396Y158730D01*
D02*
G37*
G36*
X65730D02*
X61604D01*
X61781Y157838D01*
X63006Y156006D01*
X64838Y154782D01*
X65730Y154604D01*
Y158730D01*
D02*
G37*
G36*
X303270Y153396D02*
Y149270D01*
X307396D01*
X307219Y150162D01*
X305994Y151994D01*
X304162Y153219D01*
X303270Y153396D01*
D02*
G37*
G36*
X300730D02*
X299838Y153219D01*
X298006Y151994D01*
X296781Y150162D01*
X296604Y149270D01*
X300730D01*
Y153396D01*
D02*
G37*
G36*
X815880Y150717D02*
Y143037D01*
X823561D01*
X823417Y144127D01*
X822506Y146326D01*
X821057Y148214D01*
X819169Y149663D01*
X816970Y150574D01*
X815880Y150717D01*
D02*
G37*
G36*
X813340Y150717D02*
X812250Y150574D01*
X810051Y149663D01*
X808163Y148214D01*
X806714Y146326D01*
X805803Y144127D01*
X805659Y143037D01*
X813340D01*
Y150717D01*
D02*
G37*
G36*
X795420Y147163D02*
Y143037D01*
X799546D01*
X799369Y143928D01*
X798144Y145761D01*
X796312Y146985D01*
X795420Y147163D01*
D02*
G37*
G36*
X792880D02*
X791988Y146985D01*
X790156Y145761D01*
X788931Y143928D01*
X788754Y143037D01*
X792880D01*
Y147163D01*
D02*
G37*
G36*
X307396Y146730D02*
X303270D01*
Y142604D01*
X304162Y142781D01*
X305994Y144006D01*
X307219Y145838D01*
X307396Y146730D01*
D02*
G37*
G36*
X300730D02*
X296604D01*
X296781Y145838D01*
X298006Y144006D01*
X299838Y142781D01*
X300730Y142604D01*
Y146730D01*
D02*
G37*
G36*
X799546Y140497D02*
X795420D01*
Y136371D01*
X796312Y136548D01*
X798144Y137773D01*
X799369Y139605D01*
X799546Y140497D01*
D02*
G37*
G36*
X792880D02*
X788754D01*
X788931Y139605D01*
X790156Y137773D01*
X791988Y136548D01*
X792880Y136371D01*
Y140497D01*
D02*
G37*
G36*
X68270Y140396D02*
Y136270D01*
X72396D01*
X72219Y137162D01*
X70994Y138994D01*
X69162Y140218D01*
X68270Y140396D01*
D02*
G37*
G36*
X65730D02*
X64838Y140218D01*
X63006Y138994D01*
X61781Y137162D01*
X61604Y136270D01*
X65730D01*
Y140396D01*
D02*
G37*
G36*
X103270Y143472D02*
Y133270D01*
X113472D01*
X113243Y135013D01*
X112080Y137820D01*
X110230Y140230D01*
X107820Y142080D01*
X105013Y143243D01*
X103270Y143472D01*
D02*
G37*
G36*
X100730D02*
X98988Y143243D01*
X96180Y142080D01*
X93770Y140230D01*
X91920Y137820D01*
X90757Y135013D01*
X90528Y133270D01*
X100730D01*
Y143472D01*
D02*
G37*
G36*
X823561Y140497D02*
X815880D01*
Y132816D01*
X816970Y132959D01*
X819169Y133870D01*
X821057Y135319D01*
X822506Y137208D01*
X823417Y139407D01*
X823561Y140497D01*
D02*
G37*
G36*
X813340D02*
X805659D01*
X805803Y139407D01*
X806714Y137208D01*
X808163Y135319D01*
X810051Y133870D01*
X812250Y132959D01*
X813340Y132816D01*
Y140497D01*
D02*
G37*
G36*
X72396Y133730D02*
X68270D01*
Y129604D01*
X69162Y129781D01*
X70994Y131006D01*
X72219Y132838D01*
X72396Y133730D01*
D02*
G37*
G36*
X65730D02*
X61604D01*
X61781Y132838D01*
X63006Y131006D01*
X64838Y129781D01*
X65730Y129604D01*
Y133730D01*
D02*
G37*
G36*
X348750Y137399D02*
X346588Y136968D01*
X344756Y135744D01*
X343531Y133912D01*
X343101Y131750D01*
X343531Y129588D01*
X344756Y127756D01*
X346588Y126531D01*
X348750Y126101D01*
X350912Y126531D01*
X352744Y127756D01*
X353969Y129588D01*
X354398Y131750D01*
X353969Y133912D01*
X352744Y135744D01*
X350912Y136968D01*
X348750Y137399D01*
D02*
G37*
G36*
X40540Y144540D02*
X17460D01*
Y121460D01*
X40540D01*
Y144540D01*
D02*
G37*
G36*
X113472Y130730D02*
X103270D01*
Y120528D01*
X105013Y120757D01*
X107820Y121920D01*
X110230Y123770D01*
X112080Y126180D01*
X113243Y128987D01*
X113472Y130730D01*
D02*
G37*
G36*
X100730D02*
X90528D01*
X90757Y128987D01*
X91920Y126180D01*
X93770Y123770D01*
X96180Y121920D01*
X98988Y120757D01*
X100730Y120528D01*
Y130730D01*
D02*
G37*
G36*
X68270Y121396D02*
Y117270D01*
X72396D01*
X72219Y118162D01*
X70994Y119994D01*
X69162Y121219D01*
X68270Y121396D01*
D02*
G37*
G36*
X65730D02*
X64838Y121219D01*
X63006Y119994D01*
X61781Y118162D01*
X61604Y117270D01*
X65730D01*
Y121396D01*
D02*
G37*
G36*
X72396Y114730D02*
X68270D01*
Y110604D01*
X69162Y110781D01*
X70994Y112006D01*
X72219Y113838D01*
X72396Y114730D01*
D02*
G37*
G36*
X65730D02*
X61604D01*
X61781Y113838D01*
X63006Y112006D01*
X64838Y110781D01*
X65730Y110604D01*
Y114730D01*
D02*
G37*
G36*
X68270Y102396D02*
Y98270D01*
X72396D01*
X72219Y99162D01*
X70994Y100994D01*
X69162Y102219D01*
X68270Y102396D01*
D02*
G37*
G36*
X65730D02*
X64838Y102219D01*
X63006Y100994D01*
X61781Y99162D01*
X61604Y98270D01*
X65730D01*
Y102396D01*
D02*
G37*
G36*
X29000Y119640D02*
X25988Y119243D01*
X23180Y118080D01*
X20770Y116230D01*
X18920Y113820D01*
X17757Y111012D01*
X17360Y108000D01*
X17757Y104987D01*
X18920Y102180D01*
X20770Y99770D01*
X23180Y97920D01*
X25988Y96757D01*
X29000Y96360D01*
X32013Y96757D01*
X34820Y97920D01*
X37230Y99770D01*
X39080Y102180D01*
X40243Y104987D01*
X40640Y108000D01*
X40243Y111012D01*
X39080Y113820D01*
X37230Y116230D01*
X34820Y118080D01*
X32013Y119243D01*
X29000Y119640D01*
D02*
G37*
G36*
X102000Y118639D02*
X98988Y118243D01*
X96180Y117080D01*
X93770Y115230D01*
X91920Y112820D01*
X90757Y110013D01*
X90360Y107000D01*
X90757Y103987D01*
X91920Y101180D01*
X93770Y98770D01*
X96180Y96920D01*
X98988Y95757D01*
X102000Y95360D01*
X105013Y95757D01*
X107820Y96920D01*
X110230Y98770D01*
X112080Y101180D01*
X113243Y103987D01*
X113639Y107000D01*
X113243Y110013D01*
X112080Y112820D01*
X110230Y115230D01*
X107820Y117080D01*
X105013Y118243D01*
X102000Y118639D01*
D02*
G37*
G36*
X794150Y104158D02*
X791988Y103729D01*
X790156Y102504D01*
X788931Y100672D01*
X788501Y98510D01*
X788931Y96348D01*
X790156Y94516D01*
X791988Y93291D01*
X794150Y92861D01*
X796312Y93291D01*
X798144Y94516D01*
X799369Y96348D01*
X799799Y98510D01*
X799369Y100672D01*
X798144Y102504D01*
X796312Y103729D01*
X794150Y104158D01*
D02*
G37*
G36*
X544490Y103159D02*
X542328Y102729D01*
X540496Y101504D01*
X539271Y99672D01*
X538842Y97510D01*
X539271Y95348D01*
X540496Y93516D01*
X542328Y92291D01*
X544490Y91861D01*
X546652Y92291D01*
X548484Y93516D01*
X549709Y95348D01*
X550139Y97510D01*
X549709Y99672D01*
X548484Y101504D01*
X546652Y102729D01*
X544490Y103159D01*
D02*
G37*
G36*
X72396Y95730D02*
X68270D01*
Y91604D01*
X69162Y91781D01*
X70994Y93006D01*
X72219Y94838D01*
X72396Y95730D01*
D02*
G37*
G36*
X65730D02*
X61604D01*
X61781Y94838D01*
X63006Y93006D01*
X64838Y91781D01*
X65730Y91604D01*
Y95730D01*
D02*
G37*
G36*
X823650Y107550D02*
X805570D01*
Y89470D01*
X823650D01*
Y107550D01*
D02*
G37*
G36*
X30270Y94472D02*
Y84270D01*
X40472D01*
X40243Y86012D01*
X39080Y88820D01*
X37230Y91230D01*
X34820Y93080D01*
X32013Y94243D01*
X30270Y94472D01*
D02*
G37*
G36*
X27730D02*
X25988Y94243D01*
X23180Y93080D01*
X20770Y91230D01*
X18920Y88820D01*
X17757Y86012D01*
X17528Y84270D01*
X27730D01*
Y94472D01*
D02*
G37*
G36*
X663270Y86396D02*
Y82270D01*
X667396D01*
X667219Y83162D01*
X665994Y84994D01*
X664162Y86219D01*
X663270Y86396D01*
D02*
G37*
G36*
X660730D02*
X659838Y86219D01*
X658006Y84994D01*
X656781Y83162D01*
X656604Y82270D01*
X660730D01*
Y86396D01*
D02*
G37*
G36*
X572650Y86016D02*
Y81890D01*
X576776D01*
X576599Y82782D01*
X575374Y84614D01*
X573542Y85839D01*
X572650Y86016D01*
D02*
G37*
G36*
X570110D02*
X569218Y85839D01*
X567386Y84614D01*
X566161Y82782D01*
X565984Y81890D01*
X570110D01*
Y86016D01*
D02*
G37*
G36*
X68270Y83396D02*
Y79270D01*
X72396D01*
X72219Y80162D01*
X70994Y81994D01*
X69162Y83219D01*
X68270Y83396D01*
D02*
G37*
G36*
X65730D02*
X64838Y83219D01*
X63006Y81994D01*
X61781Y80162D01*
X61604Y79270D01*
X65730D01*
Y83396D01*
D02*
G37*
G36*
X434635Y82716D02*
Y78590D01*
X438761D01*
X438584Y79482D01*
X437359Y81314D01*
X435527Y82538D01*
X434635Y82716D01*
D02*
G37*
G36*
X432095D02*
X431203Y82538D01*
X429371Y81314D01*
X428146Y79482D01*
X427969Y78590D01*
X432095D01*
Y82716D01*
D02*
G37*
G36*
X667396Y79730D02*
X663270D01*
Y75604D01*
X664162Y75781D01*
X665994Y77006D01*
X667219Y78838D01*
X667396Y79730D01*
D02*
G37*
G36*
X660730D02*
X656604D01*
X656781Y78838D01*
X658006Y77006D01*
X659838Y75781D01*
X660730Y75604D01*
Y79730D01*
D02*
G37*
G36*
X576776Y79350D02*
X572650D01*
Y75224D01*
X573542Y75401D01*
X575374Y76626D01*
X576599Y78458D01*
X576776Y79350D01*
D02*
G37*
G36*
X570110D02*
X565984D01*
X566161Y78458D01*
X567386Y76626D01*
X569218Y75401D01*
X570110Y75224D01*
Y79350D01*
D02*
G37*
G36*
X72396Y76730D02*
X68270D01*
Y72604D01*
X69162Y72781D01*
X70994Y74006D01*
X72219Y75838D01*
X72396Y76730D01*
D02*
G37*
G36*
X65730D02*
X61604D01*
X61781Y75838D01*
X63006Y74006D01*
X64838Y72781D01*
X65730Y72604D01*
Y76730D01*
D02*
G37*
G36*
X438761Y76050D02*
X434635D01*
Y71924D01*
X435527Y72101D01*
X437359Y73326D01*
X438584Y75158D01*
X438761Y76050D01*
D02*
G37*
G36*
X432095D02*
X427969D01*
X428146Y75158D01*
X429371Y73326D01*
X431203Y72101D01*
X432095Y71924D01*
Y76050D01*
D02*
G37*
G36*
X40472Y81730D02*
X30270D01*
Y71528D01*
X32013Y71757D01*
X34820Y72920D01*
X37230Y74770D01*
X39080Y77180D01*
X40243Y79987D01*
X40472Y81730D01*
D02*
G37*
G36*
X27730D02*
X17528D01*
X17757Y79987D01*
X18920Y77180D01*
X20770Y74770D01*
X23180Y72920D01*
X25988Y71757D01*
X27730Y71528D01*
Y81730D01*
D02*
G37*
G36*
X113540Y93540D02*
X90460D01*
Y70460D01*
X113540D01*
Y93540D01*
D02*
G37*
G36*
X814610Y82628D02*
X812250Y82317D01*
X810051Y81406D01*
X808163Y79957D01*
X806714Y78069D01*
X805803Y75870D01*
X805492Y73510D01*
X805803Y71150D01*
X806714Y68951D01*
X808163Y67063D01*
X810051Y65614D01*
X812250Y64703D01*
X814610Y64392D01*
X816970Y64703D01*
X819169Y65614D01*
X821057Y67063D01*
X822506Y68951D01*
X823417Y71150D01*
X823728Y73510D01*
X823417Y75870D01*
X822506Y78069D01*
X821057Y79957D01*
X819169Y81406D01*
X816970Y82317D01*
X814610Y82628D01*
D02*
G37*
G36*
X68270Y64396D02*
Y60270D01*
X72396D01*
X72219Y61162D01*
X70994Y62994D01*
X69162Y64219D01*
D01*
X68270Y64396D01*
D02*
G37*
G36*
X65730D02*
X64838Y64219D01*
X63006Y62994D01*
X61781Y61162D01*
X61604Y60270D01*
X65730D01*
Y64396D01*
D02*
G37*
G36*
X655470Y61951D02*
Y54270D01*
X663151D01*
X663007Y55360D01*
X662096Y57559D01*
X660647Y59447D01*
X658759Y60896D01*
X656560Y61807D01*
X655470Y61951D01*
D02*
G37*
G36*
X652930D02*
X651840Y61807D01*
X649641Y60896D01*
X647753Y59447D01*
X646304Y57559D01*
X645393Y55360D01*
X645249Y54270D01*
X652930D01*
Y61951D01*
D02*
G37*
G36*
X72396Y57730D02*
X68270D01*
Y53604D01*
X69162Y53781D01*
X70994Y55006D01*
X72219Y56838D01*
X72396Y57730D01*
D02*
G37*
G36*
X65730D02*
X61604D01*
X61781Y56838D01*
X63006Y55006D01*
X64838Y53781D01*
X65730Y53604D01*
Y57730D01*
D02*
G37*
G36*
X663151Y51730D02*
X655470D01*
Y44049D01*
X656560Y44193D01*
X658759Y45104D01*
X660647Y46553D01*
X662096Y48441D01*
X663007Y50640D01*
X663151Y51730D01*
D02*
G37*
G36*
X652930D02*
X645249D01*
X645393Y50640D01*
X646304Y48441D01*
X647753Y46553D01*
X649641Y45104D01*
X651840Y44193D01*
X652930Y44049D01*
Y51730D01*
D02*
G37*
G36*
X739040Y62040D02*
X720960D01*
Y43960D01*
X739040D01*
Y62040D01*
D02*
G37*
G36*
X705000Y62118D02*
X702640Y61807D01*
X700441Y60896D01*
X698553Y59447D01*
X697104Y57559D01*
X696193Y55360D01*
X695882Y53000D01*
X696193Y50640D01*
X697104Y48441D01*
X698553Y46553D01*
X700441Y45104D01*
X702640Y44193D01*
X705000Y43882D01*
X707360Y44193D01*
X709559Y45104D01*
X711447Y46553D01*
X712896Y48441D01*
X713807Y50640D01*
X714118Y53000D01*
X713807Y55360D01*
X712896Y57559D01*
X711447Y59447D01*
X709559Y60896D01*
X707360Y61807D01*
X705000Y62118D01*
D02*
G37*
G36*
X679670D02*
X677310Y61807D01*
X675111Y60896D01*
X673223Y59447D01*
X671774Y57559D01*
X670863Y55360D01*
X670552Y53000D01*
X670863Y50640D01*
X671774Y48441D01*
X673223Y46553D01*
X675111Y45104D01*
X677310Y44193D01*
X679670Y43882D01*
X682030Y44193D01*
X684229Y45104D01*
X686117Y46553D01*
X687566Y48441D01*
X688477Y50640D01*
X688788Y53000D01*
X688477Y55360D01*
X687566Y57559D01*
X686117Y59447D01*
X684229Y60896D01*
X682030Y61807D01*
X679670Y62118D01*
D02*
G37*
G36*
X814610Y57298D02*
X812250Y56987D01*
X810051Y56076D01*
X808163Y54627D01*
X806714Y52739D01*
X805803Y50540D01*
X805492Y48180D01*
X805803Y45820D01*
X806714Y43621D01*
X808163Y41733D01*
X810051Y40284D01*
X812250Y39373D01*
X814610Y39062D01*
X816970Y39373D01*
X819169Y40284D01*
X821057Y41733D01*
X822506Y43621D01*
X823417Y45820D01*
X823728Y48180D01*
X823417Y50540D01*
X822506Y52739D01*
X821057Y54627D01*
X819169Y56076D01*
X816970Y56987D01*
X814610Y57298D01*
D02*
G37*
G36*
X554650Y55558D02*
X552290Y55247D01*
X550091Y54336D01*
X548203Y52887D01*
X546754Y50999D01*
X545843Y48800D01*
X545532Y46440D01*
X545843Y44080D01*
X546754Y41881D01*
X548203Y39993D01*
X550091Y38544D01*
X552290Y37633D01*
X554650Y37322D01*
X557010Y37633D01*
X559209Y38544D01*
X561097Y39993D01*
X562546Y41881D01*
X563457Y44080D01*
X563768Y46440D01*
X563457Y48800D01*
X562546Y50999D01*
X561097Y52887D01*
X559209Y54336D01*
X557010Y55247D01*
X554650Y55558D01*
D02*
G37*
G36*
X287270Y45472D02*
Y35270D01*
X297472D01*
X297243Y37013D01*
X296080Y39820D01*
X294230Y42230D01*
X291820Y44080D01*
X289013Y45243D01*
X287270Y45472D01*
D02*
G37*
G36*
X284730D02*
X282987Y45243D01*
X280180Y44080D01*
X277770Y42230D01*
X275920Y39820D01*
X274757Y37013D01*
X274528Y35270D01*
X284730D01*
Y45472D01*
D02*
G37*
G36*
X815880Y31661D02*
Y23980D01*
X823561D01*
X823417Y25070D01*
X822506Y27269D01*
X821057Y29157D01*
X819169Y30606D01*
X816970Y31517D01*
X815880Y31661D01*
D02*
G37*
G36*
X813340Y31661D02*
X812250Y31517D01*
X810051Y30606D01*
X808163Y29157D01*
X806714Y27269D01*
X805803Y25070D01*
X805659Y23980D01*
X813340D01*
Y31661D01*
D02*
G37*
G36*
X795420Y28106D02*
Y23980D01*
X799546D01*
X799369Y24872D01*
X798144Y26704D01*
X796312Y27929D01*
X795420Y28106D01*
D02*
G37*
G36*
X792880D02*
X791988Y27929D01*
X790156Y26704D01*
X788931Y24872D01*
X788754Y23980D01*
X792880D01*
Y28106D01*
D02*
G37*
G36*
X297472Y32730D02*
X287270D01*
Y22528D01*
X289013Y22757D01*
X291820Y23920D01*
X294230Y25770D01*
X296080Y28180D01*
X297243Y30987D01*
X297472Y32730D01*
D02*
G37*
G36*
X284730D02*
X274528D01*
X274757Y30987D01*
X275920Y28180D01*
X277770Y25770D01*
X280180Y23920D01*
X282987Y22757D01*
X284730Y22528D01*
Y32730D01*
D02*
G37*
G36*
X471940Y27951D02*
Y20270D01*
X479621D01*
X479477Y21360D01*
X478566Y23559D01*
X477117Y25447D01*
X475229Y26896D01*
X473030Y27807D01*
X471940Y27951D01*
D02*
G37*
G36*
X469400D02*
X468310Y27807D01*
X466111Y26896D01*
X464223Y25447D01*
X462774Y23559D01*
X461863Y21360D01*
X461719Y20270D01*
X469400D01*
Y27951D01*
D02*
G37*
G36*
X412740D02*
Y20270D01*
X420421D01*
X420277Y21360D01*
X419366Y23559D01*
X417917Y25447D01*
X416029Y26896D01*
X413830Y27807D01*
X412740Y27951D01*
D02*
G37*
G36*
X410200D02*
X409110Y27807D01*
X406911Y26896D01*
X405023Y25447D01*
X403574Y23559D01*
X402663Y21360D01*
X402519Y20270D01*
X410200D01*
Y27951D01*
D02*
G37*
G36*
X654470Y26951D02*
Y19270D01*
X662151D01*
X662007Y20360D01*
X661096Y22559D01*
X659647Y24447D01*
X657759Y25896D01*
X655560Y26807D01*
X654470Y26951D01*
D02*
G37*
G36*
X651930Y26951D02*
X650840Y26807D01*
X648641Y25896D01*
X646753Y24447D01*
X645304Y22559D01*
X644393Y20360D01*
X644249Y19270D01*
X651930D01*
Y26951D01*
D02*
G37*
G36*
X799546Y21440D02*
X795420D01*
Y17314D01*
X796312Y17491D01*
X798144Y18716D01*
X799369Y20548D01*
X799546Y21440D01*
D02*
G37*
G36*
X792880D02*
X788754D01*
X788931Y20548D01*
X790156Y18716D01*
X791988Y17491D01*
X792880Y17314D01*
Y21440D01*
D02*
G37*
G36*
X823561Y21440D02*
X815880D01*
Y13759D01*
X816970Y13903D01*
X819169Y14814D01*
X821057Y16263D01*
X822506Y18151D01*
X823417Y20350D01*
X823561Y21440D01*
D02*
G37*
G36*
X813340D02*
X805659D01*
X805803Y20350D01*
X806714Y18151D01*
X808163Y16263D01*
X810051Y14814D01*
X812250Y13903D01*
X813340Y13759D01*
Y21440D01*
D02*
G37*
G36*
X563690Y30480D02*
X545610D01*
Y12400D01*
X563690D01*
Y30480D01*
D02*
G37*
G36*
X479621Y17730D02*
X471940D01*
Y10049D01*
X473030Y10193D01*
X475229Y11104D01*
X477117Y12553D01*
X478566Y14441D01*
X479477Y16640D01*
X479621Y17730D01*
D02*
G37*
G36*
X469400D02*
X461719D01*
X461863Y16640D01*
X462774Y14441D01*
X464223Y12553D01*
X466111Y11104D01*
X468310Y10193D01*
X469400Y10049D01*
Y17730D01*
D02*
G37*
G36*
X420421D02*
X412740D01*
Y10049D01*
X413830Y10193D01*
X416029Y11104D01*
X417917Y12553D01*
X419366Y14441D01*
X420277Y16640D01*
X420421Y17730D01*
D02*
G37*
G36*
X410200D02*
X402519D01*
X402663Y16640D01*
X403574Y14441D01*
X405023Y12553D01*
X406911Y11104D01*
X409110Y10193D01*
X410200Y10049D01*
Y17730D01*
D02*
G37*
G36*
X454710Y28040D02*
X436630D01*
Y9960D01*
X454710D01*
Y28040D01*
D02*
G37*
G36*
X344710D02*
X326630D01*
Y9960D01*
X344710D01*
Y28040D01*
D02*
G37*
G36*
X521470Y28118D02*
X519110Y27807D01*
X516911Y26896D01*
X515023Y25447D01*
X513574Y23559D01*
X512663Y21360D01*
X512352Y19000D01*
X512663Y16640D01*
X513574Y14441D01*
X515023Y12553D01*
X516911Y11104D01*
X519110Y10193D01*
X521470Y9882D01*
X523830Y10193D01*
X526029Y11104D01*
X527917Y12553D01*
X529366Y14441D01*
X530277Y16640D01*
X530588Y19000D01*
X530277Y21360D01*
X529366Y23559D01*
X527917Y25447D01*
X526029Y26896D01*
X523830Y27807D01*
X521470Y28118D01*
D02*
G37*
G36*
X496000D02*
X493640Y27807D01*
X491441Y26896D01*
X489553Y25447D01*
X488104Y23559D01*
X487193Y21360D01*
X486882Y19000D01*
X487193Y16640D01*
X488104Y14441D01*
X489553Y12553D01*
X491441Y11104D01*
X493640Y10193D01*
X496000Y9882D01*
X498360Y10193D01*
X500559Y11104D01*
X502447Y12553D01*
X503896Y14441D01*
X504807Y16640D01*
X505118Y19000D01*
X504807Y21360D01*
X503896Y23559D01*
X502447Y25447D01*
X500559Y26896D01*
X498360Y27807D01*
X496000Y28118D01*
D02*
G37*
G36*
X386000D02*
X383640Y27807D01*
X381441Y26896D01*
X379553Y25447D01*
X378104Y23559D01*
X377193Y21360D01*
X376882Y19000D01*
X377193Y16640D01*
X378104Y14441D01*
X379553Y12553D01*
X381441Y11104D01*
X383640Y10193D01*
X386000Y9882D01*
X388360Y10193D01*
X390559Y11104D01*
X392447Y12553D01*
X393896Y14441D01*
X394807Y16640D01*
X395118Y19000D01*
X394807Y21360D01*
X393896Y23559D01*
X392447Y25447D01*
X390559Y26896D01*
X388360Y27807D01*
X386000Y28118D01*
D02*
G37*
G36*
X360670D02*
X358310Y27807D01*
X356111Y26896D01*
X354223Y25447D01*
X352774Y23559D01*
X351863Y21360D01*
X351552Y19000D01*
X351863Y16640D01*
X352774Y14441D01*
X354223Y12553D01*
X356111Y11104D01*
X358310Y10193D01*
X360670Y9882D01*
X363030Y10193D01*
X365229Y11104D01*
X367117Y12553D01*
X368566Y14441D01*
X369477Y16640D01*
X369788Y19000D01*
X369477Y21360D01*
X368566Y23559D01*
X367117Y25447D01*
X365229Y26896D01*
X363030Y27807D01*
X360670Y28118D01*
D02*
G37*
G36*
X651930Y16730D02*
X644249D01*
X644393Y15640D01*
X645304Y13441D01*
X646753Y11553D01*
X648641Y10104D01*
X650840Y9193D01*
X651930Y9049D01*
Y16730D01*
D02*
G37*
G36*
X662151D02*
X654470D01*
Y9049D01*
X655560Y9193D01*
X657759Y10104D01*
X659647Y11553D01*
X661096Y13441D01*
X662007Y15640D01*
X662151Y16730D01*
D02*
G37*
G36*
X738040Y27040D02*
X719960D01*
Y8960D01*
X738040D01*
Y27040D01*
D02*
G37*
G36*
X704000Y27118D02*
X701640Y26807D01*
X699441Y25896D01*
X697553Y24447D01*
X696104Y22559D01*
X695193Y20360D01*
X694882Y18000D01*
X695193Y15640D01*
X696104Y13441D01*
X697553Y11553D01*
X699441Y10104D01*
X701640Y9193D01*
X704000Y8882D01*
X706360Y9193D01*
X708559Y10104D01*
X710447Y11553D01*
X711896Y13441D01*
X712807Y15640D01*
X713118Y18000D01*
X712807Y20360D01*
X711896Y22559D01*
X710447Y24447D01*
X708559Y25896D01*
X706360Y26807D01*
X704000Y27118D01*
D02*
G37*
G36*
X678670D02*
X676310Y26807D01*
X674111Y25896D01*
X672223Y24447D01*
X670774Y22559D01*
X669863Y20360D01*
X669552Y18000D01*
X669863Y15640D01*
X670774Y13441D01*
X672223Y11553D01*
X674111Y10104D01*
X676310Y9193D01*
X678670Y8882D01*
X681030Y9193D01*
X683229Y10104D01*
X685117Y11553D01*
X686566Y13441D01*
X687477Y15640D01*
X687788Y18000D01*
X687477Y20360D01*
X686566Y22559D01*
X685117Y24447D01*
X683229Y25896D01*
X681030Y26807D01*
X678670Y27118D01*
D02*
G37*
G36*
X605060Y50439D02*
X600641Y50004D01*
X596393Y48715D01*
X592477Y46622D01*
X589045Y43805D01*
X586228Y40373D01*
X584135Y36457D01*
X582846Y32209D01*
X582411Y27790D01*
X582846Y23371D01*
X584135Y19123D01*
X586228Y15207D01*
X589045Y11775D01*
X592477Y8958D01*
X596393Y6865D01*
X600641Y5576D01*
X605060Y5141D01*
X609479Y5576D01*
X613727Y6865D01*
X617643Y8958D01*
X621075Y11775D01*
X623892Y15207D01*
X625985Y19123D01*
X627274Y23371D01*
X627709Y27790D01*
X627274Y32209D01*
X625985Y36457D01*
X623892Y40373D01*
X621075Y43805D01*
X617643Y46622D01*
X613727Y48715D01*
X609479Y50004D01*
X605060Y50439D01*
D02*
G37*
G36*
X25060D02*
X20641Y50004D01*
X16393Y48715D01*
X12477Y46622D01*
X9045Y43805D01*
X6228Y40373D01*
X4135Y36457D01*
X2846Y32209D01*
X2411Y27790D01*
X2846Y23371D01*
X4135Y19123D01*
X6228Y15207D01*
X9045Y11775D01*
X12477Y8958D01*
X16393Y6865D01*
X20641Y5576D01*
X25060Y5141D01*
X29479Y5576D01*
X33727Y6865D01*
X37643Y8958D01*
X41075Y11775D01*
X43892Y15207D01*
X45985Y19123D01*
X47274Y23371D01*
X47709Y27790D01*
X47274Y32209D01*
X45985Y36457D01*
X43892Y40373D01*
X41075Y43805D01*
X37643Y46622D01*
X33727Y48715D01*
X29479Y50004D01*
X25060Y50439D01*
D02*
G37*
%LPD*%
D65*
X247035Y375105D02*
Y431965D01*
X244371Y434629D02*
X247035Y431965D01*
X182882Y435517D02*
X243483D01*
X244371Y434629D01*
X247035Y375105D02*
X247070Y375070D01*
X256000Y355000D02*
Y448000D01*
Y355000D02*
X280000Y331000D01*
X235000Y469000D02*
X256000Y448000D01*
X265812Y164000D02*
X386000D01*
X403464Y181464D01*
X459536D01*
X384000Y169000D02*
X403000Y188000D01*
X262851Y169000D02*
X384000D01*
X403000Y188000D02*
X460000D01*
X261000Y34000D02*
X261000D01*
X216000Y79000D02*
Y200000D01*
Y79000D02*
X261000Y34000D01*
X465000Y200000D02*
X484000Y181000D01*
X389848Y200000D02*
X465000D01*
X468485Y205000D02*
X487536Y185950D01*
X391000Y205000D02*
X468485D01*
X487536Y185950D02*
X488950D01*
X233000Y363000D02*
X391000Y205000D01*
X233000Y363000D02*
Y367000D01*
X222348Y367500D02*
X389848Y200000D01*
X234957Y141107D02*
X262851Y169000D01*
X235000Y134000D02*
X235812D01*
X265812Y164000D01*
X459536Y181464D02*
X460000Y181000D01*
X177000Y469000D02*
X235000D01*
X149000Y497000D02*
X177000Y469000D01*
X112000Y497000D02*
X149000D01*
X95000Y480000D02*
X112000Y497000D01*
X370500Y375500D02*
Y402500D01*
X380960Y412960D01*
X502960D01*
X521000Y431000D01*
X161000Y34000D02*
Y431517D01*
X165000Y435517D01*
X395000Y359000D02*
X431000D01*
X445465Y373465D01*
X544500D01*
X395000Y352000D02*
X431071D01*
X448536Y369464D01*
X637000Y320000D02*
X648000D01*
X672000Y296000D01*
X582000Y297000D02*
X620000D01*
X201000Y208000D02*
X215550Y222550D01*
X201000Y49000D02*
Y208000D01*
X215550Y222550D02*
X266450D01*
X206101Y205100D02*
X218601Y217600D01*
X206101Y42958D02*
Y205100D01*
X218601Y217600D02*
X261500D01*
X211000Y59000D02*
Y202000D01*
X221651Y212651D02*
X256550D01*
X211000Y202000D02*
X221651Y212651D01*
X720000Y128000D02*
X741000Y149000D01*
Y435000D02*
X763350Y457350D01*
X741000Y149000D02*
Y435000D01*
X763350Y457350D02*
X814810D01*
X571380Y80620D02*
X571760Y81000D01*
X448536Y369464D02*
X544500D01*
Y373465D02*
X546000Y374964D01*
X544500Y369464D02*
X546000Y367965D01*
X211000Y59000D02*
X236000Y34000D01*
X216000Y200000D02*
X223151Y207151D01*
X206101Y38899D02*
X211000Y34000D01*
X206101Y38899D02*
X208130Y40929D01*
X206101Y42958D02*
X208130Y40929D01*
Y40929D02*
Y40929D01*
X186000Y34000D02*
X201000Y49000D01*
X223151Y207151D02*
X252151D01*
X266450Y222550D02*
X267000Y222000D01*
X261500Y217600D02*
X262050Y217050D01*
X256550Y212651D02*
X257101Y212101D01*
D67*
X261000Y34000D02*
D03*
X236000D02*
D03*
X211000D02*
D03*
X186000D02*
D03*
X286000D02*
D03*
X814810Y382350D02*
D03*
Y407350D02*
D03*
Y432350D02*
D03*
Y457350D02*
D03*
X711000Y524000D02*
D03*
X736000D02*
D03*
X761000D02*
D03*
X786000D02*
D03*
X103000Y438209D02*
D03*
X30140Y413609D02*
D03*
X103000Y362000D02*
D03*
X30140Y337400D02*
D03*
X103000Y285000D02*
D03*
X30140Y260400D02*
D03*
X103000Y208060D02*
D03*
X30140Y183460D02*
D03*
X29000Y108000D02*
D03*
Y83000D02*
D03*
X102000Y107000D02*
D03*
Y132000D02*
D03*
X120000Y480000D02*
D03*
X95000D02*
D03*
X70000D02*
D03*
X45000D02*
D03*
X416000Y399000D02*
D03*
X441000D02*
D03*
X466000D02*
D03*
X491000D02*
D03*
D68*
X161000Y34000D02*
D03*
X811000Y524000D02*
D03*
X20000Y480000D02*
D03*
X391000Y399000D02*
D03*
D69*
X335670Y19000D02*
D03*
X445670D02*
D03*
X730000Y53000D02*
D03*
X729000Y18000D02*
D03*
X692330Y417000D02*
D03*
D70*
X360670Y19000D02*
D03*
X386000D02*
D03*
X411470D02*
D03*
X470670D02*
D03*
X496000D02*
D03*
X521470D02*
D03*
X554650Y46440D02*
D03*
X705000Y53000D02*
D03*
X679670D02*
D03*
X654200D02*
D03*
X704000Y18000D02*
D03*
X678670D02*
D03*
X653200D02*
D03*
X814610Y73510D02*
D03*
Y48180D02*
D03*
Y22710D02*
D03*
Y192567D02*
D03*
Y167237D02*
D03*
Y141767D02*
D03*
Y311623D02*
D03*
Y286293D02*
D03*
Y260823D02*
D03*
X667330Y417000D02*
D03*
X642000D02*
D03*
X616530D02*
D03*
D71*
X554650Y21440D02*
D03*
X814610Y98510D02*
D03*
Y217567D02*
D03*
Y336623D02*
D03*
D72*
X814810Y482350D02*
D03*
X103000Y413209D02*
D03*
X30140Y438609D02*
D03*
X103000Y337000D02*
D03*
X30140Y362400D02*
D03*
X103000Y260000D02*
D03*
X30140Y285400D02*
D03*
X103000Y183060D02*
D03*
X30140Y208460D02*
D03*
X29000Y133000D02*
D03*
X102000Y82000D02*
D03*
D73*
X320600Y509000D02*
D03*
D74*
X346000D02*
D03*
X371400D02*
D03*
D75*
X171910Y507850D02*
D03*
X221910D02*
D03*
D76*
X25060Y517790D02*
D03*
X605060D02*
D03*
X25060Y27790D02*
D03*
X605060D02*
D03*
D77*
X169000Y375000D02*
D03*
X181000D02*
D03*
X167000Y48000D02*
D03*
X244371Y434629D02*
D03*
X234957Y141107D02*
D03*
X488950Y185950D02*
D03*
X484000Y181000D02*
D03*
X620000Y297000D02*
D03*
X637000Y320000D02*
D03*
X694000Y348000D02*
D03*
X794350Y482350D02*
D03*
Y382350D02*
D03*
X521000Y442000D02*
D03*
Y504000D02*
D03*
X443010Y485876D02*
D03*
X394000Y522000D02*
D03*
X348750Y131750D02*
D03*
X235000Y134000D02*
D03*
X460000Y188000D02*
D03*
Y181000D02*
D03*
X521690Y238690D02*
D03*
X406940Y303060D02*
D03*
X401940Y339940D02*
D03*
X350000Y287000D02*
D03*
X280000Y331000D02*
D03*
X330000Y288000D02*
D03*
X593000Y262000D02*
D03*
X627000Y217000D02*
D03*
X370500Y375500D02*
D03*
X247070Y375070D02*
D03*
X443010Y498876D02*
D03*
Y511875D02*
D03*
Y472876D02*
D03*
X395000Y359000D02*
D03*
Y352000D02*
D03*
X582000Y297000D02*
D03*
X672000Y296000D02*
D03*
X67000Y443000D02*
D03*
Y406000D02*
D03*
Y387000D02*
D03*
Y368000D02*
D03*
Y348000D02*
D03*
Y311000D02*
D03*
Y291000D02*
D03*
Y259000D02*
D03*
Y238000D02*
D03*
Y218000D02*
D03*
Y178000D02*
D03*
Y160000D02*
D03*
Y135000D02*
D03*
Y116000D02*
D03*
Y97000D02*
D03*
Y78000D02*
D03*
Y59000D02*
D03*
X533667Y431000D02*
D03*
X546333D02*
D03*
X521000Y453000D02*
D03*
Y431000D02*
D03*
X559000D02*
D03*
X301000Y522500D02*
D03*
X236000D02*
D03*
X394000Y509000D02*
D03*
Y496000D02*
D03*
X288000Y513000D02*
D03*
Y522500D02*
D03*
Y532000D02*
D03*
X250000D02*
D03*
Y522500D02*
D03*
Y513000D02*
D03*
X182882Y435517D02*
D03*
X165000D02*
D03*
X146000Y45000D02*
D03*
X160000Y19000D02*
D03*
X146000Y24000D02*
D03*
Y34500D02*
D03*
X300000Y451000D02*
D03*
X264000Y477000D02*
D03*
Y464000D02*
D03*
X274000Y451000D02*
D03*
X287000D02*
D03*
X407000Y426000D02*
D03*
X433000D02*
D03*
X420000D02*
D03*
X521000Y530000D02*
D03*
Y491000D02*
D03*
Y517000D02*
D03*
X794150Y336623D02*
D03*
Y217567D02*
D03*
Y98510D02*
D03*
X469570Y351320D02*
D03*
X794150Y141767D02*
D03*
Y22710D02*
D03*
Y260823D02*
D03*
X720000Y128000D02*
D03*
X662000Y81000D02*
D03*
X571380Y80620D02*
D03*
X582000Y349000D02*
D03*
X252151Y207151D02*
D03*
X546000Y374964D02*
D03*
Y367965D02*
D03*
X532750Y350370D02*
D03*
X627040Y280210D02*
D03*
X302000Y148000D02*
D03*
X433365Y77320D02*
D03*
X544490Y97510D02*
D03*
X267000Y222000D02*
D03*
X257101Y212101D02*
D03*
X262050Y217050D02*
D03*
D78*
X233000Y367000D02*
D03*
X222348Y367500D02*
D03*
M02*
