G04*
G04 #@! TF.GenerationSoftware,Altium Limited,Altium Designer,20.0.13 (296)*
G04*
G04 Layer_Color=16711935*
%FSLAX44Y44*%
%MOMM*%
G71*
G01*
G75*
%ADD54C,2.0032*%
%ADD55R,2.0032X2.0032*%
%ADD56R,1.5032X1.5032*%
%ADD57C,1.5032*%
%ADD58R,1.5032X1.5032*%
%ADD59R,2.0032X2.0032*%
%ADD60R,2.1082X2.1082*%
%ADD61C,2.1082*%
%ADD62C,1.9032*%
%ADD63C,4.2032*%
D54*
X261000Y34000D02*
D03*
X236000D02*
D03*
X211000D02*
D03*
X186000D02*
D03*
X286000D02*
D03*
X814810Y382350D02*
D03*
Y407350D02*
D03*
Y432350D02*
D03*
Y457350D02*
D03*
X711000Y524000D02*
D03*
X736000D02*
D03*
X761000D02*
D03*
X786000D02*
D03*
X103000Y438209D02*
D03*
X30140Y413609D02*
D03*
X103000Y362000D02*
D03*
X30140Y337400D02*
D03*
X103000Y285000D02*
D03*
X30140Y260400D02*
D03*
X103000Y208060D02*
D03*
X30140Y183460D02*
D03*
X29000Y108000D02*
D03*
Y83000D02*
D03*
X102000Y107000D02*
D03*
Y132000D02*
D03*
X120000Y480000D02*
D03*
X95000D02*
D03*
X70000D02*
D03*
X45000D02*
D03*
X416000Y399000D02*
D03*
X441000D02*
D03*
X466000D02*
D03*
X491000D02*
D03*
D55*
X161000Y34000D02*
D03*
X811000Y524000D02*
D03*
X20000Y480000D02*
D03*
X391000Y399000D02*
D03*
D56*
X335670Y19000D02*
D03*
X445670D02*
D03*
X730000Y53000D02*
D03*
X729000Y18000D02*
D03*
X692330Y417000D02*
D03*
D57*
X360670Y19000D02*
D03*
X386000D02*
D03*
X411470D02*
D03*
X470670D02*
D03*
X496000D02*
D03*
X521470D02*
D03*
X554650Y46440D02*
D03*
X705000Y53000D02*
D03*
X679670D02*
D03*
X654200D02*
D03*
X704000Y18000D02*
D03*
X678670D02*
D03*
X653200D02*
D03*
X814610Y73510D02*
D03*
Y48180D02*
D03*
Y22710D02*
D03*
Y192567D02*
D03*
Y167237D02*
D03*
Y141767D02*
D03*
Y311623D02*
D03*
Y286293D02*
D03*
Y260823D02*
D03*
X667330Y417000D02*
D03*
X642000D02*
D03*
X616530D02*
D03*
D58*
X554650Y21440D02*
D03*
X814610Y98510D02*
D03*
Y217567D02*
D03*
Y336623D02*
D03*
D59*
X814810Y482350D02*
D03*
X103000Y413209D02*
D03*
X30140Y438609D02*
D03*
X103000Y337000D02*
D03*
X30140Y362400D02*
D03*
X103000Y260000D02*
D03*
X30140Y285400D02*
D03*
X103000Y183060D02*
D03*
X30140Y208460D02*
D03*
X29000Y133000D02*
D03*
X102000Y82000D02*
D03*
D60*
X320600Y509000D02*
D03*
D61*
X346000D02*
D03*
X371400D02*
D03*
D62*
X171910Y507850D02*
D03*
X221910D02*
D03*
D63*
X25060Y517790D02*
D03*
X605060D02*
D03*
X25060Y27790D02*
D03*
X605060D02*
D03*
M02*
